<?xml version="1.0" standalone="no"?>
<!DOCTYPE svg PUBLIC "-//W3C//DTD SVG 1.1//EN" "http://www.w3.org/Graphics/SVG/1.1/DTD/svg11.dtd" >
<svg xmlns="http://www.w3.org/2000/svg">
<metadata></metadata>
<defs>
<font id="freightmicro_bookitalicRg" horiz-adv-x="1099" >
<font-face units-per-em="2048" ascent="1638" descent="-410" />
<missing-glyph horiz-adv-x="393" />
<glyph horiz-adv-x="2048" />
<glyph horiz-adv-x="2048" />
<glyph unicode="&#xd;" horiz-adv-x="393" />
<glyph unicode=" "  horiz-adv-x="393" />
<glyph unicode="&#x09;" horiz-adv-x="393" />
<glyph unicode="&#xa0;" horiz-adv-x="393" />
<glyph unicode="!" horiz-adv-x="542" d="M59 100q0 70 26 98.5t103 28.5q78 0 101.5 -28.5t23.5 -98.5t-23.5 -100.5t-101.5 -30.5t-103.5 31t-25.5 100zM223 391l101 774q10 84 25.5 113t53.5 29h9q53 0 83.5 -8.5t42 -29t6.5 -56t-24 -91.5l-244 -743q-2 -4 -10 -4t-18 2t-17.5 6t-7.5 8z" />
<glyph unicode="&#x22;" horiz-adv-x="897" d="M68 797l276 483h182v-82l-364 -401h-94zM461 797l274 483h185v-82l-367 -401h-92z" />
<glyph unicode="#" horiz-adv-x="1216" d="M8 340l2 135h252l107 332h-271l4 135h304l135 401l114 -28l-118 -359h325l127 385l115 -30l-121 -369h246l-2 -135h-254l-105 -332h271l-4 -135h-306l-147 -455l-115 29l133 412h-327l-137 -437l-117 29l133 422h-244zM383 461h354l115 360h-354z" />
<glyph unicode="$" horiz-adv-x="1124" d="M66 94l8 297h137l33 -196q35 -16 66.5 -27.5t66.5 -20.5q39 121 69 220q12 41 24.5 80.5t22 70.5t15.5 50l6 18q-72 18 -137.5 42.5t-114.5 61.5t-78.5 90.5t-29.5 130.5q0 180 114.5 287t327.5 107q31 0 60.5 -2.5t62.5 -8.5l63 207h123l-71 -229q35 -8 66.5 -18.5 t64.5 -22.5l137 51l-51 -369h-133l-19 172q-23 12 -54.5 22.5t-66.5 20.5l-129 -413q74 -20 140.5 -45t115.5 -63t78 -92t29 -134q0 -90 -29 -165t-85 -129t-142 -84t-203 -30q-29 0 -56.5 2t-56.5 7l-78 -250h-124l84 266q-78 16 -142.5 42t-113.5 54zM332 940 q0 -84 58.5 -125t168.5 -76l127 406q-27 4 -53.5 6t-48.5 2q-252 0 -252 -213zM469 129q49 -6 102 -6q74 0 124 17.5t82 48t45.5 71.5t13.5 90q0 88 -58.5 132t-173.5 79q-37 -119 -67 -215q-12 -41 -24.5 -80t-22 -68.5t-12.5 -39.5z" />
<glyph unicode="%" horiz-adv-x="1609" d="M102 -39l1278 1354h162l-1282 -1354h-158zM106 909q0 119 33 200t86.5 131t121 72.5t136.5 22.5q147 0 222 -74.5t75 -203.5q0 -119 -32.5 -200t-87 -131t-122 -72.5t-137.5 -22.5q-147 0 -221 74.5t-74 203.5zM238 907q0 -80 50 -117.5t158 -37.5q55 0 94.5 23.5 t63 64.5t34.5 97t11 122q0 80 -50 119t-159 39q-55 0 -94 -24t-62.5 -65t-34.5 -98t-11 -123zM866 211q0 117 33 199t87 132t122 72.5t137 22.5q147 0 222 -74t75 -203q0 -119 -32.5 -199.5t-87 -130.5t-122 -73t-137.5 -23q-145 0 -221 74t-76 203zM999 209 q0 -78 50.5 -116t158.5 -38q55 0 93 23.5t63 64.5t35 97t10 122q0 78 -49 117t-160 39q-55 0 -93 -23.5t-61.5 -64.5t-35 -98.5t-11.5 -122.5z" />
<glyph unicode="&#x26;" horiz-adv-x="1341" d="M61 307q0 86 26 147.5t70 102.5t105.5 66.5t132.5 40.5v24q-63 53 -103 113.5t-40 152.5q0 82 30.5 146.5t83 109.5t123 70t152.5 25q180 0 260 -72t80 -213q0 -68 -25.5 -127t-71.5 -104.5t-109.5 -75t-139.5 -41.5v-25q25 -18 56.5 -47t65.5 -62.5t67.5 -69.5t60.5 -71 h24l244 209v23q-18 12 -43 33.5t-25 78.5q0 49 31 75t98 26q53 0 87 -32t34 -85q0 -47 -12 -83t-42 -69.5t-80 -68.5t-126 -80l-125 -82l252 -317l-168 -66l-198 268h-25q-76 -109 -174 -181.5t-223 -72.5q-76 0 -140.5 21.5t-111.5 63.5t-74 104.5t-27 144.5zM219 342 q0 -57 19.5 -99t52.5 -70t76 -42t88 -14q86 0 171.5 51.5t159.5 114.5q-39 49 -91 106t-101 108.5t-88 88.5t-49 43q-109 -47 -173.5 -112.5t-64.5 -174.5zM410 958q0 -76 49 -140t119 -118q113 47 182 129.5t69 174.5q0 78 -50 121.5t-165 43.5q-94 0 -149 -53t-55 -158z " />
<glyph unicode="'" horiz-adv-x="491" d="M68 797l276 483h182v-82l-364 -401h-94z" />
<glyph unicode="(" horiz-adv-x="763" d="M152 397q0 190 54 349t138 284t183.5 212t189.5 134l67 -98q-84 -47 -172 -130t-159.5 -195.5t-117.5 -252t-46 -303.5q0 -162 46 -303t117.5 -253.5t159.5 -194.5t172 -129l-65 -99q-90 45 -190.5 132.5t-184.5 212t-138 284.5t-54 350z" />
<glyph unicode=")" horiz-adv-x="763" d="M-20 -483q84 47 172 129t159.5 194.5t117.5 254t46 302.5q0 164 -46 303.5t-117.5 252t-160 195.5t-171.5 130l67 98q90 -47 189.5 -134t183.5 -212t138 -283.5t54 -349.5q0 -190 -54 -350t-138 -284.5t-184.5 -212t-190.5 -132.5z" />
<glyph unicode="*" horiz-adv-x="858" d="M145 1133l33 45l152 -33l135 -189l39 13l4 233l98 109l53 -19l17 -145l-141 -191l24 -32l221 69l135 -61v-53l-131 -62l-225 70l-24 -31l135 -190l-15 -148l-53 -14l-98 110l-4 234l-35 10l-135 -182l-146 -35l-32 45l73 133l217 68v45l-215 74z" />
<glyph unicode="+" horiz-adv-x="1001" d="M86 412l6 137h346v348h133v-348h344l7 -137h-351v-351h-133v351h-352z" />
<glyph unicode="," horiz-adv-x="456" d="M-72 -295q111 76 176.5 138.5t63.5 133.5q-2 47 -32 78t-95 47q4 53 43 88t109 35q74 0 117.5 -38.5t43.5 -118.5q0 -123 -105.5 -218.5t-299.5 -193.5z" />
<glyph unicode="-" horiz-adv-x="647" d="M80 428v137h504v-137h-504z" />
<glyph unicode="." horiz-adv-x="456" d="M57 98q0 70 28 98.5t105 28.5q76 0 99.5 -28.5t23.5 -98.5t-24.5 -100.5t-100.5 -30.5q-78 0 -104.5 31t-26.5 100z" />
<glyph unicode="/" horiz-adv-x="571" d="M-55 -467l557 1845h133l-557 -1845h-133z" />
<glyph unicode="0" horiz-adv-x="1046" d="M84 369q0 135 38 248.5t104.5 196.5t155.5 129t187 46q86 0 158 -27.5t122 -79t78.5 -125t28.5 -165.5q0 -133 -37.5 -247t-104 -196.5t-155 -130t-188.5 -47.5q-84 0 -155.5 28t-123 80t-80 124.5t-28.5 165.5zM244 369q0 -70 21.5 -120t58 -83t86 -48.5t104.5 -15.5 q66 0 117 47.5t87 120t55.5 159.5t19.5 169q0 68 -21.5 118t-57.5 81.5t-85 48t-105 16.5q-63 0 -115.5 -47t-88 -118.5t-56 -159.5t-20.5 -168z" />
<glyph unicode="1" horiz-adv-x="735" d="M25 0l20 147h217l6 9l88 643l-268 26l10 82l424 76l-106 -803l2 -8l207 -61l-15 -111h-585z" />
<glyph unicode="2" horiz-adv-x="954" d="M31 178q131 82 245.5 153.5t199.5 136t134 125t49 120.5q0 55 -52 95t-150 40q-84 0 -168 -27.5t-170 -81.5v47q57 88 155.5 148.5t227.5 60.5q162 0 250 -67.5t88 -173.5q0 -80 -40 -148.5t-122 -137.5t-207 -144.5t-295 -171.5v-19h197q100 0 162.5 3t98.5 9.5t51 13.5 t20 13l79 170h88l-73 -340h-752z" />
<glyph unicode="3" horiz-adv-x="897" d="M-111 -242q0 80 78 80q72 0 135.5 -43t87.5 -104l78 6q68 6 130.5 31.5t110.5 68.5t76.5 101.5t28.5 130.5q0 55 -27.5 88t-69.5 49t-92 21.5t-95 5.5q-47 0 -94.5 -4.5t-90.5 -12.5l-16 137q53 25 135 61t160 84t134 106.5t56 129.5q0 43 -19.5 74t-50 50.5t-66.5 28.5 t-68 9q-96 0 -178 -35t-154 -76l-4 48q70 115 172 158.5t225 43.5q61 0 121.5 -16t108 -50t76 -87.5t28.5 -126.5q0 -88 -50 -153.5t-124 -114t-157 -83t-146 -61.5v-16q41 6 83 12t83 6q61 0 114.5 -15.5t92 -48t59 -80.5t20.5 -114q0 -104 -51 -191t-132 -149.5 t-184.5 -97.5t-207.5 -35q-76 0 -135.5 16.5t-99.5 43t-60.5 59.5t-20.5 65z" />
<glyph unicode="4" horiz-adv-x="1046" d="M-6 33v117l786 845l109 -8l-139 -819h217l-29 -135h-207l-74 -410h-143l72 410h-592zM172 168h430l109 569h-27z" />
<glyph unicode="5" horiz-adv-x="894" d="M-100 -240q0 80 82 80q37 0 72.5 -12t65.5 -33.5t53.5 -48.5t35.5 -57l49 -2q66 8 124 31.5t103 61.5t71 93t26 127q0 84 -44 144.5t-116 103.5t-164 72.5t-188 50.5l182 590h649l-49 -150h-500l-96 -334q92 -25 181 -61.5t158 -89t112 -122t43 -159.5q0 -111 -43 -199 t-117 -148t-170 -92t-203 -32q-143 0 -230 55.5t-87 130.5z" />
<glyph unicode="6" horiz-adv-x="1067" d="M98 410q0 162 75 318.5t207 286.5t315.5 221t400.5 120l14 -99q-156 -39 -283 -98t-227 -137t-176 -174t-133 -211l16 -10q49 41 98.5 79.5t97.5 67.5t94 46.5t89 17.5q53 0 103.5 -25t90.5 -69t64.5 -102t24.5 -126q0 -102 -37 -199.5t-102.5 -174t-154.5 -123 t-194 -46.5q-76 0 -145.5 32t-122.5 90.5t-84 138t-31 176.5zM258 408q0 -78 21.5 -136.5t58.5 -96.5t85 -57.5t99 -19.5q55 0 108.5 38t93.5 97.5t64.5 131t24.5 139.5q0 47 -18.5 86t-46 66.5t-59.5 43t-58 15.5q-72 0 -167.5 -58.5t-193.5 -146.5q-4 -25 -8 -49.5 t-4 -52.5z" />
<glyph unicode="7" horiz-adv-x="954" d="M37 -377l758 1147v35h-287q-104 0 -158.5 -3t-79 -8.5t-28.5 -11.5t-9 -14l-67 -168h-100l81 361h797l4 -148l-745 -1190h-166z" />
<glyph unicode="8" horiz-adv-x="1069" d="M80 317q4 150 78.5 227t214.5 105l2 21q-98 31 -136 105.5t-34 172.5q6 186 117.5 272.5t304.5 82.5q86 -2 158.5 -19.5t125 -54.5t81 -98.5t24.5 -151.5q-4 -135 -67.5 -208t-192.5 -99v-25q111 -37 156.5 -112.5t41.5 -192.5q-6 -195 -124.5 -282t-319.5 -83 q-92 2 -172 19.5t-138.5 57.5t-90 104.5t-29.5 158.5zM238 344q-2 -63 18 -106t59 -70t94.5 -39t118.5 -14q141 -4 199.5 47t60.5 155q4 68 -20.5 116t-70.5 84t-109.5 61.5t-138.5 50.5q-104 -47 -156.5 -121t-54.5 -164zM367 967q-2 -61 18.5 -104.5t60 -74t99 -52 t135.5 -44.5q82 45 130 117.5t50 144.5q4 61 -12.5 101.5t-50 64t-81.5 33.5t-110 12q-129 4 -182 -43t-57 -155z" />
<glyph unicode="9" horiz-adv-x="1067" d="M-41 -295q158 39 284 98.5t226 137t177 174t134 211.5l-16 10q-49 -41 -99.5 -79t-98.5 -67.5t-94 -47t-89 -17.5q-53 0 -103.5 24.5t-90 68.5t-64.5 102.5t-25 125.5q0 102 37 199.5t102.5 174.5t154.5 123t194 46q78 0 146.5 -31.5t121.5 -90t84 -138.5t31 -176 q0 -162 -75 -318.5t-207 -286.5t-314 -221.5t-400 -119.5zM256 459q0 -47 18.5 -86t46 -66.5t59.5 -43t58 -15.5q72 0 167.5 58.5t193.5 146.5q4 25 8 49t4 53q0 78 -21.5 136.5t-58.5 97t-84 57t-98 18.5q-57 0 -109.5 -38t-93.5 -97t-65.5 -131t-24.5 -139z" />
<glyph unicode=":" horiz-adv-x="456" d="M31 98q0 70 26.5 98.5t104.5 28.5q76 0 99.5 -28.5t23.5 -98.5t-24.5 -100.5t-100.5 -30.5q-78 0 -103.5 31t-25.5 100zM174 737q0 70 25.5 98.5t103.5 28.5q76 0 101.5 -28.5t23.5 -98.5q0 -72 -24.5 -101.5t-100.5 -29.5q-78 0 -103.5 30t-25.5 101z" />
<glyph unicode=";" horiz-adv-x="456" d="M-70 -295q113 76 177.5 138.5t64.5 133.5q-4 94 -127 125q4 53 43 88t107 35q76 0 119.5 -38.5t43.5 -118.5q0 -123 -105.5 -218.5t-301.5 -193.5zM188 737q0 70 26 98.5t103 28.5q76 0 100.5 -28.5t24.5 -98.5q0 -72 -24.5 -101.5t-100.5 -29.5q-78 0 -103.5 30 t-25.5 101z" />
<glyph unicode="&#x3c;" horiz-adv-x="983" d="M41 446v72l850 414l37 -129l-666 -311v-19l666 -309l-35 -127z" />
<glyph unicode="=" horiz-adv-x="962" d="M84 223l10 133h778l11 -133h-799zM84 741h799l-11 -135h-778z" />
<glyph unicode="&#x3e;" horiz-adv-x="983" d="M39 164l661 309v19l-661 311l33 129l850 -414v-72l-852 -409z" />
<glyph unicode="?" horiz-adv-x="798" d="M74 100q0 70 26.5 98.5t104.5 28.5q76 0 99.5 -28.5t23.5 -98.5q0 -72 -23.5 -101.5t-99.5 -29.5q-78 0 -104.5 30t-26.5 101zM139 567q0 49 22.5 84t61.5 60.5t88 44t103 37.5q51 16 97 33.5t80 38t53.5 48t19.5 64.5q0 72 -81 117t-237 45q-33 0 -54.5 -2t-43.5 -7 q-4 0 -6 9.5t-2 21.5q0 27 4 54.5t19.5 51t43 38t72.5 14.5q102 0 180 -23.5t132 -64.5t82 -96.5t28 -118.5q0 -94 -31 -157.5t-80 -103.5t-109.5 -63.5t-119.5 -42.5q-90 -27 -143.5 -48t-53.5 -69q0 -31 23.5 -77.5t58.5 -96.5l-102 15q-49 49 -77 98t-28 96z" />
<glyph unicode="@" horiz-adv-x="1695" d="M88 496q0 164 61.5 311t169 258t252 176.5t312.5 65.5q150 0 285 -48.5t237 -136.5t162.5 -214t60.5 -281q0 -127 -42 -232.5t-109.5 -180.5t-153.5 -116t-176 -41q-41 0 -80 7.5t-67.5 19.5t-44 27.5t-11.5 29.5l123 420h-39q-117 -217 -206 -337t-169 -120 q-43 0 -79.5 18.5t-65.5 47.5t-45.5 61.5t-16.5 63.5q0 59 19.5 137t51.5 157t74 149.5t85 113.5q53 53 110.5 79.5t110.5 26.5q66 0 116 -44t72 -119h27l45 118h98l-114 -303l-84 -458q27 -6 49 -15q10 -4 18.5 -6t16.5 -4t14 -4q84 4 154.5 46t123 110.5t82 159 t29.5 188.5q0 135 -55 246.5t-147.5 191.5t-211 124t-247.5 44q-150 0 -279 -59.5t-225 -161t-151.5 -234.5t-55.5 -280q0 -141 47 -265t133 -216.5t206 -145.5t263 -53q66 0 130.5 11t123.5 32l21 -72q-72 -23 -137.5 -35t-141.5 -12q-160 0 -294 58.5t-230 160.5 t-150.5 239.5t-54.5 295.5zM573 324q0 -31 15.5 -53.5t36 -37t44 -21.5t38.5 -7q18 0 54 41t78 102.5t86 134t81 138.5q6 10 14 25.5t17.5 31.5t15.5 28.5t6 14.5q-8 18 -29.5 42.5t-52.5 46t-67 37t-70 15.5q-53 0 -82 -26q-27 -27 -59.5 -90.5t-60.5 -139.5t-46.5 -151.5 t-18.5 -130.5z" />
<glyph unicode="A" horiz-adv-x="1267" d="M-70 0l19 147h141l4 9l490 1032l12 78l233 43l230 -1137l8 -10l156 -51l-15 -111h-491l18 147h148l2 9l-49 266h-467l-115 -248l6 -10l148 -51l-15 -113h-463zM428 553h383l-94 557h-31z" />
<glyph unicode="B" horiz-adv-x="1243" d="M25 0l20 147h160q2 0 2 5q0 2 2 4l125 944l-4 8l-174 63l14 109h592q121 0 201.5 -24.5t130.5 -67.5q50 -42 68 -102q14 -45 13 -97q0 -17 -1 -35q-6 -76 -33 -129t-69 -88t-98 -53t-122 -25v-24q139 -29 211 -89t72 -173q0 -82 -26 -154t-73 -121q-55 -55 -151.5 -76.5 t-241.5 -21.5h-618zM373 145h121h168q86 0 142 10.5t90 35t47 66.5t13 105q0 121 -99 173.5t-261 54.5l-164 -4zM446 698l172 4q96 4 167 16.5t117 40t67.5 73.5t21.5 118q0 92 -59.5 134t-190.5 46l-239 3z" />
<glyph unicode="C" horiz-adv-x="1310" d="M121 512q0 109 17.5 204t46 173t66.5 139.5t81 104.5q76 76 180 120.5t258 44.5q121 0 220.5 -25.5t154.5 -51.5l147 59l-59 -369h-131l-12 172q-59 29 -149.5 49.5t-188.5 20.5q-215 0 -332 -166t-117 -465q0 -111 22.5 -183.5t69.5 -119.5q49 -47 131 -72.5t181 -25.5 q70 0 140.5 9t117.5 22l102 219l125 -6l-90 -390l-96 52q-70 -23 -152 -38.5t-180 -15.5q-262 0 -407.5 135.5t-145.5 403.5z" />
<glyph unicode="D" horiz-adv-x="1368" d="M25 0l20 147h160l4 9l125 944l-4 8l-172 63l12 109h496q166 0 285.5 -38t195.5 -109.5t111.5 -175t35.5 -232.5q0 -166 -52 -305t-144 -234q-45 -45 -98.5 -79.5t-124 -58t-162.5 -36t-217 -12.5h-471zM377 164l184 -37q127 0 230.5 37t176 108.5t112.5 178t40 247.5 q0 106 -24.5 187.5t-82 136.5t-148.5 84t-226 33l-137 4z" />
<glyph unicode="E" horiz-adv-x="1245" d="M25 0l20 147h160l4 9l125 944l-4 8l-172 63l12 109h1059l-51 -381h-117l-21 160q-4 20 -11 33.5t-34.5 20.5t-82 12t-152.5 10l-254 4l-60 -441h117q49 0 78 1t45 4.5t24.5 11.5t16.5 22l74 137h100l-108 -446h-99l-6 135q0 6 -4 10.5t-17.5 6.5t-42 3t-77.5 1h-117 l-57 -437h325q66 0 105 1.5t61.5 7.5t33.5 17t22 32l90 170h120l-92 -375h-1013z" />
<glyph unicode="F" horiz-adv-x="1173" d="M25 0l22 147h158l4 9l131 952l-2 8l-174 53l16 111h1014l-51 -381h-117l-18 145q-4 25 -13.5 40.5t-38 24.5t-87 15t-162.5 11l-197 2l-64 -469h99q51 0 79.5 1t44 5t23.5 11t17 22l79 137h101l-105 -447h-100l-12 138q0 6 -4 10t-18.5 5t-43 2t-78.5 1h-98l-53 -381 l4 -8l186 -53l-14 -111h-528z" />
<glyph unicode="G" horiz-adv-x="1382" d="M121 512q0 109 17.5 204t46 173t66.5 139.5t81 104.5q76 76 180 120.5t258 44.5q121 0 220.5 -25.5t154.5 -51.5l147 59l-59 -369h-131l-12 172q-59 29 -149.5 49.5t-188.5 20.5q-215 0 -332 -166t-117 -465q0 -111 22.5 -183.5t69.5 -119.5q102 -98 334 -98 q53 0 111.5 4t105.5 12l41 309l-4 9l-186 55l14 108h506l-21 -147h-143l-4 -6l-51 -307l125 -25l-13 -94q-111 -27 -234.5 -46.5t-258.5 -19.5q-305 0 -450.5 131.5t-145.5 407.5z" />
<glyph unicode="H" horiz-adv-x="1507" d="M25 0l20 147h160l4 9l125 944l-4 8l-172 63l12 109h514l-20 -147h-158l-4 -9l-53 -407h663l51 383l-4 8l-172 61l14 111h512l-20 -147h-158l-4 -9l-125 -944l2 -8l174 -63l-14 -109h-512l21 147h155l6 9l56 426h-664l-53 -402l2 -8l174 -61l-14 -111h-514z" />
<glyph unicode="I" horiz-adv-x="727" d="M29 0l18 147h186l5 9l127 944l-5 8l-200 61l14 111h565l-18 -147h-186l-5 -9l-124 -944l2 -8l200 -61l-14 -111h-565z" />
<glyph unicode="J" horiz-adv-x="854" d="M-25 137q0 45 27 84t74 39q70 0 100 -34q27 -29 27 -90v-17q2 -2 17.5 -7.5t33.5 -11.5t35.5 -11t21.5 -5q57 29 91 96.5t51 184.5l100 743l-4 8l-215 53l14 111h567l-20 -147h-172l-4 -9l-107 -794q-23 -162 -108.5 -261.5t-239.5 -99.5q-61 0 -114.5 12.5t-92.5 35 t-60.5 53t-21.5 67.5z" />
<glyph unicode="K" horiz-adv-x="1386" d="M25 0l20 147h160l4 9l125 944l-4 8l-172 63l12 109h514l-20 -147h-158l-4 -9l-70 -526l615 506l-3 8l-69 27l-72 30l15 111h487l-19 -147h-81l-13 -9l-526 -411l340 -533l10 -8l160 -63l-14 -109h-506l20 147h146l4 9l-281 465l-233 -185l-35 -256l2 -8l174 -61l-14 -111 h-514z" />
<glyph unicode="L" horiz-adv-x="1140" d="M25 0l20 147h160l4 9l125 944l-4 8l-172 63l12 109h559l-18 -147h-205l-4 -9l-129 -977h321q49 0 78 2.5t46.5 10.5t27.5 23.5t22 39.5l90 180h117l-94 -403h-956z" />
<glyph unicode="M" horiz-adv-x="1759" d="M4 0l19 147h159l4 9l146 944l-4 8l-172 63l12 109h444l193 -1069h35l503 1069h420l-18 -147h-164l-2 -9l-111 -944l2 -8l172 -63l-14 -109h-510l19 147h157l4 9l140 946h-35l-518 -1061h-197l-190 1061h-35l-115 -922l2 -8l172 -61l-14 -111h-504z" />
<glyph unicode="N" horiz-adv-x="1478" d="M8 0l21 147h159l5 9l126 944l-2 8l-178 61l15 111h424l477 -1040h35l98 860l-4 8l-170 61l14 111h502l-21 -147h-161l-5 -9l-151 -1128l-188 -21l-517 1117h-34l-105 -912l2 -8l168 -61l-14 -111h-496z" />
<glyph unicode="O" horiz-adv-x="1396" d="M117 504q0 86 13 177t41 178t72 164t103 134q80 78 187.5 112t230.5 34q129 0 233.5 -32t178 -97.5t113.5 -165t40 -234.5q0 -86 -13 -177t-42 -178t-72 -164t-102 -134q-80 -78 -187.5 -112t-230.5 -34q-129 0 -233.5 32t-178 97.5t-113.5 165t-40 234.5zM299 502 q0 -86 19.5 -157t68.5 -118q27 -27 66 -46t84 -31.5t91 -18.5t89 -6q135 0 218 58.5t130 151.5t63.5 208.5t16.5 232.5q0 86 -18.5 157t-67.5 118q-27 29 -67 48t-84 31.5t-90 17.5t-89 5q-135 0 -219 -58.5t-131 -151.5t-63.5 -209t-16.5 -232z" />
<glyph unicode="P" horiz-adv-x="1175" d="M25 0l20 147h160l4 9l125 944l-4 8l-172 63l12 109h506q111 0 202 -18.5t155.5 -57.5t99 -101.5t34.5 -148.5q0 -111 -35.5 -196.5t-100 -146t-156 -91.5t-203.5 -31q-72 0 -136.5 8.5t-113.5 18.5l-45 -336l2 -8l188 -61l-14 -111h-528zM436 635q10 -2 40 -4t62.5 -4 t62.5 -2h40q190 4 267 74.5t77 222.5q0 115 -78 166q-75 49 -239 49h-13l-153 -2z" />
<glyph unicode="Q" horiz-adv-x="1404" d="M117 526q2 90 17.5 179.5t44 172.5t70.5 154.5t97 124.5q76 74 184 112q97 34 220 34h26q129 -2 232.5 -36t175 -101.5t110.5 -169.5q35 -93 35 -218v-26q-2 -90 -17.5 -179.5t-44 -172.5t-70.5 -154.5t-97 -124.5q-63 -61 -146.5 -97t-191.5 -44q27 -76 69.5 -124.5 t100 -78t127 -43t151.5 -19.5l-4 -102q-70 -16 -150 -16h-18q-76 2 -146.5 23.5t-131 66.5t-108.5 116.5t-79 178.5q-217 25 -339 156q-117 128 -117 372v16zM299 532q-1 -18 -1 -34q0 -94 20 -154q22 -70 69 -117q47 -49 136 -74.5t188 -27.5h6q218 0 319 153 q101 156 109 467q1 18 1 36q0 92 -18 152q-22 71 -69 118q-47 49 -136 74.5t-188 27.5h-6q-216 0 -317 -155q-103 -158 -113 -466z" />
<glyph unicode="R" horiz-adv-x="1230" d="M25 0l20 147h160l4 9l125 944l-4 8l-172 63l12 109h569q213 0 318.5 -88t105.5 -238q0 -92 -26.5 -162.5t-73.5 -122t-112.5 -84t-145.5 -48.5l170 -365l8 -8l162 -53l-12 -111h-285l-55 172l-154 358l-217 -10l-45 -340l2 -8l174 -61l-14 -111h-514zM442 670l213 -29 q164 16 247 84t83 203q0 102 -62.5 152t-201.5 53h-217q-16 -129 -31 -230q-6 -43 -11 -84t-10.5 -73.5t-7.5 -53t-2 -22.5z" />
<glyph unicode="S" horiz-adv-x="1132" d="M68 82l10 309h135l33 -205q72 -29 155.5 -46t157.5 -17q80 0 133 16.5t86 45t47.5 68.5t14.5 89t-19.5 85t-59.5 62.5t-98.5 49t-136.5 47.5q-72 23 -138 49.5t-117.5 65t-82 94t-30.5 135.5q0 180 113.5 277.5t328.5 97.5q92 0 185.5 -19.5t181.5 -54.5l139 51l-53 -369 h-131l-19 172q-27 16 -65.5 28.5t-81.5 21t-87 13.5t-81 5q-129 0 -190.5 -47t-61.5 -158q0 -47 20.5 -80.5t60.5 -60.5t96 -48.5t130 -43.5q76 -25 143.5 -52.5t118.5 -67.5t81 -96.5t30 -136.5q0 -182 -116 -285.5t-359 -103.5q-135 0 -258 31t-215 78z" />
<glyph unicode="T" horiz-adv-x="1314" d="M115 856l96 424h1108l-55 -424h-121l-15 174q-4 51 -27.5 73.5t-94.5 26.5l-193 7l-125 -957l2 -8l199 -61l-12 -111h-568l21 147h184l4 9l131 981h-106q-66 0 -107 -5.5t-64.5 -17.5t-34.5 -31.5t-22 -48.5l-69 -178h-131z" />
<glyph unicode="U" horiz-adv-x="1419" d="M111 1171l14 109h512l-21 -147h-155l-4 -9l-76 -565q-8 -51 -11 -94t-3 -80q0 -78 21.5 -129t65.5 -81t114.5 -42t168.5 -12q72 0 126.5 16.5t93 61.5t64.5 121.5t42 195.5l76 584l-4 8l-172 61l14 111h498l-19 -147h-160l-4 -9l-86 -669q-18 -137 -58 -230.5 t-102.5 -150t-147.5 -80t-196 -23.5q-266 0 -384.5 94.5t-118.5 296.5q0 70 12 156l78 582l-4 8z" />
<glyph unicode="V" horiz-adv-x="1306" d="M86 1169l14 111h492l-21 -147h-145l-2 -9l176 -987h33l454 969l-6 10l-149 51l14 113h465l-20 -147h-138l-2 -9l-557 -1134h-219l-223 1118l-10 10z" />
<glyph unicode="W" horiz-adv-x="1925" d="M80 1169l14 111h500l-21 -147h-141l-2 -9l84 -950h35l414 932l2 2l-11 10l-155 51l14 111h543l-21 -147h-143l-2 -9l139 -950h35l344 934l-8 10l-146 51l15 111h471l-21 -147h-135l-2 -9l-471 -1134h-209l-137 952h-33l-434 -952h-207l-137 1118l-8 10z" />
<glyph unicode="X" horiz-adv-x="1302" d="M-25 0l19 147h137l10 11l445 477l-285 471l-8 10l-162 53l14 111h486l-19 -147h-127l-4 -11l203 -395h35l328 379l-3 10l-131 53l15 111h450l-20 -147h-109l-10 -9l-465 -477l293 -473l8 -10l162 -53l-14 -113l-482 2l19 147h129l4 9l-211 397h-33l-315 -379l2 -10 l137 -53l-14 -111h-484z" />
<glyph unicode="Y" horiz-adv-x="1210" d="M72 1167l14 113h465l-19 -147h-122l-7 -9l218 -503h30l359 497l-6 10l-142 43l15 109h471l-21 -147h-145l-11 -11l-483 -639l-39 -303l2 -8l199 -61l-14 -111h-566l19 147h186l4 9l43 340l-299 620l-8 10z" />
<glyph unicode="Z" horiz-adv-x="1179" d="M2 0l14 127l930 979v24q-12 0 -47 1.5t-79 2.5t-94 2t-95 1h-79h-46q-72 0 -99.5 -18.5t-39.5 -45.5l-70 -174h-125l53 381h987l-16 -127l-932 -979v-24q20 -2 82 -3.5t132.5 -2.5t132 -1h79.5q47 0 79 5.5t53.5 15.5t34.5 24.5t24 34.5l88 180h121l-93 -403h-995z" />
<glyph unicode="[" horiz-adv-x="753" d="M178 -504v1837h551v-125h-416v-1589h416v-123h-551z" />
<glyph unicode="\" horiz-adv-x="569" d="M68 1378h131l325 -1845h-131z" />
<glyph unicode="]" horiz-adv-x="753" d="M27 -381h415v1589h-415v125h551v-1837h-551v123z" />
<glyph unicode="^" horiz-adv-x="819" d="M162 891l229 389h287l127 -389h-113l-157 299h-19l-237 -299h-117z" />
<glyph unicode="_" horiz-adv-x="962" d="M-45 -84l6 86h959l2 -86h-967z" />
<glyph unicode="`" horiz-adv-x="817" d="M342 1423h225l166 -366h-117z" />
<glyph unicode="a" d="M63 223q0 82 15.5 168t45.5 167t73 153.5t100 130.5q47 47 111.5 73.5t132.5 26.5q94 0 155.5 -54t91.5 -155h13l82 217l161 2l-131 -331l-84 -463l9 -17l215 76l18 -16q-25 -41 -58.5 -82t-70.5 -73t-76 -52.5t-73 -20.5q-6 0 -27 8.5t-44.5 19.5t-40.5 21.5t-17 14.5 q0 16 8 58t23.5 102.5t35 134.5t41.5 151h-22q-63 -104 -124 -197t-117 -163t-108.5 -111t-103.5 -41q-47 0 -90 21.5t-75 56.5t-50.5 80t-18.5 94zM217 242q0 -27 20.5 -49.5t48 -39t58.5 -24.5t49 -8q16 0 58.5 46t92.5 115.5t101 151.5t84 156q14 29 22.5 55.5t8.5 42.5 q0 10 -27.5 31.5t-66.5 43t-80 38t-68 16.5q-41 0 -73.5 -10t-51.5 -31q-33 -33 -64.5 -98.5t-56 -144t-40 -156.5t-15.5 -135z" />
<glyph unicode="b" horiz-adv-x="1056" d="M84 1194v51l397 137l-100 -444l-111 -477h21q63 104 122.5 196.5t115 161t107.5 107.5t101 39q57 0 103.5 -22.5t78 -59.5t49 -86.5t17.5 -102.5q0 -84 -17.5 -170t-50 -167t-79.5 -153.5t-107 -131.5q-104 -100 -235 -101q-72 0 -142.5 23.5t-128 54.5t-91.5 62.5 t-32 50.5l160 952l-4 8zM262 219q0 -10 32 -31.5t77 -44t94 -39t82 -16.5q23 0 49.5 10.5t44.5 28.5q33 33 67.5 100.5t62.5 147.5t45.5 159t17.5 136q0 31 -17.5 60.5t-43 52t-55.5 35.5t-52 13q-23 0 -69 -48t-99.5 -119.5t-104.5 -154.5t-84 -155q-6 -14 -14 -34.5 t-15.5 -41t-12.5 -37t-5 -22.5z" />
<glyph unicode="c" horiz-adv-x="919" d="M63 283q0 139 46.5 263t123 216t176 146.5t203.5 54.5q129 0 208 -47.5t79 -129.5q0 -57 -27.5 -88.5t-70.5 -31.5q-51 0 -69.5 14t-18.5 61q0 16 6 32t12 26q-8 10 -35.5 20t-61.5 18.5t-68 13.5t-56 5q-37 0 -76 -43q-33 -33 -70.5 -91t-69.5 -132t-52.5 -156 t-20.5 -162q0 -35 25.5 -68.5t59.5 -61t70 -44t54 -16.5q14 0 58 26.5t99.5 63.5t112 76t95.5 63l22 -20q-43 -70 -96 -129.5t-110.5 -101.5t-115 -65.5t-106.5 -23.5q-45 0 -101.5 21.5t-106.5 61.5t-84 97.5t-34 131.5z" />
<glyph unicode="d" d="M63 223q0 82 15.5 168t45.5 167t73 153.5t100 130.5q47 47 111.5 73.5t132.5 26.5q94 0 155.5 -54t91.5 -155h13l69 381l-2 8l-180 72v51l402 137l-177 -761l-84 -463l9 -17l215 76l18 -16q-25 -41 -58.5 -82t-70.5 -73t-76 -52.5t-73 -20.5q-6 0 -27 8.5t-44.5 19.5 t-40.5 21.5t-17 14.5q0 16 8 58t23.5 102.5t35 134.5t41.5 151h-22q-63 -104 -124 -197t-117 -163t-108.5 -111t-103.5 -41q-47 0 -90 21.5t-75 56.5t-50.5 80t-18.5 94zM217 242q0 -27 20.5 -49.5t48 -39t58.5 -24.5t49 -8q16 0 58.5 46t92.5 115.5t101 152.5t84 155 q14 29 22.5 55.5t8.5 42.5q0 10 -27.5 31.5t-66.5 43t-80 38t-68 16.5q-41 0 -73.5 -10t-51.5 -31q-33 -33 -64.5 -98.5t-56 -144t-40 -156.5t-15.5 -135z" />
<glyph unicode="e" horiz-adv-x="933" d="M63 283q0 139 46.5 263t123 216t174 146.5t201.5 54.5q63 0 115.5 -15.5t90.5 -42t58.5 -60.5t20.5 -69q0 -57 -28.5 -97t-103.5 -84t-204 -104.5t-332 -158.5q-2 -12 -3 -27.5t-1 -32.5q0 -35 25.5 -68.5t59.5 -61t70 -44t54 -16.5q14 0 58 26.5t99.5 63.5t112 76 t95.5 63l22 -20q-43 -70 -96 -129.5t-110.5 -101.5t-115 -65.5t-106.5 -23.5q-45 0 -101.5 21.5t-106.5 61.5t-84 97.5t-34 131.5zM225 412h21q135 74 229 123t151.5 84.5t83 61.5t25.5 52q0 20 -18.5 42t-48 40.5t-69.5 30.5t-83 12q-20 0 -41.5 -12t-38.5 -29 q-31 -31 -62.5 -75t-60 -97t-52 -112.5t-36.5 -120.5z" />
<glyph unicode="f" horiz-adv-x="653" d="M-258 -317q0 37 19.5 58t66.5 21q41 0 85 -24.5t79 -99.5l41 16q6 14 19.5 64.5t26.5 113t25.5 124.5t18.5 101l110 674l-172 51v54l201 69q57 268 166 377q43 41 106.5 74t161.5 33q94 0 143.5 -46t49.5 -118q0 -37 -17.5 -56.5t-62.5 -19.5q-20 0 -43 5t-44.5 18.5 t-42 39t-36.5 68.5l-149 -41q-8 -14 -18.5 -54t-22 -90.5t-21.5 -103.5t-18 -98h305l-25 -129h-303l-108 -580q-18 -100 -41 -190t-48.5 -165t-54 -131t-59.5 -87q-35 -37 -80 -52.5t-100 -15.5q-72 0 -115 34t-43 106z" />
<glyph unicode="g" horiz-adv-x="972" d="M-135 -246q0 51 26.5 92t70.5 70t100.5 46.5t115.5 23.5v16q-108 47 -108 143q0 63 49 102.5t125 51.5v10q-59 27 -104.5 85.5t-45.5 150.5q0 86 33 162.5t91 134t140 91.5t179 34q63 0 130.5 -19.5t114.5 -44.5l267 -6l-39 -166l-195 72l-2 -12q14 -16 39 -55.5 t25 -78.5q0 -57 -33 -125.5t-91.5 -128t-137 -99.5t-171.5 -40q-41 0 -83 7.5t-66 15.5q-31 -18 -53.5 -47t-22.5 -68t46 -58.5t145 -35.5l186 -27q129 -18 191.5 -70.5t62.5 -146.5q0 -156 -137.5 -251t-411.5 -95q-225 0 -330.5 62.5t-105.5 203.5zM6 -217 q0 -92 96.5 -138t278.5 -46q168 0 247 42t79 128q0 66 -51.5 97.5t-174.5 53.5q-14 2 -44.5 8t-65.5 12.5t-70 14.5t-59 14q-37 -10 -78 -29.5t-76 -44t-58.5 -53t-23.5 -59.5zM252 506q0 -70 14.5 -100.5t26.5 -43.5q12 -12 51 -22t66 -10q55 0 98 18.5t80 54.5 q35 35 62.5 76t46 84t28.5 85t10 79q0 18 -34.5 43t-86 46.5t-110 35.5t-105.5 14q-27 0 -51 -18.5t-41 -42.5q-10 -14 -20.5 -45t-17.5 -72t-12 -88t-5 -94z" />
<glyph unicode="h" horiz-adv-x="1089" d="M39 -10l88 323l143 801l-4 8l-174 72v51l395 137l-90 -444l-129 -432h21q27 45 58.5 99t64 108.5t66.5 101.5t65 78q41 41 92 55.5t106 14.5q29 0 68 -19.5t75 -48.5t61.5 -61.5t25.5 -57.5q0 -45 -16.5 -98t-36.5 -113q-37 -119 -68 -215q-12 -41 -25.5 -80t-22.5 -68.5 t-16 -49.5l-6 -19l6 -14l226 90l18 -16q-25 -41 -56.5 -80t-66.5 -70t-72.5 -50.5t-72.5 -19.5q-6 0 -30.5 5.5t-53.5 11.5t-51.5 13t-22.5 13q0 18 11.5 58.5t29 90.5t35.5 105.5t33 102.5q10 37 27.5 88t34 102t27.5 92t11 58q0 10 -19.5 28.5t-47 37t-57.5 31.5t-50 13 q-78 0 -162 -120.5t-190 -397.5l-66 -305z" />
<glyph unicode="i" horiz-adv-x="563" d="M53 735q25 41 59.5 82t72.5 73t77 52.5t74 20.5q18 0 42.5 -9.5t48.5 -21.5t39 -24.5t13 -18.5l-221 -739l12 -15l217 80l21 -16q-25 -41 -56.5 -81t-67.5 -73t-73 -52.5t-71 -19.5q-6 0 -30 9.5t-50.5 22.5t-47 26.5t-18.5 19.5l207 727l-12 15l-217 -76zM326 1253 q0 72 24.5 100.5t102.5 28.5q74 0 97 -28.5t23 -104.5q0 -72 -22.5 -102.5t-97.5 -30.5q-76 0 -101.5 31t-25.5 106z" />
<glyph unicode="j" horiz-adv-x="532" d="M-236 -317q0 37 18.5 58t67.5 21q41 0 86.5 -24.5t79.5 -99.5l39 16q8 16 17.5 46t18.5 67.5t17.5 80.5t16.5 86l174 844l-10 15l-217 -76l-19 18q25 41 58.5 82t70.5 73t76 52.5t74 20.5q18 0 41.5 -8.5t46 -18.5t37 -21.5t14.5 -15.5l-182 -807q-41 -184 -86 -307 t-99 -176q-35 -35 -79.5 -50.5t-100.5 -15.5q-74 0 -117 32t-43 108zM324 1253q0 72 25.5 100.5t99.5 28.5q76 0 99 -28.5t23 -104.5q0 -72 -22.5 -102.5t-97.5 -30.5q-76 0 -101.5 31t-25.5 106z" />
<glyph unicode="k" horiz-adv-x="954" d="M39 -10l88 323l143 801l-4 8l-174 72v51l395 137l-90 -444l-104 -455h43l399 238l2 29q-18 12 -42.5 33.5t-24.5 78.5q0 49 30.5 76t98.5 27q53 0 88 -33t35 -86q0 -45 -10.5 -79t-44 -66.5t-97 -68.5t-168.5 -85l-143 -68l217 -360l20 -6l189 102l20 -18 q-14 -43 -34.5 -83t-47 -72t-58.5 -50.5t-69 -18.5q-6 0 -28.5 5.5t-48 11.5t-46 13t-22.5 11l-193 418l-71 -35l-64 -397z" />
<glyph unicode="l" horiz-adv-x="505" d="M47 51l260 1063v4q0 2 -2 4l-182 72v51l391 137q-82 -344 -149 -614q-29 -115 -55.5 -225.5t-48 -197.5t-35.5 -141l-13 -54l8 -15l221 80l19 -16q-25 -41 -56.5 -81t-67.5 -73t-73 -52.5t-71 -19.5q-6 0 -31 9.5t-50.5 22.5t-46 26.5t-18.5 19.5z" />
<glyph unicode="m" horiz-adv-x="1660" d="M23 735q25 41 58.5 82t71 73t75.5 52.5t73 20.5q6 0 26.5 -8.5t44 -18.5t41 -21.5t17.5 -15.5q0 -14 -9 -59t-23.5 -102.5t-33 -122t-34.5 -119.5h20q29 49 61.5 105t66.5 110.5t69 102.5t65 79q33 35 76 52.5t115 17.5q18 0 47 -12.5t55.5 -33t46 -48t19.5 -56.5 q0 -41 -26.5 -124t-59.5 -193h18q27 49 58.5 104t64.5 108.5t66.5 99.5t64.5 77q35 35 83 56.5t89 21.5q18 0 56 -14.5t76 -38t65.5 -53.5t27.5 -60q0 -45 -12 -100.5t-33 -114.5q-39 -125 -69 -224q-12 -43 -25.5 -82.5t-24 -71.5t-16.5 -52l-6 -19l6 -14l225 90l19 -16 q-25 -41 -56.5 -80t-66.5 -70t-73 -50.5t-72 -19.5q-6 0 -31 5.5t-53.5 11.5t-51 13t-22.5 13q0 18 12.5 60.5t29.5 96.5t36.5 111.5t34.5 106.5q10 37 25.5 87t29.5 98.5t24.5 88.5t10.5 56q0 12 -18.5 28.5t-44 30t-51.5 23.5t-40 10q-33 0 -77 -43t-91 -113.5t-91 -163 t-79 -188.5l-59 -305l-185 -10l103 383q8 33 21.5 85t25.5 105t21.5 97.5t9.5 60.5q0 12 -17.5 28.5t-42 30t-49 23.5t-41.5 10q-33 0 -77 -43t-91 -113.5t-91 -163t-77 -188.5l-59 -305l-182 -10l82 323l71 465l-8 15l-217 -76z" />
<glyph unicode="n" horiz-adv-x="1157" d="M23 735q25 41 58.5 82t71 73t75.5 52.5t73 20.5q6 0 26.5 -8.5t44 -18.5t41 -21.5t17.5 -15.5q0 -14 -9 -59t-22.5 -101.5t-30 -119t-32.5 -113.5h20q27 45 58.5 99t64.5 108.5t67 101.5t64 78q41 41 92.5 55.5t106.5 14.5q29 0 67.5 -19.5t74.5 -48.5t61.5 -61.5 t25.5 -57.5q0 -45 -16 -98t-37 -113q-37 -119 -67 -215q-12 -41 -25.5 -80t-23 -68.5t-15.5 -49.5l-6 -19l6 -14l225 90l19 -16q-25 -41 -56.5 -80t-66.5 -70t-73 -50.5t-73 -19.5q-6 0 -30.5 5.5t-53 11.5t-51 13t-22.5 13q0 18 11 58.5t28.5 90.5t36 105.5t32.5 102.5 q10 37 27.5 88t34 102t28 92t11.5 58q0 10 -19.5 28.5t-47.5 37t-57.5 31.5t-49.5 13q-66 0 -156 -120.5t-197 -397.5l-65 -305l-183 -10l89 323l71 465l-8 15l-217 -76z" />
<glyph unicode="o" horiz-adv-x="1042" d="M80 324q0 55 15.5 124.5t44 140t71.5 138.5t97 120t121 84t142 32q74 0 147 -27t130 -74t93 -111.5t36 -140.5q0 -55 -15.5 -124.5t-44 -140.5t-71.5 -138.5t-98.5 -119.5t-121 -84t-143.5 -32q-74 0 -146.5 27t-129.5 73t-92 111.5t-35 141.5zM238 301q0 -51 31.5 -91 t78.5 -67.5t100.5 -42t98.5 -14.5q33 0 67.5 33t67.5 85t59.5 116.5t44.5 128.5q16 59 24.5 108.5t8.5 69.5q0 51 -31.5 92t-78.5 70.5t-100.5 45t-98.5 15.5q-33 0 -67.5 -34t-67.5 -86t-59.5 -116.5t-45.5 -128.5q-16 -61 -24 -112t-8 -72z" />
<glyph unicode="p" horiz-adv-x="1130" d="M-86 -438l27 149h147l4 8l189 1059l-9 15l-215 -76l-18 18q25 41 58.5 82t70.5 73t76 52.5t73 20.5q6 0 27 -8.5t44.5 -18.5t42 -21.5t18.5 -15.5q0 -10 -8.5 -51t-24 -100.5t-33.5 -134t-41 -152.5h23q63 104 122.5 196.5t114.5 161t107.5 107.5t101.5 39 q57 0 103.5 -22.5t78 -59.5t49 -86t17.5 -103q0 -84 -17.5 -170t-51.5 -167t-81 -153.5t-106 -131.5q-100 -100 -234 -101q-33 0 -68.5 13.5t-68.5 37t-60.5 55.5t-41.5 70h-23l-47 -403l2 -8l150 -62l-19 -112h-479zM350 266q0 -16 28 -44.5t68.5 -56.5t88 -48.5 t83.5 -20.5q23 0 50.5 10.5t46.5 28.5q33 33 66.5 99.5t61 144.5t45 155.5t17.5 135.5q0 31 -17.5 60.5t-43 52t-54 35.5t-51.5 13t-68.5 -48t-99 -119.5t-104.5 -154.5t-84 -155q-14 -29 -23.5 -51.5t-9.5 -36.5z" />
<glyph unicode="q" horiz-adv-x="1060" d="M63 223q0 82 15.5 168t45.5 167t73 153.5t100 130.5q47 47 111.5 73.5t132.5 26.5q94 0 155.5 -54t91.5 -155h13l82 217l161 2l-131 -331l-149 -877l2 -8l164 -62l-19 -112h-485l27 149h149l4 8l51 301l115 463h-22q-63 -104 -124 -197t-117 -163t-108.5 -111t-103.5 -41 q-47 0 -90 21.5t-75 56.5t-50.5 80t-18.5 94zM217 242q0 -27 20.5 -49.5t48 -39t58.5 -24.5t49 -8q16 0 58.5 46t92.5 115.5t101 152.5t84 155q14 29 22.5 55.5t8.5 42.5q0 10 -27.5 31.5t-66.5 43t-80 38t-68 16.5q-41 0 -73.5 -10t-51.5 -31q-33 -33 -64.5 -98.5t-56 -144 t-40 -156.5t-15.5 -135z" />
<glyph unicode="r" horiz-adv-x="878" d="M23 735q25 41 58.5 82t71 73t75.5 52.5t73 20.5q6 0 26.5 -8.5t44 -18.5t41 -21.5t17.5 -15.5q0 -14 -10 -63.5t-26.5 -121t-38 -159.5t-44.5 -182h21q49 96 94 180t83 150.5t66.5 111.5t42.5 62q29 35 65 60.5t97 25.5q43 0 80 -31t37 -86q0 -72 -22.5 -100.5 t-69.5 -28.5q-53 0 -87 16.5t-48 59.5l-37 -13l-279 -477l-65 -303l-183 -10l89 323l71 465l-8 15l-217 -76z" />
<glyph unicode="s" horiz-adv-x="847" d="M6 156q0 59 28.5 88.5t71.5 29.5q53 0 73 -16t20 -63q0 -18 -7.5 -41t-11.5 -29q18 -8 54 -19.5t78 -20.5t83 -15.5t70 -6.5q10 6 26.5 19.5t32 33t26.5 45t11 52.5q0 55 -53 99.5t-137 103.5q-55 41 -96.5 71.5t-69 60.5t-41.5 62.5t-14 73.5q0 57 23.5 109.5t69.5 91.5 t112.5 62.5t150.5 22.5q70 0 129 -14t102 -40t66.5 -60.5t23.5 -75.5q0 -59 -26.5 -88.5t-71.5 -29.5q-53 0 -71.5 16t-18.5 63q0 18 7 39t11 27q-18 8 -54 19.5t-78 20.5t-83 15q-31 4 -54 4h-15q-20 -12 -48 -47q-26 -33 -26 -79v-7q0 -57 51 -102t144 -109 q53 -37 94 -67.5t68.5 -60t42 -62.5t14.5 -74q0 -63 -30 -115.5t-82 -91.5t-121.5 -60.5t-147.5 -21.5q-156 0 -241 50.5t-85 136.5z" />
<glyph unicode="t" horiz-adv-x="686" d="M78 844l221 59l121 295h92l-70 -305h252l-26 -129h-256l-140 -614l11 -15l219 80l18 -16q-25 -41 -56.5 -81t-66.5 -73t-72.5 -52.5t-72.5 -19.5q-6 0 -29.5 9.5t-49.5 21.5t-46.5 25.5t-20.5 21.5q0 2 10.5 48t26 116t35 153t35.5 157.5t29.5 132t17.5 73.5l-172 51z " />
<glyph unicode="u" horiz-adv-x="1157" d="M59 743q25 41 56.5 80t67.5 70t73 50.5t72 19.5q6 0 30.5 -5.5t53 -11.5t51 -14t22.5 -14q0 -18 -11 -57.5t-28.5 -89.5t-36 -105.5t-32.5 -102.5q-10 -37 -27.5 -89t-33 -103.5t-26.5 -92t-11 -57.5q0 -10 19 -28.5t47 -36t57.5 -30.5t48.5 -13q66 0 155.5 120.5 t196.5 397.5l65 303l183 10l-88 -323l-72 -463l10 -17l215 76l19 -16q-25 -41 -59 -82t-71.5 -73t-75.5 -52.5t-73 -20.5q-6 0 -26.5 8.5t-44 19.5t-41 21.5t-17.5 14.5q0 16 9 59t22.5 100.5t31 119t31.5 112.5h-20q-27 -45 -57.5 -99.5t-64.5 -107.5t-67.5 -100t-64.5 -78 q-41 -41 -92.5 -55.5t-106.5 -14.5q-27 0 -66.5 19.5t-74.5 48.5t-60.5 60.5t-25.5 56.5q0 47 16.5 100t34.5 113q39 119 70 215q12 41 25.5 80t22.5 68.5t15 49.5l6 19l-8 14l-225 -92z" />
<glyph unicode="v" horiz-adv-x="1001" d="M6 735q25 41 57.5 82t68.5 73t74 52.5t73 20.5q6 0 25.5 -7.5t38.5 -17.5t35.5 -20.5t16.5 -14.5l70 -780h22l213 362q18 31 39 67t40.5 70.5t34.5 64.5t22 50l-121 76q16 59 53 105.5t96 46.5q78 0 101.5 -29t23.5 -78q0 -39 -12 -73.5t-40 -84t-72 -120t-109 -179.5 l-271 -419l-168 6l-65 792l-14 13l-213 -76z" />
<glyph unicode="w" horiz-adv-x="1523" d="M6 735q25 41 57.5 82t68.5 73t74 52.5t73 20.5q4 0 22 -7.5t39.5 -17.5t38 -20.5t16.5 -14.5l64 -774h24l293 596l-22 219l180 -10l102 -805h23l174 358q14 33 32.5 69t35 69.5t28.5 62.5t17 49l-129 76q16 59 53 105.5t96 46.5q78 0 101.5 -32t23.5 -83q0 -35 -16.5 -81 t-42 -99.5t-56 -109.5t-59.5 -111l-256 -467l-146 6l-88 612h-20l-318 -618l-165 6l-76 792l-10 13l-213 -76z" />
<glyph unicode="x" horiz-adv-x="968" d="M-27 53l447 418l-166 348l-195 -96l-20 18q16 43 38.5 83t49.5 71t58.5 49.5t66.5 18.5q6 0 27.5 -4.5t44 -9.5t42 -10t19.5 -9l123 -387h18l322 422l143 -80l-444 -412l166 -356l192 94l21 -16q-16 -43 -39 -83t-49.5 -72t-58 -50.5t-66.5 -18.5q-6 0 -27.5 4.5 t-44.5 9.5t-42 11t-19 8l-119 391h-19l-325 -422z" />
<glyph unicode="y" horiz-adv-x="1019" d="M-88 -307q0 37 19.5 57.5t66.5 20.5q41 0 86 -28t80 -112l51 17q4 6 13.5 22.5t23.5 41t30.5 54t34.5 60.5q41 70 93 158l-99 18l-61 776l-8 15l-217 -76l-19 18q25 41 57.5 82t68.5 73t74 52.5t73 20.5q6 0 25.5 -7.5t38.5 -17.5t35.5 -20.5t16.5 -14.5l58 -788h26 l432 854l138 -70l-535 -866l-10 -29q-45 -123 -89 -210t-93.5 -143.5t-107.5 -82t-134 -25.5q-78 0 -123 37t-45 113z" />
<glyph unicode="z" horiz-adv-x="923" d="M14 94v12q0 60 35 103q39 47 107 90l585 389l-8 10q-92 10 -160.5 38t-122 57.5t-93.5 53t-72 23.5q-23 0 -47.5 -18t-24.5 -43l117 -178q-8 -10 -33 -21.5t-64 -11.5q-49 0 -89 39t-40 125q0 43 21.5 81t58.5 65.5t85 44t104 16.5q66 0 121 -21.5t103 -52.5t89 -67.5 t74 -67.5l61 209q47 0 81 -35t38 -88v-12q0 -59 -36 -102q-40 -48 -105 -91l-586 -389l6 -10l402 -138q45 39 96 76t104 53l25 -20q-31 -102 -87.5 -173t-146.5 -71q-63 0 -123.5 19.5t-113.5 50.5t-99.5 68.5t-80.5 72.5l-62 -209q-47 0 -81 35t-38 88z" />
<glyph unicode="{" horiz-adv-x="722" d="M45 317l6 101l-6 100q80 6 140.5 16.5t101.5 29t62.5 47t21.5 73.5q0 47 -26 99.5t-55.5 108.5t-55 116.5t-25.5 121.5q0 72 28.5 117t89 73t154.5 41t226 19v-143q-111 -6 -179.5 -14.5t-107.5 -21.5t-53.5 -33.5t-14.5 -51.5q0 -47 25.5 -95t55.5 -100.5t55.5 -107.5 t25.5 -115q0 -129 -90 -193.5t-283 -76.5v-20q193 -12 283 -78t90 -195q0 -59 -25.5 -114.5t-55.5 -107.5t-55.5 -100.5t-25.5 -93.5q0 -33 14.5 -53t53.5 -33.5t107.5 -21.5t179.5 -14v-144q-131 6 -225.5 18.5t-155 39t-89 71.5t-28.5 115q0 61 25.5 122.5t55 120 t55.5 111.5t26 101q0 88 -83 119.5t-243 45.5z" />
<glyph unicode="|" horiz-adv-x="598" d="M244 -467v1845h131v-1845h-131z" />
<glyph unicode="}" horiz-adv-x="722" d="M14 -403q111 6 180.5 14t108.5 21.5t53.5 34t14.5 52.5q0 45 -26 93.5t-55.5 100.5t-55 107.5t-25.5 114.5q0 129 89 194.5t282 78.5v20q-193 12 -282 76.5t-89 193.5q0 59 25.5 114.5t55 108t55.5 100.5t26 95q0 31 -14.5 51.5t-53.5 33.5t-108.5 21.5t-180.5 14.5v143 q131 -6 225.5 -19t156 -41t90 -73t28.5 -117q0 -61 -25.5 -121.5t-55.5 -116.5t-55.5 -108.5t-25.5 -99.5q0 -45 21.5 -73.5t62.5 -47t101.5 -29t138.5 -16.5l-6 -100l6 -101q-158 -14 -241 -45.5t-83 -119.5q0 -47 25.5 -100.5t55.5 -112t55.5 -120t25.5 -122.5 q0 -70 -28.5 -115t-90 -71.5t-156 -39t-225.5 -18.5v144z" />
<glyph unicode="~" horiz-adv-x="819" d="M31 330q18 68 38.5 121t46 88.5t59.5 54t83 18.5q55 0 99 -22.5t81 -50t71 -51t66 -23.5q12 0 23.5 4t24 18.5t28 43t37.5 75.5h92q-18 -68 -38.5 -121t-46 -89t-59.5 -55t-83 -19q-53 0 -97 23.5t-82 51t-72 50t-69 22.5q-12 0 -23 -4t-23.5 -18.5t-28 -42t-37.5 -74.5 h-90z" />
<glyph unicode="&#xa1;" horiz-adv-x="542" d="M74 66.5q6 35.5 24 91.5l242 741q2 4 10 5t18.5 -2t17.5 -7t7 -8l-98 -774q-6 -43 -12.5 -70t-15.5 -42t-21.5 -21.5t-32.5 -6.5h-8q-53 0 -84 8.5t-42 29t-5 56zM303 1178q2 72 25.5 101.5t99.5 29.5q78 0 104.5 -29.5t24.5 -101.5q0 -70 -25.5 -98.5t-103.5 -28.5 q-76 0 -100.5 28.5t-24.5 98.5z" />
<glyph unicode="&#xa2;" horiz-adv-x="919" d="M63 283q0 141 47.5 266t125 217t178 144.5t207.5 50.5l100 344h94q-29 -98 -51 -177q-10 -33 -19.5 -64.5t-17.5 -56t-12 -39.5l-4 -16q90 -14 139 -57t49 -109q0 -55 -27.5 -87.5t-70.5 -32.5q-51 0 -69.5 14t-18.5 61q0 16 6 31.5t12 26.5q-4 6 -19.5 12t-37.5 14 l-217 -733q25 12 68.5 40t93 59.5t96.5 64.5t80 55l22 -20q-39 -63 -88 -117.5t-101.5 -96.5t-104.5 -68.5t-99 -33.5l-82 -290h-94l84 292q-43 10 -91 35t-87 64t-65 91t-26 116zM217 264q0 -25 14.5 -50.5t36 -48t47 -42t50.5 -31.5l223 764q-20 4 -40 6t-36 2 q-35 0 -78 -43q-33 -33 -70.5 -94t-70.5 -138t-54.5 -162t-21.5 -163z" />
<glyph unicode="&#xa3;" horiz-adv-x="1036" d="M16 63q0 111 78 146t244 -43q43 29 61.5 78t18.5 96q0 59 -13.5 114.5t-33.5 112.5h-275l-10 103h250q-23 59 -38 121.5t-15 128.5q0 84 28.5 152.5t80.5 117.5t128 75.5t170 26.5q51 0 112.5 -6t115 -24.5t89 -51t35.5 -86.5q0 -41 -17 -63.5t-62 -22.5q-41 0 -68 7.5 t-47.5 21.5t-36.5 34.5t-35 47.5q-16 6 -47 10t-53 4q-49 -6 -92 -19.5t-76 -40t-52.5 -69.5t-19.5 -106t18.5 -128t41.5 -130h387l-9 -103h-346q10 -35 15.5 -67.5t5.5 -67.5q0 -170 -156 -285l15 -16q109 -6 179 -7t116.5 3t74 15.5t47.5 31.5q43 43 72 145l88 -16 q-10 -72 -26.5 -133t-47 -107.5t-78 -73t-118.5 -26.5q-115 0 -206 43t-173 88q-45 -41 -97.5 -81t-107.5 -40q-49 0 -82 16.5t-33 73.5z" />
<glyph unicode="&#xa4;" horiz-adv-x="1081" d="M78 428l8 104h86q2 23 3 44.5t3 44.5q2 47 12 94h-104l-8 104h133q25 102 70 189.5t111.5 150t156.5 97t209 34.5q68 0 134 -6t120.5 -22.5t87.5 -48t33 -85.5q0 -20 -4.5 -45.5t-15.5 -46t-30.5 -35t-50.5 -14.5q-72 0 -112.5 35t-18.5 113q-43 16 -101.5 26t-117.5 10 q-119 -29 -187.5 -123t-105.5 -229h520l-8 -104h-543q-10 -47 -12 -94q-2 -23 -4 -45.5t-2 -43.5h561l8 -104h-561q8 -166 88 -233.5t252 -67.5q92 0 169 25.5t155 62.5l2 -47q-127 -195 -367 -195q-236 0 -352.5 113t-122.5 342h-94z" />
<glyph unicode="&#xa5;" horiz-adv-x="1187" d="M76 285l4 104h424l22 170h-420l-12 105h398l-248 452l-11 10l-137 43l13 111h483l-21 -147h-155l-2 -9l202 -446h31l320 440l-2 8l-158 43l14 111h469l-18 -147h-129l-8 -9l-383 -460h364l-6 -105h-418l-22 -170h413l13 -104h-441l-14 -113l2 -8l201 -53l-15 -111h-569 l21 147h188l4 9l16 129h-413z" />
<glyph unicode="&#xa6;" horiz-adv-x="1005" d="M-25 186q0 66 35 104t88 38q78 0 112 -51.5t26 -135.5q12 -6 35.5 -14t50 -16.5t54 -14.5t52.5 -6q59 18 109.5 92t72.5 228l95 698l-5 8l-213 53l15 111h565l-18 -147h-172l-5 -9l-102 -751q-12 -96 -42 -171t-81 -127t-126 -79t-179 -27q-184 0 -275.5 64.5 t-91.5 152.5z" />
<glyph unicode="&#xa7;" horiz-adv-x="1067" d="M109 561q0 63 20.5 106.5t56 71t83.5 43t104 25.5v31q-23 14 -42.5 27.5t-33.5 31.5t-22.5 44t-8.5 63q0 72 31 128t84 96t125 61.5t153 21.5q49 0 105.5 -8.5t105 -29t80 -56t31.5 -91.5q0 -41 -19.5 -76.5t-80.5 -35.5q-72 0 -107 33.5t-2 105.5q-49 18 -112.5 30.5 t-135.5 12.5q-31 -14 -61.5 -55t-30.5 -113q0 -39 25.5 -66.5t63.5 -46t84 -33t87 -26.5q51 -16 108.5 -35.5t105.5 -47.5t80 -69.5t32 -105.5q0 -63 -21.5 -106t-57.5 -71t-84 -43.5t-103 -25.5v-33q47 -29 76.5 -59.5t29.5 -101.5q0 -70 -30.5 -127.5t-83 -98.5 t-124 -62.5t-153.5 -21.5q-49 0 -106.5 7.5t-106.5 28t-82 55t-33 90.5q0 41 20.5 78.5t80.5 37.5q72 0 107.5 -34.5t2.5 -106.5q49 -18 112.5 -30.5t135.5 -12.5q31 14 62.5 54t31.5 116q0 39 -23.5 65.5t-61.5 47t-86 35t-97 28.5q-55 18 -111.5 38t-101.5 48.5 t-73.5 69.5t-28.5 98zM264 596q0 -35 29 -61.5t68.5 -45t82.5 -32t72 -23.5q41 -14 82 -27.5t80 -31.5q31 14 63.5 30.5t59 38t43 50t16.5 67.5q0 35 -28.5 61.5t-68.5 46t-83 33t-72 21.5q-41 14 -81 28.5t-81 30.5q-31 -12 -63.5 -28.5t-59 -38t-43 -51t-16.5 -68.5z" />
<glyph unicode="&#xa8;" horiz-adv-x="819" d="M160 1194q0 68 25.5 95.5t103.5 27.5t102.5 -27.5t24.5 -95.5t-25.5 -99.5t-101.5 -31.5q-78 0 -103.5 31.5t-25.5 99.5zM621 1194q0 68 27.5 95.5t105.5 27.5q76 0 100.5 -27.5t24.5 -95.5t-25 -99.5t-102 -31.5q-78 0 -104.5 31.5t-26.5 99.5z" />
<glyph unicode="&#xa9;" horiz-adv-x="1630" d="M129 639q0 213 41 365.5t129 250t226.5 142.5t334.5 45q197 0 338 -46t231.5 -143.5t133.5 -249t43 -364.5t-42 -365.5t-133.5 -250t-231.5 -142.5t-337 -45t-335 45t-227 142.5t-130 250t-41 365.5zM229 639q0 -184 35 -317.5t111 -219.5t196.5 -125.5t290.5 -39.5 t292 39.5t200 124.5t113.5 218.5t35.5 319.5q0 184 -36.5 317.5t-114.5 219.5t-200 125.5t-292 39.5t-289.5 -39.5t-195.5 -124.5t-111 -218.5t-35 -319.5zM451 614q0 242 108.5 353.5t331.5 111.5q76 0 127 -11t92 -28l98 41v-278h-100l-64 127q-14 10 -36.5 16t-47 10.5 t-49 6.5t-43.5 2q-70 0 -120 -15.5t-81.5 -52.5t-47 -96.5t-15.5 -145.5q0 -102 12.5 -170.5t44 -110.5t86 -59.5t140.5 -17.5q23 0 48.5 3t50 7t44 12.5t31.5 16.5l65 139h103l-25 -274l-84 30q-43 -20 -102.5 -34.5t-157.5 -14.5q-215 0 -312 104.5t-97 327.5z" />
<glyph unicode="&#xaa;" horiz-adv-x="878" d="M127 731q0 66 12.5 134.5t37 134t59 124t79.5 103.5q37 35 88.5 56.5t104.5 21.5q76 0 125 -43t74 -123h12l65 172l127 2l-104 -264l-68 -373l6 -10l173 59l16 -12q-20 -33 -47 -66t-56.5 -58.5t-60.5 -42t-59 -16.5q-4 0 -21.5 6.5t-36 15.5t-33 17.5t-14.5 10.5 q0 12 7.5 47t20.5 84t29.5 110.5t34.5 126.5h-16q-55 -88 -104.5 -164.5t-94.5 -133t-86 -89.5t-82 -33q-39 0 -73.5 17.5t-60 45t-40 64.5t-14.5 76zM250 745q0 -23 16.5 -41t38 -30t46 -19.5t38.5 -7.5t48 37t74 93.5t81 123t67 123.5q10 23 17.5 44.5t7.5 33.5 q0 8 -22.5 25.5t-53 35t-63.5 30.5t-56 13q-31 0 -57 -8t-43 -24q-27 -27 -51.5 -80.5t-44 -116t-31.5 -124.5t-12 -108z" />
<glyph unicode="&#xab;" horiz-adv-x="1150" d="M80 397v158l467 285l12 -109l-350 -239v-31l350 -240l-12 -110zM543 393v166l483 301l14 -112l-366 -256v-31l366 -256l-14 -115z" />
<glyph unicode="&#xac;" d="M63 223q0 82 15.5 168t45.5 167t73 153.5t100 130.5q47 47 111.5 73.5t132.5 26.5q94 0 155.5 -54t91.5 -155h13l82 217l161 2l-131 -331l-84 -463l9 -17l215 76l18 -16q-25 -41 -58.5 -82t-70.5 -73t-76 -52.5t-73 -20.5q-6 0 -27 8.5t-44.5 19.5t-40.5 21.5t-17 14.5 q0 16 8 58t23.5 102.5t35 134.5t41.5 151h-22q-63 -104 -124 -197t-117 -163t-108.5 -111t-103.5 -41q-47 0 -90 21.5t-75 56.5t-50.5 80t-18.5 94zM217 242q0 -27 20.5 -49.5t48 -39t58.5 -24.5t49 -8q16 0 58.5 46t92.5 115.5t101 151.5t84 156q14 29 22.5 55.5t8.5 42.5 q0 10 -27.5 31.5t-66.5 43t-80 38t-68 16.5q-41 0 -73.5 -10t-51.5 -31q-33 -33 -64.5 -98.5t-56 -144t-40 -156.5t-15.5 -135z" />
<glyph unicode="&#xad;" horiz-adv-x="647" d="M80 428v137h504v-137h-504z" />
<glyph unicode="&#xae;" horiz-adv-x="1630" d="M129 639q0 213 41 365.5t129 250t226.5 142.5t334.5 45q197 0 338 -46t231.5 -143.5t133.5 -249t43 -364.5t-43 -365.5t-133.5 -250t-231.5 -142.5t-338 -45t-335 45t-226 142.5t-129 250t-41 365.5zM229 639q0 -184 35 -317.5t111 -219.5t196.5 -125.5t290.5 -39.5 t292 39.5t200 124.5t113.5 218.5t35.5 319.5q0 184 -35.5 317.5t-114.5 219.5t-201 125.5t-294 39.5q-170 0 -289.5 -39.5t-194.5 -124.5t-110 -218.5t-35 -319.5zM467 1063h422q96 0 159.5 -16.5t100.5 -47t51 -72.5t14 -93q2 -111 -46 -173.5t-167 -93.5l150 -235l8 -6 l113 -37l-2 -88h-211l-64 118l-125 222h-139v-209l2 -6l113 -37v-88h-363l2 114h101q0 2 1 2t1 2v3v608q-2 2 -2 4v4l-117 37zM731 655l123 -20q109 6 159 48t50 120q0 84 -41 114.5t-150 30.5h-141v-293z" />
<glyph unicode="&#xaf;" horiz-adv-x="819" d="M217 1104l4 135h561l9 -135h-574z" />
<glyph unicode="&#xb0;" horiz-adv-x="747" d="M145 1008q0 152 71 225.5t233 73.5q90 0 148 -16.5t92 -53.5t47.5 -93t13.5 -136q0 -143 -71 -222t-230 -79q-88 0 -146.5 17t-93.5 54t-49.5 94.5t-14.5 135.5zM242 1008q0 -55 7 -95.5t28.5 -65t62.5 -36.5t109 -12q121 0 162.5 51.5t41.5 157.5q0 61 -7 101 t-29.5 63.5t-62.5 32.5t-105 9q-121 0 -164 -49t-43 -157z" />
<glyph unicode="&#xb1;" horiz-adv-x="1630" d="M129 639q0 213 41 365.5t128 250t225.5 142.5t334.5 45q197 0 338 -46t232.5 -143.5t134.5 -249t43 -364.5t-43 -365.5t-133.5 -250t-231.5 -142.5t-338 -45t-335 45t-226 142.5t-129 250t-41 365.5zM229 639q0 -184 35 -317.5t111 -219.5t195.5 -125.5t289.5 -39.5 q172 0 294 39.5t200 124.5t113.5 218.5t35.5 319.5q0 184 -35.5 317.5t-114.5 219.5t-201 125.5t-294 39.5q-170 0 -289.5 -39.5t-194.5 -124.5t-110 -218.5t-35 -319.5zM528 975v88h398q166 0 247.5 -59.5t81.5 -188.5q0 -141 -73.5 -219t-239.5 -78q-41 0 -80 3t-71 11 v-200l2 -6l122 -37v-88h-372l2 114h100q0 2 2 4v613v2q0 2 -2 4zM791 629q23 -4 60.5 -6t63.5 -2q117 0 157 41t40 133q0 47 -9 74.5t-34 44t-65.5 21.5t-104.5 5h-108v-311z" />
<glyph unicode="&#xb4;" horiz-adv-x="817" d="M352 1057l258 366h226l-367 -366h-117z" />
<glyph unicode="&#xb5;" horiz-adv-x="972" d="M-135 -246q0 51 26.5 92t70.5 70t100.5 46.5t115.5 23.5v16q-109 47 -108 145q0 61 49 100.5t125 51.5v10q-59 27 -104.5 85.5t-45.5 150.5q0 86 33 162.5t91 134t140 91.5t179 34q63 0 130.5 -19.5t114.5 -44.5l267 -6l-39 -166l-195 72l-2 -12q14 -16 39 -55.5 t25 -78.5q0 -57 -33 -125.5t-91.5 -128t-137 -99.5t-171.5 -40q-41 0 -83 7.5t-66 15.5q-31 -18 -53.5 -47t-22.5 -68t46 -58.5t145 -35.5l186 -27q129 -18 191.5 -70.5t62.5 -146.5q0 -156 -137.5 -251t-411.5 -95q-225 0 -330.5 62.5t-105.5 203.5zM6 -217 q0 -92 96.5 -138t278.5 -46q168 0 247 42t79 128q0 66 -51.5 97.5t-174.5 53.5q-14 2 -44.5 8t-65.5 12.5t-70 14.5t-59 14q-37 -10 -78 -29.5t-76 -44t-58.5 -53t-23.5 -59.5zM252 506q0 -70 14.5 -100.5t26.5 -43.5q12 -12 51 -22t66 -10q55 0 98 18.5t80 54.5 q35 35 62.5 76t46 84t28.5 85t10 79q0 18 -34.5 43t-86 46.5t-110 35.5t-105.5 14q-27 0 -51 -18.5t-41 -42.5q-10 -14 -20.5 -45t-17.5 -72t-12 -88t-5 -94z" />
<glyph unicode="&#xb6;" horiz-adv-x="1001" d="M139 883q0 217 105.5 307t316.5 90h428l-180 -1346h-131l82 611q-43 -10 -89 -15.5t-75 -5.5q-98 0 -181 18.5t-144.5 59.5t-96.5 110.5t-35 170.5z" />
<glyph unicode="&#xb7;" horiz-adv-x="456" d="M100 465q0 70 28 98.5t105 28.5q76 0 99.5 -28.5t23.5 -98.5t-24.5 -100.5t-100.5 -30.5q-78 0 -104.5 30.5t-26.5 100.5z" />
<glyph unicode="&#xb8;" horiz-adv-x="819" d="M139 -514q106 14 174 30.5t106 36t52 46t14 61.5q0 47 -62.5 70.5t-191.5 31.5h-34l6 54l301 250h117l-246 -203v-19q137 0 196.5 -49t59.5 -119q0 -125 -114 -190.5t-378 -75.5v76z" />
<glyph unicode="&#xba;" horiz-adv-x="833" d="M133 795q0 68 27.5 155.5t78 166.5t123 133.5t164.5 54.5q59 0 117.5 -21.5t105 -58.5t75 -88.5t28.5 -112.5q0 -68 -27.5 -156t-79 -166.5t-125 -134t-165.5 -55.5q-59 0 -116.5 21.5t-104 58.5t-74 89t-27.5 114zM260 776q0 -41 24.5 -72.5t61.5 -54t80 -35t80 -12.5 q27 0 55.5 26.5t54 67.5t47 93.5t35.5 103.5q14 47 20.5 87t6.5 54q0 43 -25.5 76t-62.5 56.5t-80 35.5t-80 12q-27 0 -55.5 -26.5t-54 -68.5t-47 -93t-33.5 -102q-14 -49 -20.5 -90t-6.5 -58z" />
<glyph unicode="&#xbb;" horiz-adv-x="1163" d="M119 205l366 256v31l-366 256l16 112l481 -301v-166l-481 -303zM600 221l350 240v31l-350 239l12 109l467 -285v-158l-467 -286z" />
<glyph unicode="&#xbc;" horiz-adv-x="1196" d="M-258 -317q0 37 19.5 58t66.5 21q41 0 85 -24.5t79 -99.5l41 16q6 14 19.5 64.5t26.5 113t25.5 124.5t18.5 101l110 674l-172 51v54l201 69q57 268 166 377q43 41 106.5 74t161.5 33q94 0 143.5 -46.5t49.5 -117.5q0 -37 -17.5 -56.5t-62.5 -19.5q-20 0 -43 5t-44.5 18.5 t-42 39t-36.5 68.5l-149 -41q-8 -14 -19.5 -54t-23 -90.5t-22.5 -103.5t-19 -98h391q33 143 73 238.5t97 150.5q41 41 104.5 74t161.5 33q94 0 144.5 -46.5t50.5 -117.5q0 -37 -17.5 -56.5t-62.5 -19.5q-20 0 -43 5t-44.5 18.5t-42 39t-36.5 68.5l-150 -41q-8 -14 -18 -54 t-21.5 -90.5t-21.5 -103.5t-19 -98h306l-25 -129h-303l-109 -580q-18 -100 -40.5 -190t-48 -165t-54.5 -131t-59 -87q-35 -37 -80 -52.5t-101 -15.5q-72 0 -114.5 34t-42.5 106q0 37 19.5 58t66.5 21q41 0 85 -24.5t79 -99.5l40 16q6 14 19.5 64.5t27 113t25.5 124.5t19 101 l116 707h-397l-106 -580q-18 -100 -40 -190t-47.5 -165t-53 -131t-58.5 -87q-35 -37 -80 -52.5t-100 -15.5q-72 0 -115 34t-43 106z" />
<glyph unicode="&#xbd;" horiz-adv-x="1599" d="M-258 -317q0 37 19.5 58t66.5 21q41 0 85 -24.5t79 -99.5l41 16q6 14 19.5 64.5t26.5 113t25.5 124.5t18.5 101l110 674l-172 51v54l201 69q57 268 166 377q43 41 106.5 74t161.5 33q94 0 143.5 -46.5t49.5 -117.5q0 -37 -17.5 -56.5t-62.5 -19.5q-20 0 -43 5t-44.5 18.5 t-42 39t-36.5 68.5l-149 -41q-8 -14 -19.5 -54t-23 -90.5t-22.5 -103.5t-19 -98h391q33 143 73 238.5t95 150.5q20 20 53 39.5t73 34t87 24t96 9.5q94 0 143 -46.5t49 -117.5q0 -37 -18 -56.5t-61 -19.5q-20 0 -43 5t-44.5 19.5t-42 40t-36.5 66.5l-191 -41q-8 -14 -19 -54 t-22.5 -90.5t-23 -103.5t-19.5 -98h332q4 4 12.5 15.5t19.5 23.5t25.5 21.5t30.5 9.5q18 0 44 -9.5t50.5 -21.5t41 -24.5t14.5 -18.5l-222 -739l13 -15l217 80l18 -16q-25 -41 -56.5 -81t-66 -73t-71.5 -52.5t-72 -19.5q-6 0 -30.5 9.5t-50 22.5t-46 26.5t-20.5 19.5 l200 697l-12 16h-393l-109 -580q-18 -100 -39.5 -190t-46 -165t-52.5 -131t-58 -87q-37 -37 -81 -52.5t-102 -15.5q-70 0 -113.5 34t-43.5 106q0 37 19.5 58t66.5 21q41 0 85 -24.5t78 -99.5l41 16q8 14 20.5 64.5t27 113t26.5 124.5t19 101l116 707h-397l-106 -580 q-18 -100 -40 -190t-47.5 -165t-53 -131t-58.5 -87q-35 -37 -80 -52.5t-100 -15.5q-72 0 -115 34t-43 106z" />
<glyph unicode="&#xbe;" horiz-adv-x="1611" d="M-258 -317q0 37 19.5 58t66.5 21q41 0 85 -24.5t79 -99.5l41 16q6 14 19.5 64.5t26.5 113t25.5 124.5t18.5 101l110 674l-172 51v54l201 69q57 268 166 377q43 41 106.5 74t161.5 33q94 0 143.5 -46.5t49.5 -117.5q0 -37 -17.5 -56.5t-62.5 -19.5q-20 0 -43 5t-44.5 18.5 t-42 39t-36.5 68.5l-149 -41q-8 -14 -19.5 -54t-23 -90.5t-22.5 -103.5t-19 -98h391q31 139 72 236.5t96 152.5q20 20 53 39.5t73 34t87 24t96 9.5q111 0 160 -66l180 59q-82 -344 -150 -614q-29 -115 -55.5 -225.5t-48 -197.5t-34.5 -141l-13 -54l8 -15l221 80l19 -16 q-25 -41 -56.5 -81t-66.5 -73t-73 -52.5t-73 -19.5q-6 0 -29.5 9.5t-50 22.5t-47 26.5t-18.5 19.5l174 713h-397l-109 -580q-18 -100 -39.5 -190t-46 -165t-52.5 -131t-58 -87q-37 -37 -81 -52.5t-102 -15.5q-70 0 -113.5 34t-43.5 106q0 37 19.5 58t66.5 21q41 0 85 -24.5 t78 -99.5l41 16q8 14 20.5 64.5t27 113t26.5 124.5t19 101l116 707h-397l-106 -580q-18 -100 -40 -190t-47.5 -165t-53 -131t-58.5 -87q-35 -37 -80 -52.5t-100 -15.5q-72 0 -115 34t-43 106zM950 893h406l65 262q-47 -4 -94 23.5t-76 103.5l-217 -43q-8 -14 -19 -54 t-22.5 -90.5t-23 -103.5t-19.5 -98z" />
<glyph unicode="&#xbf;" horiz-adv-x="780" d="M41 254q0 96 31.5 158.5t81 102.5t110 63.5t117.5 42.5q90 27 143.5 48t53.5 68q0 31 -24 78t-56 96l100 -14q51 -49 79 -98t28 -97q0 -49 -23 -83.5t-61.5 -60.5t-88 -44t-102.5 -37q-51 -16 -97 -32.5t-80 -38t-53.5 -49t-19.5 -64.5q0 -72 81 -117t237 -45q31 0 52 2 t44 6q4 0 7 -9t3 -21q0 -27 -5 -54.5t-20.5 -51t-43 -38t-72.5 -14.5q-100 0 -179 23.5t-133.5 64.5t-82 96.5t-27.5 118.5zM516 1169q0 72 23.5 101.5t99.5 29.5q78 0 104.5 -29.5t26.5 -101.5q0 -70 -26.5 -98.5t-104.5 -28.5q-76 0 -99.5 28.5t-23.5 98.5z" />
<glyph unicode="&#xc0;" horiz-adv-x="1267" d="M-70 0l19 147h141l4 9l490 1032l12 78l233 43l230 -1137l8 -10l156 -51l-15 -111h-491l18 147h148l2 9l-49 266h-467l-115 -248l6 -10l148 -51l-15 -113h-463zM414 1769h225l166 -366h-117zM428 553h383l-94 557h-31z" />
<glyph unicode="&#xc1;" horiz-adv-x="1267" d="M-70 0l19 147h141l4 9l490 1032l12 78l233 43l230 -1137l8 -10l156 -51l-15 -111h-491l18 147h148l2 9l-49 266h-467l-115 -248l6 -10l148 -51l-15 -113h-463zM428 553h383l-94 557h-31zM625 1403l258 366h225l-367 -366h-116z" />
<glyph unicode="&#xc2;" horiz-adv-x="1267" d="M-70 0l19 147h141l4 9l490 1032l12 78l233 43l230 -1137l8 -10l156 -51l-15 -111h-491l18 147h148l2 9l-49 266h-467l-115 -248l6 -10l148 -51l-15 -113h-463zM406 1403l229 389h287l127 -389h-113l-158 299h-18l-238 -299h-116zM428 553h383l-94 557h-31z" />
<glyph unicode="&#xc3;" horiz-adv-x="1267" d="M-70 0l19 147h141l4 9l490 1032l12 78l233 43l230 -1137l8 -10l156 -51l-15 -111h-491l18 147h148l2 9l-49 266h-467l-115 -248l6 -10l148 -51l-15 -113h-463zM403 1419q18 68 39 121t46.5 89t59.5 54.5t83 18.5q55 0 99 -22.5t81 -50t70.5 -51.5t66.5 -24q12 0 23.5 4.5 t24 18.5t27.5 43t38 76h92q-18 -68 -38.5 -121t-46.5 -89t-59.5 -55.5t-82.5 -19.5q-53 0 -97.5 23.5t-82 51t-71.5 50.5t-69 23q-12 0 -23.5 -4.5t-23.5 -18.5t-27.5 -42t-37.5 -75h-91zM428 553h383l-94 557h-31z" />
<glyph unicode="&#xc4;" horiz-adv-x="1267" d="M-70 0l19 147h141l4 9l490 1032l12 78l233 43l230 -1137l8 -10l156 -51l-15 -111h-491l18 147h148l2 9l-49 266h-467l-115 -248l6 -10l148 -51l-15 -113h-463zM381 1540q0 68 25.5 95.5t103.5 27.5t102.5 -27.5t24.5 -95.5t-25.5 -99.5t-101.5 -31.5q-78 0 -103.5 32 t-25.5 99zM428 553h383l-94 557h-31zM842 1540q0 68 27.5 95.5t105.5 27.5q76 0 100.5 -27.5t24.5 -95.5t-24.5 -99.5t-102.5 -31.5t-104.5 32t-26.5 99z" />
<glyph unicode="&#xc5;" horiz-adv-x="1267" d="M-70 0l19 147h141l4 9l510 1075q-55 23 -75.5 73t-20.5 134q0 121 54 178t183 57q72 0 118 -13t73 -41t37 -73t10 -108q0 -86 -31.5 -141.5t-103.5 -75.5l211 -1049l8 -10l156 -51l-15 -111h-491l18 147h148l2 9l-49 266h-467l-115 -248l6 -10l148 -51l-15 -113h-463z M428 553h383l-94 565h-31zM600 1438q0 -39 4 -68t19.5 -47t44 -26.5t77.5 -8.5q86 0 116 37t30 113q0 43 -5 71.5t-20.5 46t-43 23.5t-74.5 6q-88 0 -118 -34.5t-30 -112.5z" />
<glyph unicode="&#xc6;" horiz-adv-x="1742" d="M-92 0l22 147h140l4 9l641 958l-2 4l-172 51l14 111h1200l-53 -381h-115l-22 160q-4 20 -11.5 32.5t-35 19.5t-82 12t-150.5 12l-227 4l-60 -441h117q39 0 61.5 1t37 5.5t21.5 11.5t15 21l76 137h98l-106 -446h-100l-7 135q0 6 -3 10.5t-14 6.5t-33.5 3t-61.5 1h-115 l-57 -437h295q66 0 104.5 1.5t61 7.5t34 17t23.5 32l88 170h121l-92 -375h-983l18 147h160l4 9l37 266h-396l-165 -252l-2 -4l137 -55l-15 -111h-450zM489 553h326l88 594h-24z" />
<glyph unicode="&#xc7;" horiz-adv-x="1310" d="M121 512q0 109 17.5 204t46 173t66.5 139.5t81 104.5q76 76 180 120.5t258 44.5q121 0 220.5 -25.5t154.5 -51.5l147 59l-59 -369h-131l-12 172q-59 29 -149.5 49.5t-188.5 20.5q-215 0 -332 -166t-117 -465q0 -111 22.5 -183.5t69.5 -119.5q49 -47 131 -72.5t181 -25.5 q70 0 140.5 9t117.5 22l102 219l125 -6l-90 -390l-96 52q-63 -20 -138 -35t-161 -19l-136 -110v-19q137 0 196.5 -49t59.5 -119q0 -125 -113.5 -190.5t-377.5 -75.5v76q106 14 174 30.5t105.5 36t52 46t14.5 61.5q0 47 -62.5 70.5t-191.5 31.5h-35l6 54l195 161 q-225 20 -349 153.5t-124 381.5z" />
<glyph unicode="&#xc8;" horiz-adv-x="1245" d="M25 0l20 147h160l4 9l125 944l-4 8l-172 63l12 109h1059l-51 -381h-117l-21 160q-4 20 -11 33.5t-34.5 20.5t-82 12t-152.5 10l-254 4l-60 -441h117q49 0 78 1t45 4.5t24.5 11.5t16.5 22l74 137h100l-108 -446h-99l-6 135q0 6 -4 10.5t-17.5 6.5t-42 3t-77.5 1h-117 l-57 -437h325q66 0 105 1.5t61.5 7.5t33.5 17t22 32l90 170h120l-92 -375h-1013zM422 1769h225l166 -366h-117z" />
<glyph unicode="&#xc9;" horiz-adv-x="1245" d="M25 0l20 147h160l4 9l125 944l-4 8l-172 63l12 109h1059l-51 -381h-117l-21 160q-4 20 -11 33.5t-34.5 20.5t-82 12t-152.5 10l-254 4l-60 -441h117q49 0 78 1t45 4.5t24.5 11.5t16.5 22l74 137h100l-108 -446h-99l-6 135q0 6 -4 10.5t-17.5 6.5t-42 3t-77.5 1h-117 l-57 -437h325q66 0 105 1.5t61.5 7.5t33.5 17t22 32l90 170h120l-92 -375h-1013zM664 1403l258 366h225l-367 -366h-116z" />
<glyph unicode="&#xca;" horiz-adv-x="1245" d="M25 0l20 147h160l4 9l125 944l-4 8l-172 63l12 109h1059l-51 -381h-117l-21 160q-4 20 -11 33.5t-34.5 20.5t-82 12t-152.5 10l-254 4l-60 -441h117q49 0 78 1t45 4.5t24.5 11.5t16.5 22l74 137h100l-108 -446h-99l-6 135q0 6 -4 10.5t-17.5 6.5t-42 3t-77.5 1h-117 l-57 -437h325q66 0 105 1.5t61.5 7.5t33.5 17t22 32l90 170h120l-92 -375h-1013zM393 1403l230 389h286l127 -389h-112l-158 299h-18l-238 -299h-117z" />
<glyph unicode="&#xcb;" horiz-adv-x="1245" d="M25 0l20 147h160l4 9l125 944l-4 8l-172 63l12 109h1059l-51 -381h-117l-21 160q-4 20 -11 33.5t-34.5 20.5t-82 12t-152.5 10l-254 4l-60 -441h117q49 0 78 1t45 4.5t24.5 11.5t16.5 22l74 137h100l-108 -446h-99l-6 135q0 6 -4 10.5t-17.5 6.5t-42 3t-77.5 1h-117 l-57 -437h325q66 0 105 1.5t61.5 7.5t33.5 17t22 32l90 170h120l-92 -375h-1013zM377 1540q0 68 25.5 95.5t103.5 27.5t102.5 -27.5t24.5 -95.5t-25.5 -99.5t-101.5 -31.5q-78 0 -103.5 32t-25.5 99zM838 1540q0 68 27.5 95.5t105.5 27.5q76 0 100.5 -27.5t24.5 -95.5 t-24.5 -99.5t-102.5 -31.5t-104.5 32t-26.5 99z" />
<glyph unicode="&#xcc;" horiz-adv-x="727" d="M29 0l18 147h186l5 9l127 944l-5 8l-200 61l14 111h565l-18 -147h-186l-5 -9l-124 -944l2 -8l200 -61l-14 -111h-565zM121 1769h225l166 -366h-117z" />
<glyph unicode="&#xcd;" horiz-adv-x="727" d="M29 0l18 147h186l5 9l127 944l-5 8l-200 61l14 111h565l-18 -147h-186l-5 -9l-124 -944l2 -8l200 -61l-14 -111h-565zM410 1403l258 366h225l-367 -366h-116z" />
<glyph unicode="&#xce;" horiz-adv-x="727" d="M29 0l18 147h186l5 9l127 944l-5 8l-200 61l14 111h565l-18 -147h-186l-5 -9l-124 -944l2 -8l200 -61l-14 -111h-565zM158 1403l229 389h287l127 -389h-113l-158 299h-18l-238 -299h-116z" />
<glyph unicode="&#xcf;" horiz-adv-x="727" d="M29 0l18 147h186l5 9l127 944l-5 8l-200 61l14 111h565l-18 -147h-186l-5 -9l-124 -944l2 -8l200 -61l-14 -111h-565zM102 1540q0 68 26 95.5t103 27.5q78 0 102.5 -27.5t24.5 -95.5t-25.5 -99.5t-101.5 -31.5q-78 0 -103.5 32t-25.5 99zM563 1540q0 68 27.5 95.5 t105.5 27.5q76 0 100.5 -27.5t24.5 -95.5t-24.5 -99.5t-102.5 -31.5t-104.5 32t-26.5 99z" />
<glyph unicode="&#xd0;" horiz-adv-x="1368" d="M25 0l20 147h160l4 9l57 426h-192v135h209l3 17q3 16 6 43.5t8 61t9 70.5q10 84 25 191l-4 8l-172 63l12 109h496q166 0 285.5 -38t195.5 -109.5t111.5 -175t35.5 -232.5q0 -166 -52 -305t-144 -234q-45 -45 -98.5 -79.5t-124 -58t-162.5 -36t-217 -12.5h-471zM377 164 l184 -37q127 0 230.5 37t176 108.5t112.5 178t40 247.5q0 106 -24.5 187.5t-82 136.5t-148.5 84t-226 33l-137 4l-56 -426h279v-135h-295z" />
<glyph unicode="&#xd1;" horiz-adv-x="1478" d="M8 0l21 147h159l5 9l126 944l-2 8l-178 61l15 111h424l477 -1040h35l98 860l-4 8l-170 61l14 111h502l-21 -147h-161l-5 -9l-151 -1128l-188 -21l-517 1117h-34l-105 -912l2 -8l168 -61l-14 -111h-496zM502 1419q18 68 38.5 121t46 89t59.5 54.5t83 18.5q55 0 99 -22.5 t81 -50t71 -51.5t67 -24q12 0 23 4.5t23.5 18.5t28 43t37.5 76h92q-18 -68 -38.5 -121t-46 -89t-59.5 -55.5t-83 -19.5q-53 0 -97 23.5t-82 51t-72 50.5t-68 23q-12 0 -23.5 -4.5t-24 -18.5t-28 -42t-37.5 -75h-90z" />
<glyph unicode="&#xd2;" horiz-adv-x="1396" d="M117 504q0 86 13 177t41 178t72 164t103 134q80 78 187.5 112t230.5 34q129 0 233.5 -32t178 -97.5t113.5 -165t40 -234.5q0 -86 -13 -177t-42 -178t-72 -164t-102 -134q-80 -78 -187.5 -112t-230.5 -34q-129 0 -233.5 32t-178 97.5t-113.5 165t-40 234.5zM299 502 q0 -86 19.5 -157t68.5 -118q27 -27 66 -46t84 -31.5t91 -18.5t89 -6q135 0 218 58.5t130 151.5t63.5 208.5t16.5 232.5q0 86 -18.5 157t-67.5 118q-27 29 -67 48t-84 31.5t-90 17.5t-89 5q-135 0 -219 -58.5t-131 -151.5t-63.5 -209t-16.5 -232zM485 1769h226l166 -366h-117 z" />
<glyph unicode="&#xd3;" horiz-adv-x="1396" d="M117 504q0 86 13 177t41 178t72 164t103 134q80 78 187.5 112t230.5 34q129 0 233.5 -32t178 -97.5t113.5 -165t40 -234.5q0 -86 -13 -177t-42 -178t-72 -164t-102 -134q-80 -78 -187.5 -112t-230.5 -34q-129 0 -233.5 32t-178 97.5t-113.5 165t-40 234.5zM299 502 q0 -86 19.5 -157t68.5 -118q27 -27 66 -46t84 -31.5t91 -18.5t89 -6q135 0 218 58.5t130 151.5t63.5 208.5t16.5 232.5q0 86 -18.5 157t-67.5 118q-27 29 -67 48t-84 31.5t-90 17.5t-89 5q-135 0 -219 -58.5t-131 -151.5t-63.5 -209t-16.5 -232zM719 1403l258 366h225 l-366 -366h-117z" />
<glyph unicode="&#xd4;" horiz-adv-x="1396" d="M117 504q0 86 13 177t41 178t72 164t103 134q80 78 187.5 112t230.5 34q129 0 233.5 -32t178 -97.5t113.5 -165t40 -234.5q0 -86 -13 -177t-42 -178t-72 -164t-102 -134q-80 -78 -187.5 -112t-230.5 -34q-129 0 -233.5 32t-178 97.5t-113.5 165t-40 234.5zM299 502 q0 -86 19.5 -157t68.5 -118q27 -27 66 -46t84 -31.5t91 -18.5t89 -6q135 0 218 58.5t130 151.5t63.5 208.5t16.5 232.5q0 86 -18.5 157t-67.5 118q-27 29 -67 48t-84 31.5t-90 17.5t-89 5q-135 0 -219 -58.5t-131 -151.5t-63.5 -209t-16.5 -232zM494 1403l229 389h287 l127 -389h-113l-158 299h-18l-238 -299h-116z" />
<glyph unicode="&#xd5;" horiz-adv-x="1396" d="M117 504q0 86 13 177t41 178t72 164t103 134q80 78 187.5 112t230.5 34q129 0 233.5 -32t178 -97.5t113.5 -165t40 -234.5q0 -86 -13 -177t-42 -178t-72 -164t-102 -134q-80 -78 -187.5 -112t-230.5 -34q-129 0 -233.5 32t-178 97.5t-113.5 165t-40 234.5zM299 502 q0 -86 19.5 -157t68.5 -118q27 -27 66 -46t84 -31.5t91 -18.5t89 -6q135 0 218 58.5t130 151.5t63.5 208.5t16.5 232.5q0 86 -18.5 157t-67.5 118q-27 29 -67 48t-84 31.5t-90 17.5t-89 5q-135 0 -219 -58.5t-131 -151.5t-63.5 -209t-16.5 -232zM461 1419q18 68 38.5 121 t46 89t59.5 54.5t83 18.5q55 0 99 -22.5t81 -50t71 -51.5t67 -24q12 0 23 4.5t23.5 18.5t28 43t37.5 76h92q-18 -68 -38.5 -121t-46 -89t-59.5 -55.5t-83 -19.5q-53 0 -97 23.5t-82 51t-72 50.5t-68 23q-12 0 -23.5 -4.5t-24 -18.5t-28 -42t-37.5 -75h-90z" />
<glyph unicode="&#xd6;" horiz-adv-x="1396" d="M117 504q0 86 13 177t41 178t72 164t103 134q80 78 187.5 112t230.5 34q129 0 233.5 -32t178 -97.5t113.5 -165t40 -234.5q0 -86 -13 -177t-42 -178t-72 -164t-102 -134q-80 -78 -187.5 -112t-230.5 -34q-129 0 -233.5 32t-178 97.5t-113.5 165t-40 234.5zM299 502 q0 -86 19.5 -157t68.5 -118q27 -27 66 -46t84 -31.5t91 -18.5t89 -6q135 0 218 58.5t130 151.5t63.5 208.5t16.5 232.5q0 86 -18.5 157t-67.5 118q-27 29 -67 48t-84 31.5t-90 17.5t-89 5q-135 0 -219 -58.5t-131 -151.5t-63.5 -209t-16.5 -232zM444 1540q0 68 26 95.5 t103 27.5q78 0 102.5 -27.5t24.5 -95.5t-25.5 -99.5t-101.5 -31.5q-78 0 -103.5 32t-25.5 99zM905 1540q0 68 28 95.5t105 27.5q76 0 100.5 -27.5t24.5 -95.5t-24.5 -99.5t-102.5 -31.5t-104.5 32t-26.5 99z" />
<glyph unicode="&#xd7;" horiz-adv-x="995" d="M80 133l346 346l-346 344l76 76l346 -346l346 348l76 -76l-349 -346l347 -346l-76 -76l-344 346l-346 -346z" />
<glyph unicode="&#xd8;" horiz-adv-x="1396" d="M92 -119l172 230q-72 66 -109.5 163t-37.5 230q0 86 13 177t41 178t72 164t103 134q80 78 187.5 112t230.5 34q205 0 338 -76l133 174h127q-39 -51 -74 -96q-29 -39 -58.5 -77t-45.5 -61q145 -135 145 -393q0 -86 -13 -177t-42 -178t-72 -164t-102 -134 q-80 -78 -187.5 -112t-230.5 -34q-100 0 -184 17.5t-152 56.5q2 2 -18.5 -24.5t-44.5 -59.5q-29 -37 -64 -84h-127zM299 502q0 -78 15.5 -141.5t52.5 -110.5l634 842v18q-59 20 -131.5 31.5t-140.5 11.5q-135 0 -219 -58.5t-131 -151.5t-63.5 -209t-16.5 -232zM446 166 q59 -29 132 -35t139 -6q135 0 218 58.5t130 151.5t63.5 208.5t16.5 232.5q0 78 -14.5 140.5t-51.5 109.5l-27 -36q-26 -36 -71 -94t-101.5 -134t-115.5 -156q-139 -186 -318 -422v-18z" />
<glyph unicode="&#xd9;" horiz-adv-x="1419" d="M111 1171l14 109h512l-21 -147h-155l-4 -9l-76 -565q-8 -51 -11 -94t-3 -80q0 -78 21.5 -129t65.5 -81t114.5 -42t168.5 -12q72 0 126.5 16.5t93 61.5t64.5 121.5t42 195.5l76 584l-4 8l-172 61l14 111h498l-19 -147h-160l-4 -9l-86 -669q-18 -137 -58 -230.5 t-102.5 -150t-147.5 -80t-196 -23.5q-266 0 -384.5 94.5t-118.5 296.5q0 70 12 156l78 582l-4 8zM492 1769h225l166 -366h-117z" />
<glyph unicode="&#xda;" horiz-adv-x="1419" d="M111 1171l14 109h512l-21 -147h-155l-4 -9l-76 -565q-8 -51 -11 -94t-3 -80q0 -78 21.5 -129t65.5 -81t114.5 -42t168.5 -12q72 0 126.5 16.5t93 61.5t64.5 121.5t42 195.5l76 584l-4 8l-172 61l14 111h498l-19 -147h-160l-4 -9l-86 -669q-18 -137 -58 -230.5 t-102.5 -150t-147.5 -80t-196 -23.5q-266 0 -384.5 94.5t-118.5 296.5q0 70 12 156l78 582l-4 8zM731 1403l258 366h225l-366 -366h-117z" />
<glyph unicode="&#xdb;" horiz-adv-x="1419" d="M111 1171l14 109h512l-21 -147h-155l-4 -9l-76 -565q-8 -51 -11 -94t-3 -80q0 -78 21.5 -129t65.5 -81t114.5 -42t168.5 -12q72 0 126.5 16.5t93 61.5t64.5 121.5t42 195.5l76 584l-4 8l-172 61l14 111h498l-19 -147h-160l-4 -9l-86 -669q-18 -137 -58 -230.5 t-102.5 -150t-147.5 -80t-196 -23.5q-266 0 -384.5 94.5t-118.5 296.5q0 70 12 156l78 582l-4 8zM504 1403l229 389h287l127 -389h-113l-157 299h-19l-237 -299h-117z" />
<glyph unicode="&#xdc;" horiz-adv-x="1419" d="M111 1171l14 109h512l-21 -147h-155l-4 -9l-76 -565q-8 -51 -11 -94t-3 -80q0 -78 21.5 -129t65.5 -81t114.5 -42t168.5 -12q72 0 126.5 16.5t93 61.5t64.5 121.5t42 195.5l76 584l-4 8l-172 61l14 111h498l-19 -147h-160l-4 -9l-86 -669q-18 -137 -58 -230.5 t-102.5 -150t-147.5 -80t-196 -23.5q-266 0 -384.5 94.5t-118.5 296.5q0 70 12 156l78 582l-4 8zM449 1540q0 68 25.5 95.5t103.5 27.5t102.5 -27.5t24.5 -95.5t-26 -99.5t-101 -31.5q-78 0 -103.5 32t-25.5 99zM909 1540q0 68 28 95.5t105 27.5q76 0 100.5 -27.5 t24.5 -95.5t-24.5 -99.5t-102.5 -31.5t-104.5 32t-26.5 99z" />
<glyph unicode="&#xdd;" horiz-adv-x="1210" d="M72 1167l14 113h465l-19 -147h-122l-7 -9l218 -503h30l359 497l-6 10l-142 43l15 109h471l-21 -147h-145l-11 -11l-483 -639l-39 -303l2 -8l199 -61l-14 -111h-566l19 147h186l4 9l43 340l-299 620l-8 10zM645 1403l258 366h225l-366 -366h-117z" />
<glyph unicode="&#xde;" horiz-adv-x="1175" d="M25 0l20 147h160l4 9l125 944l-4 8l-172 63l12 109h514l-20 -147h-158l-4 -9l-10 -88h151q111 0 202 -18.5t155.5 -57t100.5 -100t36 -147.5q0 -111 -36 -197t-100.5 -146.5t-155.5 -91t-204 -30.5q-72 0 -136.5 7t-113.5 17l-14 -92l2 -8l188 -61l-14 -111h-528z M406 393q10 -2 39.5 -4t62.5 -4t62.5 -2h39.5q190 4 267 74.5t77 222.5q0 113 -78.5 164t-252.5 49l-152 -2z" />
<glyph unicode="&#xdf;" horiz-adv-x="1282" d="M-258 -317q0 37 19.5 58t66.5 21q41 0 85 -24.5t79 -99.5l41 16q6 14 19.5 64.5t26.5 113t25.5 124.5t18.5 101l110 674l-172 51v54l201 69q57 268 166 377q43 41 106.5 74t161.5 33q94 0 143.5 -46t49.5 -118q0 -37 -17.5 -56.5t-62.5 -19.5q-20 0 -43 5t-44.5 18.5 t-42 39t-36.5 68.5l-149 -41q-8 -14 -18.5 -51t-21 -85t-22.5 -103.5t-22 -106.5l-131 -709q-18 -100 -40 -190t-47.5 -165t-53 -131t-58.5 -87q-35 -37 -80 -52.5t-100 -15.5q-72 0 -115 34t-43 106zM440 156q0 59 29 88.5t72 29.5q53 0 72.5 -16t19.5 -63q0 -18 -7.5 -41 t-11.5 -29q18 -8 51 -19.5t72 -20.5t77 -16.5t67 -7.5q12 6 31.5 18.5t38 29t32.5 40t14 50.5q0 29 -17 54.5t-45 52t-63.5 55t-72.5 61.5q-43 37 -83 70.5t-70 66.5t-48 68t-18 73q0 57 24.5 105.5t71.5 84.5t112.5 55.5t145.5 19.5q154 2 241 -48.5t87 -136.5 q0 -59 -27 -88.5t-72 -29.5q-53 0 -71.5 16t-18.5 63q0 18 7 39t12 27q-18 8 -51 19.5t-71 20.5t-77 16t-68 7q-10 -6 -26.5 -16t-31.5 -25.5t-25.5 -36t-10.5 -47.5q0 -55 59.5 -107t143.5 -122q41 -35 80 -66.5t69.5 -63.5t49 -66.5t18.5 -73.5q0 -59 -29.5 -109.5 t-79 -86.5t-113 -56.5t-130.5 -20.5q-358 -2 -359 183z" />
<glyph unicode="&#xe0;" d="M63 223q0 82 15.5 168t45.5 167t73 153.5t100 130.5q47 47 111.5 73.5t132.5 26.5q94 0 155.5 -54t91.5 -155h13l82 217l161 2l-131 -331l-84 -463l9 -17l215 76l18 -16q-25 -41 -58.5 -82t-70.5 -73t-76 -52.5t-73 -20.5q-6 0 -27 8.5t-44.5 19.5t-40.5 21.5t-17 14.5 q0 16 8 58t23.5 102.5t35 134.5t41.5 151h-22q-63 -104 -124 -197t-117 -163t-108.5 -111t-103.5 -41q-47 0 -90 21.5t-75 56.5t-50.5 80t-18.5 94zM217 242q0 -27 20.5 -49.5t48 -39t58.5 -24.5t49 -8q16 0 58.5 46t92.5 115.5t101 151.5t84 156q14 29 22.5 55.5t8.5 42.5 q0 10 -27.5 31.5t-66.5 43t-80 38t-68 16.5q-41 0 -73.5 -10t-51.5 -31q-33 -33 -64.5 -98.5t-56 -144t-40 -156.5t-15.5 -135zM354 1423h226l165 -366h-116z" />
<glyph unicode="&#xe1;" d="M63 223q0 82 15.5 168t45.5 167t73 153.5t100 130.5q47 47 111.5 73.5t132.5 26.5q94 0 155.5 -54t91.5 -155h13l82 217l161 2l-131 -331l-84 -463l9 -17l215 76l18 -16q-25 -41 -58.5 -82t-70.5 -73t-76 -52.5t-73 -20.5q-6 0 -27 8.5t-44.5 19.5t-40.5 21.5t-17 14.5 q0 16 8 58t23.5 102.5t35 134.5t41.5 151h-22q-63 -104 -124 -197t-117 -163t-108.5 -111t-103.5 -41q-47 0 -90 21.5t-75 56.5t-50.5 80t-18.5 94zM217 242q0 -27 20.5 -49.5t48 -39t58.5 -24.5t49 -8q16 0 58.5 46t92.5 115.5t101 151.5t84 156q14 29 22.5 55.5t8.5 42.5 q0 10 -27.5 31.5t-66.5 43t-80 38t-68 16.5q-41 0 -73.5 -10t-51.5 -31q-33 -33 -64.5 -98.5t-56 -144t-40 -156.5t-15.5 -135zM569 1057l258 366h226l-367 -366h-117z" />
<glyph unicode="&#xe2;" d="M63 223q0 82 15.5 168t45.5 167t73 153.5t100 130.5q47 47 111.5 73.5t132.5 26.5q94 0 155.5 -54t91.5 -155h13l82 217l161 2l-131 -331l-84 -463l9 -17l215 76l18 -16q-25 -41 -58.5 -82t-70.5 -73t-76 -52.5t-73 -20.5q-6 0 -27 8.5t-44.5 19.5t-40.5 21.5t-17 14.5 q0 16 8 58t23.5 102.5t35 134.5t41.5 151h-22q-63 -104 -124 -197t-117 -163t-108.5 -111t-103.5 -41q-47 0 -90 21.5t-75 56.5t-50.5 80t-18.5 94zM217 242q0 -27 20.5 -49.5t48 -39t58.5 -24.5t49 -8q16 0 58.5 46t92.5 115.5t101 151.5t84 156q14 29 22.5 55.5t8.5 42.5 q0 10 -27.5 31.5t-66.5 43t-80 38t-68 16.5q-41 0 -73.5 -10t-51.5 -31q-33 -33 -64.5 -98.5t-56 -144t-40 -156.5t-15.5 -135zM342 1057l229 389h287l127 -389h-113l-157 299h-19l-237 -299h-117z" />
<glyph unicode="&#xe3;" d="M63 223q0 82 15.5 168t45.5 167t73 153.5t100 130.5q47 47 111.5 73.5t132.5 26.5q94 0 155.5 -54t91.5 -155h13l82 217l161 2l-131 -331l-84 -463l9 -17l215 76l18 -16q-25 -41 -58.5 -82t-70.5 -73t-76 -52.5t-73 -20.5q-6 0 -27 8.5t-44.5 19.5t-40.5 21.5t-17 14.5 q0 16 8 58t23.5 102.5t35 134.5t41.5 151h-22q-63 -104 -124 -197t-117 -163t-108.5 -111t-103.5 -41q-47 0 -90 21.5t-75 56.5t-50.5 80t-18.5 94zM217 242q0 -27 20.5 -49.5t48 -39t58.5 -24.5t49 -8q16 0 58.5 46t92.5 115.5t101 151.5t84 156q14 29 22.5 55.5t8.5 42.5 q0 10 -27.5 31.5t-66.5 43t-80 38t-68 16.5q-41 0 -73.5 -10t-51.5 -31q-33 -33 -64.5 -98.5t-56 -144t-40 -156.5t-15.5 -135zM287 1073q18 68 38.5 121t46 89t59.5 54.5t83 18.5q55 0 99 -22.5t81 -50.5t71 -51.5t66 -23.5q12 0 23.5 4.5t24 18.5t28 43t37.5 76h92 q-18 -68 -38.5 -121t-46 -89t-59.5 -55.5t-83 -19.5q-53 0 -97 23.5t-82 51t-72 50t-69 22.5q-12 0 -23 -4t-23.5 -18t-28 -42t-37.5 -75h-90z" />
<glyph unicode="&#xe4;" d="M63 223q0 82 15.5 168t45.5 167t73 153.5t100 130.5q47 47 111.5 73.5t132.5 26.5q94 0 155.5 -54t91.5 -155h13l82 217l161 2l-131 -331l-84 -463l9 -17l215 76l18 -16q-25 -41 -58.5 -82t-70.5 -73t-76 -52.5t-73 -20.5q-6 0 -27 8.5t-44.5 19.5t-40.5 21.5t-17 14.5 q0 16 8 58t23.5 102.5t35 134.5t41.5 151h-22q-63 -104 -124 -197t-117 -163t-108.5 -111t-103.5 -41q-47 0 -90 21.5t-75 56.5t-50.5 80t-18.5 94zM217 242q0 -27 20.5 -49.5t48 -39t58.5 -24.5t49 -8q16 0 58.5 46t92.5 115.5t101 151.5t84 156q14 29 22.5 55.5t8.5 42.5 q0 10 -27.5 31.5t-66.5 43t-80 38t-68 16.5q-41 0 -73.5 -10t-51.5 -31q-33 -33 -64.5 -98.5t-56 -144t-40 -156.5t-15.5 -135zM299 1194q0 68 25.5 95.5t103.5 27.5t102.5 -27.5t24.5 -95.5t-25.5 -99.5t-101.5 -31.5q-78 0 -103.5 31.5t-25.5 99.5zM760 1194 q0 68 27.5 95.5t105.5 27.5q76 0 100.5 -27.5t24.5 -95.5t-24.5 -99.5t-102.5 -31.5t-104.5 31.5t-26.5 99.5z" />
<glyph unicode="&#xe5;" d="M63 223q0 82 15.5 168t45.5 167t73 153.5t100 130.5q47 47 111.5 73.5t132.5 26.5q94 0 155.5 -54t91.5 -155h13l82 217l161 2l-131 -331l-84 -463l9 -17l215 76l18 -16q-25 -41 -58.5 -82t-70.5 -73t-76 -52.5t-73 -20.5q-6 0 -27 8.5t-44.5 19.5t-40.5 21.5t-17 14.5 q0 16 8 58t23.5 102.5t35 134.5t41.5 151h-22q-63 -104 -124 -197t-117 -163t-108.5 -111t-103.5 -41q-47 0 -90 21.5t-75 56.5t-50.5 80t-18.5 94zM217 242q0 -27 20.5 -49.5t48 -39t58.5 -24.5t49 -8q16 0 58.5 46t92.5 115.5t101 151.5t84 156q14 29 22.5 55.5t8.5 42.5 q0 10 -27.5 31.5t-66.5 43t-80 38t-68 16.5q-41 0 -73.5 -10t-51.5 -31q-33 -33 -64.5 -98.5t-56 -144t-40 -156.5t-15.5 -135zM469 1290q0 121 55.5 178.5t184.5 57.5q72 0 117.5 -13.5t71.5 -41t36 -73t10 -108.5q0 -113 -54 -175t-181 -62q-70 0 -117 13t-73.5 43t-38 75 t-11.5 106zM561 1290q0 -39 5 -67.5t20.5 -47t44 -26.5t78.5 -8q86 0 114.5 36.5t28.5 112.5q0 45 -5 74t-20.5 45t-43 22.5t-74.5 6.5q-88 0 -118 -35t-30 -113z" />
<glyph unicode="&#xe6;" horiz-adv-x="1540" d="M63 223q0 82 15.5 171t45.5 174t73 162t100 132q47 47 109.5 74t119.5 27q109 0 173.5 -68t93.5 -168h20q76 106 181.5 171t219.5 65q63 0 116.5 -15.5t91.5 -42t58.5 -60.5t20.5 -69q0 -57 -28.5 -97t-103.5 -84t-205 -104.5t-333 -158.5q-2 -12 -3 -27.5t-1 -32.5 q0 -35 26 -68.5t60.5 -61t69.5 -44t53 -16.5q14 0 59.5 26.5t100.5 63.5t111.5 76t95.5 63l22 -20q-43 -70 -96 -129.5t-110.5 -101.5t-114.5 -65.5t-109 -23.5q-45 0 -98 21.5t-99 61.5t-78 97.5t-32 131.5q0 23 3 41t5 38h-20q-53 -86 -103.5 -157.5t-97.5 -123.5t-91 -81 t-87 -29q-47 0 -90 21.5t-75 56.5t-50.5 80t-18.5 94zM217 242q0 -27 20.5 -49.5t48 -39t58.5 -24.5t49 -8q16 0 58.5 46t92.5 115.5t101 151.5t84 156q14 29 22.5 55.5t8.5 42.5q0 12 -27.5 38t-66.5 50.5t-80 43t-68 18.5q-41 0 -73.5 -9.5t-51.5 -29.5 q-33 -33 -64.5 -102.5t-56 -151.5t-40 -164t-15.5 -139zM834 412h20q135 74 229.5 123t151.5 84.5t82.5 61.5t25.5 52q0 20 -18 42t-49 40.5t-71 30.5t-83 12q-18 0 -39.5 -12t-38.5 -29q-31 -31 -62.5 -75t-60 -97t-52 -112.5t-35.5 -120.5z" />
<glyph unicode="&#xe7;" horiz-adv-x="919" d="M63 283q0 139 46.5 263t123 216t176 146.5t203.5 54.5q129 0 208 -47.5t79 -129.5q0 -57 -27.5 -88.5t-70.5 -31.5q-51 0 -69.5 14t-18.5 61q0 16 6 31.5t12 26.5q-8 10 -35.5 20t-61.5 18.5t-68 13.5t-56 5q-37 0 -76 -43q-33 -33 -70.5 -91t-69.5 -132t-52.5 -156 t-20.5 -162q0 -35 25.5 -68.5t59.5 -61t70 -44t54 -16.5q14 0 58 26.5t99.5 63.5t112 76t95.5 63l22 -20q-37 -61 -82 -113.5t-94 -92.5t-98 -67.5t-97 -37.5l-141 -117v-19q137 0 196.5 -49t59.5 -119q0 -125 -113.5 -190.5t-377.5 -75.5v76q106 14 173.5 30.5t105.5 36 t52.5 46t14.5 61.5q0 47 -62.5 70.5t-191.5 31.5h-35l6 54l197 164q-45 10 -92.5 35.5t-86 64.5t-63.5 90t-25 113z" />
<glyph unicode="&#xe8;" horiz-adv-x="933" d="M63 283q0 139 46.5 263t123 216t174 146.5t201.5 54.5q63 0 115.5 -15.5t90.5 -42t58.5 -60.5t20.5 -69q0 -57 -28.5 -97t-103.5 -84t-204 -104.5t-332 -158.5q-2 -12 -3 -27.5t-1 -32.5q0 -35 25.5 -68.5t59.5 -61t70 -44t54 -16.5q14 0 58 26.5t99.5 63.5t112 76 t95.5 63l22 -20q-43 -70 -96 -129.5t-110.5 -101.5t-115 -65.5t-106.5 -23.5q-45 0 -101.5 21.5t-106.5 61.5t-84 97.5t-34 131.5zM225 412h21q135 74 229 123t151.5 84.5t83 61.5t25.5 52q0 20 -18.5 42t-48 40.5t-69.5 30.5t-83 12q-20 0 -41.5 -12t-38.5 -29 q-31 -31 -62.5 -75t-60 -97t-52 -112.5t-36.5 -120.5zM307 1423h225l166 -366h-116z" />
<glyph unicode="&#xe9;" horiz-adv-x="933" d="M63 283q0 139 46.5 263t123 216t174 146.5t201.5 54.5q63 0 115.5 -15.5t90.5 -42t58.5 -60.5t20.5 -69q0 -57 -28.5 -97t-103.5 -84t-204 -104.5t-332 -158.5q-2 -12 -3 -27.5t-1 -32.5q0 -35 25.5 -68.5t59.5 -61t70 -44t54 -16.5q14 0 58 26.5t99.5 63.5t112 76 t95.5 63l22 -20q-43 -70 -96 -129.5t-110.5 -101.5t-115 -65.5t-106.5 -23.5q-45 0 -101.5 21.5t-106.5 61.5t-84 97.5t-34 131.5zM225 412h21q135 74 229 123t151.5 84.5t83 61.5t25.5 52q0 20 -18.5 42t-48 40.5t-69.5 30.5t-83 12q-20 0 -41.5 -12t-38.5 -29 q-31 -31 -62.5 -75t-60 -97t-52 -112.5t-36.5 -120.5zM526 1057l258 366h226l-367 -366h-117z" />
<glyph unicode="&#xea;" horiz-adv-x="933" d="M63 283q0 139 46.5 263t123 216t174 146.5t201.5 54.5q63 0 115.5 -15.5t90.5 -42t58.5 -60.5t20.5 -69q0 -57 -28.5 -97t-103.5 -84t-204 -104.5t-332 -158.5q-2 -12 -3 -27.5t-1 -32.5q0 -35 25.5 -68.5t59.5 -61t70 -44t54 -16.5q14 0 58 26.5t99.5 63.5t112 76 t95.5 63l22 -20q-43 -70 -96 -129.5t-110.5 -101.5t-115 -65.5t-106.5 -23.5q-45 0 -101.5 21.5t-106.5 61.5t-84 97.5t-34 131.5zM225 412h21q135 74 229 123t151.5 84.5t83 61.5t25.5 52q0 20 -18.5 42t-48 40.5t-69.5 30.5t-83 12q-20 0 -41.5 -12t-38.5 -29 q-31 -31 -62.5 -75t-60 -97t-52 -112.5t-36.5 -120.5zM266 1057l230 389h286l127 -389h-112l-158 299h-18l-238 -299h-117z" />
<glyph unicode="&#xeb;" horiz-adv-x="933" d="M63 283q0 139 46.5 263t123 216t174 146.5t201.5 54.5q63 0 115.5 -15.5t90.5 -42t58.5 -60.5t20.5 -69q0 -57 -28.5 -97t-103.5 -84t-204 -104.5t-332 -158.5q-2 -12 -3 -27.5t-1 -32.5q0 -35 25.5 -68.5t59.5 -61t70 -44t54 -16.5q14 0 58 26.5t99.5 63.5t112 76 t95.5 63l22 -20q-43 -70 -96 -129.5t-110.5 -101.5t-115 -65.5t-106.5 -23.5q-45 0 -101.5 21.5t-106.5 61.5t-84 97.5t-34 131.5zM225 412h21q135 74 229 123t151.5 84.5t83 61.5t25.5 52q0 20 -18.5 42t-48 40.5t-69.5 30.5t-83 12q-20 0 -41.5 -12t-38.5 -29 q-31 -31 -62.5 -75t-60 -97t-52 -112.5t-36.5 -120.5zM231 1194q0 68 26 95.5t103 27.5q78 0 102.5 -27.5t24.5 -95.5t-25.5 -99.5t-101.5 -31.5q-78 0 -103.5 31.5t-25.5 99.5zM692 1194q0 68 28 95.5t105 27.5q76 0 100.5 -27.5t24.5 -95.5t-24.5 -99.5t-102.5 -31.5 t-104.5 31.5t-26.5 99.5z" />
<glyph unicode="&#xec;" horiz-adv-x="563" d="M53 735q25 41 59.5 82t72.5 73t77 52.5t74 20.5q16 0 41.5 -9.5t50.5 -21.5t41 -24.5t14 -16.5l-221 -741l12 -17l218 82l18 -18q-25 -39 -56.5 -79t-66.5 -73t-71.5 -52.5t-71.5 -19.5q-6 0 -31 9.5t-52.5 21.5t-48 25.5t-20.5 19.5l209 729l-12 17l-217 -76zM115 1423 h225l166 -366h-117z" />
<glyph unicode="&#xed;" horiz-adv-x="563" d="M53 735q25 41 59.5 82t72.5 73t77 52.5t74 20.5q16 0 41.5 -9.5t50.5 -21.5t41 -24.5t14 -16.5l-221 -741l12 -17l218 82l18 -18q-25 -39 -56.5 -79t-66.5 -73t-71.5 -52.5t-71.5 -19.5q-6 0 -31 9.5t-52.5 21.5t-48 25.5t-20.5 19.5l209 729l-12 17l-217 -76zM281 1057 l258 366h225l-367 -366h-116z" />
<glyph unicode="&#xee;" horiz-adv-x="563" d="M53 735q25 41 59.5 82t72.5 73t77 52.5t74 20.5q16 0 41.5 -9.5t50.5 -21.5t41 -24.5t14 -16.5l-221 -741l12 -17l218 82l18 -18q-25 -39 -56.5 -79t-66.5 -73t-71.5 -52.5t-71.5 -19.5q-6 0 -31 9.5t-52.5 21.5t-48 25.5t-20.5 19.5l209 729l-12 17l-217 -76zM63 1057 l230 389h287l127 -389h-113l-158 299h-18l-238 -299h-117z" />
<glyph unicode="&#xef;" horiz-adv-x="563" d="M33 1194q0 68 25.5 95.5t103.5 27.5t102.5 -27.5t24.5 -95.5t-25.5 -99.5t-101.5 -31.5q-78 0 -103.5 31.5t-25.5 99.5zM53 735q25 41 59.5 82t72.5 73t77 52.5t74 20.5q16 0 41.5 -9.5t50.5 -21.5t41 -24.5t14 -16.5l-221 -741l12 -17l218 82l18 -18q-25 -39 -56.5 -79 t-66.5 -73t-71.5 -52.5t-71.5 -19.5q-6 0 -31 9.5t-52.5 21.5t-48 25.5t-20.5 19.5l209 729l-12 17l-217 -76zM494 1194q0 68 27.5 95.5t105.5 27.5q76 0 100.5 -27.5t24.5 -95.5t-25 -99.5t-102 -31.5q-78 0 -104.5 31.5t-26.5 99.5z" />
<glyph unicode="&#xf0;" horiz-adv-x="1046" d="M80 324q0 55 15.5 124.5t44 140t71.5 138.5t97 120t121 84t142 32q90 0 151.5 -42t94.5 -100h21q-20 86 -62.5 164t-101.5 148l-387 -97v123l284 72q-74 63 -159 108l12 47l186 -2q68 -43 138 -110l358 92v-127l-268 -65q70 -96 113.5 -213t43.5 -259q0 -141 -41 -272 t-111.5 -233.5t-163.5 -164t-196 -61.5q-74 0 -146.5 27t-129.5 73t-92 111.5t-35 141.5zM238 301q0 -51 31.5 -91t78.5 -67.5t100.5 -42t98.5 -14.5q33 0 67.5 33t67.5 85t59.5 116.5t44.5 128.5q10 37 19.5 76.5t17.5 75.5t12.5 62.5t4.5 36.5q0 12 -32 38t-79 50.5 t-101.5 44t-101.5 19.5q-39 0 -76.5 -34t-71.5 -87t-61.5 -117.5t-46.5 -128.5q-16 -61 -24 -112t-8 -72z" />
<glyph unicode="&#xf1;" horiz-adv-x="1157" d="M23 735q25 41 58.5 82t71 73t75.5 52.5t73 20.5q6 0 26.5 -8.5t44 -18.5t41 -21.5t17.5 -15.5q0 -14 -9 -59t-22.5 -101.5t-30 -119t-32.5 -113.5h20q27 45 58.5 99t64.5 108.5t67 101.5t64 78q41 41 92.5 55.5t106.5 14.5q29 0 67.5 -19.5t74.5 -48.5t61.5 -61.5 t25.5 -57.5q0 -45 -16 -98t-37 -113q-37 -119 -67 -215q-12 -41 -25.5 -80t-23 -68.5t-15.5 -49.5l-6 -19l6 -14l225 90l19 -16q-25 -41 -56.5 -80t-66.5 -70t-73 -50.5t-73 -19.5q-6 0 -30.5 5.5t-53 11.5t-51 13t-22.5 13q0 18 11 58.5t28.5 90.5t36 105.5t32.5 102.5 q10 37 27.5 88t34 102t28 92t11.5 58q0 10 -19.5 28.5t-47.5 37t-57.5 31.5t-49.5 13q-66 0 -156 -120.5t-197 -397.5l-65 -305l-183 -10l89 323l71 465l-8 15l-217 -76zM330 1073q18 68 38.5 121t46 89t59.5 54.5t83 18.5q55 0 99 -22.5t81 -50.5t71 -51.5t66 -23.5 q12 0 23.5 4.5t24 18.5t28 43t37.5 76h92q-18 -68 -38.5 -121t-46 -89t-59.5 -55.5t-83 -19.5q-53 0 -97 23.5t-82 51t-72 50t-69 22.5q-12 0 -23 -4t-23.5 -18t-28 -42t-37.5 -75h-90z" />
<glyph unicode="&#xf2;" horiz-adv-x="1042" d="M80 324q0 55 15.5 124.5t44 140t71.5 138.5t97 120t121 84t142 32q74 0 147 -27t130 -74t93 -111.5t36 -140.5q0 -55 -15.5 -124.5t-44 -140.5t-71.5 -138.5t-98.5 -119.5t-121 -84t-143.5 -32q-74 0 -146.5 27t-129.5 73t-92 111.5t-35 141.5zM238 301q0 -51 31.5 -91 t78.5 -67.5t100.5 -42t98.5 -14.5q33 0 67.5 33t67.5 85t59.5 116.5t44.5 128.5q16 59 24.5 108.5t8.5 69.5q0 51 -31.5 92t-78.5 70.5t-100.5 45t-98.5 15.5q-33 0 -67.5 -34t-67.5 -86t-59.5 -116.5t-45.5 -128.5q-16 -61 -24 -112t-8 -72zM369 1423h225l166 -366h-117z " />
<glyph unicode="&#xf3;" horiz-adv-x="1042" d="M80 324q0 55 15.5 124.5t44 140t71.5 138.5t97 120t121 84t142 32q74 0 147 -27t130 -74t93 -111.5t36 -140.5q0 -55 -15.5 -124.5t-44 -140.5t-71.5 -138.5t-98.5 -119.5t-121 -84t-143.5 -32q-74 0 -146.5 27t-129.5 73t-92 111.5t-35 141.5zM238 301q0 -51 31.5 -91 t78.5 -67.5t100.5 -42t98.5 -14.5q33 0 67.5 33t67.5 85t59.5 116.5t44.5 128.5q16 59 24.5 108.5t8.5 69.5q0 51 -31.5 92t-78.5 70.5t-100.5 45t-98.5 15.5q-33 0 -67.5 -34t-67.5 -86t-59.5 -116.5t-45.5 -128.5q-16 -61 -24 -112t-8 -72zM561 1057l258 366h225 l-366 -366h-117z" />
<glyph unicode="&#xf4;" horiz-adv-x="1042" d="M80 324q0 55 15.5 124.5t44 140t71.5 138.5t97 120t121 84t142 32q74 0 147 -27t130 -74t93 -111.5t36 -140.5q0 -55 -15.5 -124.5t-44 -140.5t-71.5 -138.5t-98.5 -119.5t-121 -84t-143.5 -32q-74 0 -146.5 27t-129.5 73t-92 111.5t-35 141.5zM238 301q0 -51 31.5 -91 t78.5 -67.5t100.5 -42t98.5 -14.5q33 0 67.5 33t67.5 85t59.5 116.5t44.5 128.5q16 59 24.5 108.5t8.5 69.5q0 51 -31.5 92t-78.5 70.5t-100.5 45t-98.5 15.5q-33 0 -67.5 -34t-67.5 -86t-59.5 -116.5t-45.5 -128.5q-16 -61 -24 -112t-8 -72zM324 1057l229 389h287l127 -389 h-113l-158 299h-18l-238 -299h-116z" />
<glyph unicode="&#xf5;" horiz-adv-x="1042" d="M80 324q0 55 15.5 124.5t44 140t71.5 138.5t97 120t121 84t142 32q74 0 147 -27t130 -74t93 -111.5t36 -140.5q0 -55 -15.5 -124.5t-44 -140.5t-71.5 -138.5t-98.5 -119.5t-121 -84t-143.5 -32q-74 0 -146.5 27t-129.5 73t-92 111.5t-35 141.5zM238 301q0 -51 31.5 -91 t78.5 -67.5t100.5 -42t98.5 -14.5q33 0 67.5 33t67.5 85t59.5 116.5t44.5 128.5q16 59 24.5 108.5t8.5 69.5q0 51 -31.5 92t-78.5 70.5t-100.5 45t-98.5 15.5q-33 0 -67.5 -34t-67.5 -86t-59.5 -116.5t-45.5 -128.5q-16 -61 -24 -112t-8 -72zM262 1073q18 68 39 121t46.5 89 t59 54.5t82.5 18.5q55 0 99.5 -22.5t81.5 -50.5t70.5 -51.5t66.5 -23.5q12 0 23.5 4.5t23.5 18.5t27.5 43t38.5 76h92q-18 -68 -39 -121t-46.5 -89t-59 -55.5t-83.5 -19.5q-53 0 -97 23.5t-82 51t-71.5 50t-68.5 22.5q-12 0 -23.5 -4t-23.5 -18t-27.5 -42t-38.5 -75h-90z " />
<glyph unicode="&#xf6;" horiz-adv-x="1042" d="M80 324q0 55 15.5 124.5t44 140t71.5 138.5t97 120t121 84t142 32q74 0 147 -27t130 -74t93 -111.5t36 -140.5q0 -55 -15.5 -124.5t-44 -140.5t-71.5 -138.5t-98.5 -119.5t-121 -84t-143.5 -32q-74 0 -146.5 27t-129.5 73t-92 111.5t-35 141.5zM238 301q0 -51 31.5 -91 t78.5 -67.5t100.5 -42t98.5 -14.5q33 0 67.5 33t67.5 85t59.5 116.5t44.5 128.5q16 59 24.5 108.5t8.5 69.5q0 51 -31.5 92t-78.5 70.5t-100.5 45t-98.5 15.5q-33 0 -67.5 -34t-67.5 -86t-59.5 -116.5t-45.5 -128.5q-16 -61 -24 -112t-8 -72zM287 1194q0 68 25.5 95.5 t103.5 27.5t102.5 -27.5t24.5 -95.5t-25.5 -99.5t-101.5 -31.5q-78 0 -103.5 31.5t-25.5 99.5zM748 1194q0 68 27.5 95.5t105.5 27.5q76 0 100.5 -27.5t24.5 -95.5t-25 -99.5t-102 -31.5q-78 0 -104.5 31.5t-26.5 99.5z" />
<glyph unicode="&#xf7;" horiz-adv-x="995" d="M84 426l6 111h817l6 -111h-829zM395 193q0 41 30 72.5t77 31.5t75.5 -31.5t28.5 -72.5t-28.5 -74t-75.5 -33t-77 33t-30 74zM395 766q0 41 29 73.5t76 32.5t76.5 -32.5t29.5 -73.5t-29.5 -74t-76.5 -33t-76 33t-29 74z" />
<glyph unicode="&#xf8;" horiz-adv-x="1042" d="M-139 -270l276 368q-43 45 -69.5 102.5t-26.5 123.5q0 55 15.5 124.5t45 140t72.5 138.5t97.5 120t121 84t142.5 32q53 0 107 -13.5t101 -42.5q12 14 52.5 66.5t83.5 109.5q51 68 110 148h127q-80 -109 -143 -191q-27 -35 -53.5 -68.5t-47 -60t-32.5 -43.5l-13 -18 q51 -47 82 -107.5t31 -132.5q0 -55 -15.5 -124.5t-44 -140.5t-71.5 -138.5t-98.5 -119.5t-121 -84t-143.5 -32q-59 0 -117.5 17.5t-111.5 48.5l-229 -307h-127zM201 301q0 -49 26 -92l443 590q-43 27 -95.5 39t-101.5 12q-33 0 -67.5 -34t-67.5 -86t-59.5 -116.5 t-45.5 -128.5q-16 -61 -24 -112t-8 -72zM291 143q47 -31 105.5 -44t111.5 -13q35 0 69.5 33t67.5 85t59.5 116.5t45.5 128.5q16 59 23 108t7 70q0 68 -41 114z" />
<glyph unicode="&#xf9;" horiz-adv-x="1157" d="M59 743q25 41 56.5 80t67.5 70t73 50.5t72 19.5q6 0 30.5 -5.5t53 -11.5t51 -14t22.5 -14q0 -18 -11 -57.5t-28.5 -89.5t-36 -105.5t-32.5 -102.5q-10 -37 -27.5 -89t-33 -103.5t-26.5 -92t-11 -57.5q0 -10 19 -28.5t47 -36t57.5 -30.5t48.5 -13q66 0 155.5 120.5 t196.5 397.5l65 303l183 10l-88 -323l-72 -463l10 -17l215 76l19 -16q-25 -41 -59 -82t-71.5 -73t-75.5 -52.5t-73 -20.5q-6 0 -26.5 8.5t-44 19.5t-41 21.5t-17.5 14.5q0 16 9 59t22.5 100.5t31 119t31.5 112.5h-20q-27 -45 -57.5 -99.5t-64.5 -107.5t-67.5 -100t-64.5 -78 q-41 -41 -92.5 -55.5t-106.5 -14.5q-27 0 -66.5 19.5t-74.5 48.5t-60.5 60.5t-25.5 56.5q0 47 16.5 100t34.5 113q39 119 70 215q12 41 25.5 80t22.5 68.5t15 49.5l6 19l-8 14l-225 -92zM348 1423h225l166 -366h-116z" />
<glyph unicode="&#xfa;" horiz-adv-x="1157" d="M59 743q25 41 56.5 80t67.5 70t73 50.5t72 19.5q6 0 30.5 -5.5t53 -11.5t51 -14t22.5 -14q0 -18 -11 -57.5t-28.5 -89.5t-36 -105.5t-32.5 -102.5q-10 -37 -27.5 -89t-33 -103.5t-26.5 -92t-11 -57.5q0 -10 19 -28.5t47 -36t57.5 -30.5t48.5 -13q66 0 155.5 120.5 t196.5 397.5l65 303l183 10l-88 -323l-72 -463l10 -17l215 76l19 -16q-25 -41 -59 -82t-71.5 -73t-75.5 -52.5t-73 -20.5q-6 0 -26.5 8.5t-44 19.5t-41 21.5t-17.5 14.5q0 16 9 59t22.5 100.5t31 119t31.5 112.5h-20q-27 -45 -57.5 -99.5t-64.5 -107.5t-67.5 -100t-64.5 -78 q-41 -41 -92.5 -55.5t-106.5 -14.5q-27 0 -66.5 19.5t-74.5 48.5t-60.5 60.5t-25.5 56.5q0 47 16.5 100t34.5 113q39 119 70 215q12 41 25.5 80t22.5 68.5t15 49.5l6 19l-8 14l-225 -92zM588 1057l258 366h225l-366 -366h-117z" />
<glyph unicode="&#xfb;" horiz-adv-x="1157" d="M59 743q25 41 56.5 80t67.5 70t73 50.5t72 19.5q6 0 30.5 -5.5t53 -11.5t51 -14t22.5 -14q0 -18 -11 -57.5t-28.5 -89.5t-36 -105.5t-32.5 -102.5q-10 -37 -27.5 -89t-33 -103.5t-26.5 -92t-11 -57.5q0 -10 19 -28.5t47 -36t57.5 -30.5t48.5 -13q66 0 155.5 120.5 t196.5 397.5l65 303l183 10l-88 -323l-72 -463l10 -17l215 76l19 -16q-25 -41 -59 -82t-71.5 -73t-75.5 -52.5t-73 -20.5q-6 0 -26.5 8.5t-44 19.5t-41 21.5t-17.5 14.5q0 16 9 59t22.5 100.5t31 119t31.5 112.5h-20q-27 -45 -57.5 -99.5t-64.5 -107.5t-67.5 -100t-64.5 -78 q-41 -41 -92.5 -55.5t-106.5 -14.5q-27 0 -66.5 19.5t-74.5 48.5t-60.5 60.5t-25.5 56.5q0 47 16.5 100t34.5 113q39 119 70 215q12 41 25.5 80t22.5 68.5t15 49.5l6 19l-8 14l-225 -92zM371 1057l229 389h287l127 -389h-113l-158 299h-18l-238 -299h-116z" />
<glyph unicode="&#xfc;" horiz-adv-x="1157" d="M59 743q25 41 56.5 80t67.5 70t73 50.5t72 19.5q6 0 30.5 -5.5t53 -11.5t51 -14t22.5 -14q0 -18 -11 -57.5t-28.5 -89.5t-36 -105.5t-32.5 -102.5q-10 -37 -27.5 -89t-33 -103.5t-26.5 -92t-11 -57.5q0 -10 19 -28.5t47 -36t57.5 -30.5t48.5 -13q66 0 155.5 120.5 t196.5 397.5l65 303l183 10l-88 -323l-72 -463l10 -17l215 76l19 -16q-25 -41 -59 -82t-71.5 -73t-75.5 -52.5t-73 -20.5q-6 0 -26.5 8.5t-44 19.5t-41 21.5t-17.5 14.5q0 16 9 59t22.5 100.5t31 119t31.5 112.5h-20q-27 -45 -57.5 -99.5t-64.5 -107.5t-67.5 -100t-64.5 -78 q-41 -41 -92.5 -55.5t-106.5 -14.5q-27 0 -66.5 19.5t-74.5 48.5t-60.5 60.5t-25.5 56.5q0 47 16.5 100t34.5 113q39 119 70 215q12 41 25.5 80t22.5 68.5t15 49.5l6 19l-8 14l-225 -92zM328 1194q0 68 25.5 95.5t103.5 27.5t102.5 -27.5t24.5 -95.5t-26 -99.5t-101 -31.5 q-78 0 -103.5 31.5t-25.5 99.5zM788 1194q0 68 28 95.5t106 27.5q76 0 100.5 -27.5t24.5 -95.5t-25 -99.5t-102 -31.5q-78 0 -105 31.5t-27 99.5z" />
<glyph unicode="&#xfd;" horiz-adv-x="1019" d="M-88 -307q0 37 19.5 57.5t66.5 20.5q41 0 86 -28t80 -112l51 17q4 6 13.5 22.5t23.5 41t30.5 54t34.5 60.5q41 70 93 158l-99 18l-61 776l-8 15l-217 -76l-19 18q25 41 57.5 82t68.5 73t74 52.5t73 20.5q6 0 25.5 -7.5t38.5 -17.5t35.5 -20.5t16.5 -14.5l58 -788h26 l432 854l138 -70l-535 -866l-10 -29q-45 -123 -89 -210t-93.5 -143.5t-107.5 -82t-134 -25.5q-78 0 -123 37t-45 113zM549 1057l258 366h225l-366 -366h-117z" />
<glyph unicode="&#xfe;" horiz-adv-x="1058" d="M-158 -438l27 149h147l4 8l242 1395l-4 8l-174 72v51l397 137l-100 -444l-111 -477h23q66 104 124 196.5t113.5 161t107.5 107.5t101 39q57 0 103.5 -22.5t78 -59.5t49 -86t17.5 -103q0 -170 -67.5 -337t-188.5 -285q-100 -100 -233 -101q-31 0 -67 13.5t-69.5 37 t-61.5 55.5t-42 70h-20l-50 -403l2 -8l150 -62l-18 -112h-480zM279 266q0 -16 27.5 -44.5t68.5 -56.5t88 -48.5t84 -20.5q23 0 50.5 10.5t45.5 28.5q33 33 67.5 99.5t62.5 144.5t45.5 155.5t17.5 135.5q0 31 -17.5 60.5t-43 52t-55.5 35.5t-52 13q-23 0 -69 -48 t-99.5 -119.5t-104.5 -154.5t-84 -155q-14 -29 -23 -51.5t-9 -36.5z" />
<glyph unicode="&#xff;" horiz-adv-x="1019" d="M-88 -307q0 37 19.5 57.5t66.5 20.5q41 0 86 -28t80 -112l51 17q4 6 13.5 22.5t23.5 41t30.5 54t34.5 60.5q41 70 93 158l-99 18l-61 776l-8 15l-217 -76l-19 18q25 41 57.5 82t68.5 73t74 52.5t73 20.5q6 0 25.5 -7.5t38.5 -17.5t35.5 -20.5t16.5 -14.5l58 -788h26 l432 854l138 -70l-535 -866l-10 -29q-45 -123 -89 -210t-93.5 -143.5t-107.5 -82t-134 -25.5q-78 0 -123 37t-45 113zM260 1194q0 68 25.5 95.5t103.5 27.5t102.5 -27.5t24.5 -95.5t-25.5 -99.5t-101.5 -31.5q-78 0 -103.5 31.5t-25.5 99.5zM721 1194q0 68 27.5 95.5 t105.5 27.5q76 0 100.5 -27.5t24.5 -95.5t-24.5 -99.5t-102.5 -31.5t-104.5 31.5t-26.5 99.5z" />
<glyph unicode="&#x152;" horiz-adv-x="1910" d="M84 555q0 166 52 308.5t145 236.5q45 45 99 78.5t123.5 56t157 34t197.5 11.5h1038l-53 -381h-114l-23 160q-4 20 -11 33.5t-35 20.5t-82 12t-151 10l-256 4l-57 -441h115q49 0 77.5 1t45 4.5t24.5 11.5t17 22l75 137h99l-107 -446h-100l-6 135q0 6 -4 10.5t-17.5 6.5 t-42 3t-78.5 1h-114l-58 -437h324q66 0 104.5 1.5t61 7.5t34 17t23.5 32l88 170h121l-92 -375h-1028q-297 0 -444.5 147.5t-147.5 407.5zM258 582q0 -111 25.5 -193t82 -135t148.5 -81t225 -32l138 -4l122 957l-225 47q-127 -2 -223 -44t-161.5 -116t-98.5 -175t-33 -224z " />
<glyph unicode="&#x153;" horiz-adv-x="1630" d="M80 324q0 55 15.5 124.5t44 140t71.5 138.5t97 120t121 84t142 32q111 0 210.5 -54.5t150.5 -144.5q78 92 174 145.5t197 53.5q66 0 118 -15.5t90.5 -42t59 -60.5t20.5 -69q0 -55 -26.5 -93t-100 -82t-205 -105.5t-337.5 -163.5q-2 -12 -3 -27.5t-1 -32.5 q0 -35 25.5 -68.5t60 -61t69.5 -44t53 -16.5q14 0 58.5 26.5t99.5 63.5t112.5 76t96.5 63l20 -20q-43 -70 -96 -129.5t-109.5 -101.5t-113.5 -65.5t-109 -23.5q-33 0 -72.5 11.5t-79.5 34t-74.5 55t-57.5 73.5q-61 -76 -140 -125t-178 -49q-74 0 -146.5 27t-129.5 73 t-92 111.5t-35 141.5zM238 301q0 -51 31.5 -91t78.5 -67.5t100.5 -42t98.5 -14.5q33 0 67.5 33t67.5 85t59.5 116.5t44.5 128.5q16 59 24.5 108.5t8.5 69.5q0 51 -31.5 92t-78.5 70.5t-100.5 45t-98.5 15.5q-33 0 -67.5 -34t-67.5 -86t-59.5 -116.5t-45.5 -128.5 q-16 -61 -24 -112t-8 -72zM924 412h20q135 74 228.5 124t150.5 84.5t83 60.5t26 52q0 20 -19.5 42t-50.5 40.5t-70 30.5t-80 12q-20 0 -40.5 -12t-36.5 -29q-31 -31 -63 -75t-61.5 -97t-52 -112.5t-34.5 -120.5z" />
<glyph unicode="&#x178;" horiz-adv-x="1210" d="M72 1167l14 113h465l-19 -147h-122l-7 -9l218 -503h30l359 497l-6 10l-142 43l15 109h471l-21 -147h-145l-11 -11l-483 -639l-39 -303l2 -8l199 -61l-14 -111h-566l19 147h186l4 9l43 340l-299 620l-8 10zM387 1540q0 68 25.5 95.5t103.5 27.5t102.5 -27.5t24.5 -95.5 t-25.5 -99.5t-101.5 -31.5q-78 0 -103.5 32t-25.5 99zM848 1540q0 68 27.5 95.5t105.5 27.5q76 0 100.5 -27.5t24.5 -95.5t-24.5 -99.5t-102.5 -31.5t-104.5 32t-26.5 99z" />
<glyph unicode="&#x2c6;" horiz-adv-x="819" d="M190 1057l230 389h287l127 -389h-113l-158 299h-18l-238 -299h-117z" />
<glyph unicode="&#x2dc;" horiz-adv-x="819" d="M135 1073q18 68 39 121t46.5 89t59 54.5t82.5 18.5q55 0 99.5 -22.5t81.5 -50.5t70.5 -51.5t66.5 -23.5q12 0 23.5 4.5t23.5 18.5t27.5 43t38.5 76h92q-18 -68 -39 -121t-46.5 -89t-59 -55.5t-83.5 -19.5q-53 0 -97 23.5t-82 51t-71.5 50t-68.5 22.5q-12 0 -23.5 -4 t-23.5 -18t-27.5 -42t-38.5 -75h-90z" />
<glyph unicode="&#x2000;" horiz-adv-x="896" />
<glyph unicode="&#x2001;" horiz-adv-x="1792" />
<glyph unicode="&#x2002;" horiz-adv-x="896" />
<glyph unicode="&#x2003;" horiz-adv-x="1792" />
<glyph unicode="&#x2004;" horiz-adv-x="597" />
<glyph unicode="&#x2005;" horiz-adv-x="448" />
<glyph unicode="&#x2006;" horiz-adv-x="298" />
<glyph unicode="&#x2007;" horiz-adv-x="298" />
<glyph unicode="&#x2008;" horiz-adv-x="224" />
<glyph unicode="&#x2009;" horiz-adv-x="358" />
<glyph unicode="&#x200a;" horiz-adv-x="99" />
<glyph unicode="&#x2010;" horiz-adv-x="647" d="M80 428v137h504v-137h-504z" />
<glyph unicode="&#x2011;" horiz-adv-x="647" d="M80 428v137h504v-137h-504z" />
<glyph unicode="&#x2012;" horiz-adv-x="647" d="M80 428v137h504v-137h-504z" />
<glyph unicode="&#x2013;" horiz-adv-x="962" d="M82 428v137h799v-137h-799z" />
<glyph unicode="&#x2014;" horiz-adv-x="1925" d="M82 428v137h1761v-137h-1761z" />
<glyph unicode="&#x2018;" horiz-adv-x="456" d="M133 948q0 123 105.5 219.5t300.5 192.5l22 -47q-113 -76 -177.5 -138.5t-64.5 -134.5q0 -98 127 -125q-4 -53 -42.5 -87.5t-106.5 -34.5q-74 0 -119 37.5t-45 117.5z" />
<glyph unicode="&#x2019;" horiz-adv-x="456" d="M82 825q113 76 178.5 138.5t63.5 134.5q-2 47 -32 78.5t-95 46.5q4 53 43 88t108 35q74 0 119 -40t43 -118q-2 -123 -106.5 -218.5t-301.5 -193.5z" />
<glyph unicode="&#x201a;" horiz-adv-x="456" d="M-74 -295q113 76 178.5 138.5t63.5 133.5q-2 47 -32 79t-95 46q4 53 43 88t109 35q74 0 118.5 -39.5t42.5 -117.5q-2 -123 -106.5 -218.5t-300.5 -193.5z" />
<glyph unicode="&#x201c;" horiz-adv-x="890" d="M133 948q0 123 105.5 219.5t300.5 192.5l22 -47q-113 -76 -177.5 -138.5t-64.5 -134.5q0 -98 127 -125q-4 -53 -42.5 -87.5t-106.5 -34.5q-74 0 -119 37.5t-45 117.5zM567 948q0 123 105.5 219.5t300.5 192.5l22 -47q-115 -76 -178 -138.5t-63 -134.5q0 -98 127 -125 q-4 -53 -43 -87.5t-107 -34.5q-76 0 -120 37.5t-44 117.5z" />
<glyph unicode="&#x201d;" horiz-adv-x="890" d="M78 825q113 76 177 138.5t64 134.5q-4 98 -126 125q4 53 42.5 88t106.5 35q76 0 121 -39t43 -117q-2 -123 -106.5 -219.5t-301.5 -194.5zM512 825q113 76 177.5 138.5t62.5 134.5q0 98 -125 125q4 53 43 88t106 35q76 0 120 -39t44 -117q-2 -123 -106.5 -219.5 t-301.5 -194.5z" />
<glyph unicode="&#x201e;" horiz-adv-x="890" d="M-72 -295q113 76 177.5 138.5t64.5 133.5q-4 98 -127 125q4 53 43 88t107 35q76 0 120.5 -38.5t42.5 -116.5q-2 -123 -106.5 -219.5t-300.5 -194.5zM362 -295q113 76 177.5 138.5t62.5 133.5q0 98 -125 125q4 53 43 88t107 35q76 0 120 -38.5t44 -116.5 q-2 -123 -106.5 -219.5t-301.5 -194.5z" />
<glyph unicode="&#x2022;" horiz-adv-x="931" d="M72 475q0 23 12 63t30.5 83t39 80.5t34.5 52.5q16 16 53.5 35.5t80.5 37t83.5 29.5t61.5 12q23 0 62.5 -12t82.5 -29.5t81 -37t52 -35.5q16 -14 36 -52t37.5 -81t29.5 -83t12 -63t-12 -62.5t-29.5 -82.5t-37 -81t-36.5 -54q-14 -14 -52 -35t-81 -38.5t-84 -29.5t-63 -12 q-20 0 -61.5 12t-84.5 29.5t-79.5 38t-51.5 35.5q-14 16 -34.5 54t-39 81t-30.5 83t-12 62z" />
<glyph unicode="&#x2026;" horiz-adv-x="1368" d="M86 98q0 70 25.5 98.5t103.5 28.5t101.5 -28.5t23.5 -98.5t-23.5 -100.5t-101.5 -30.5t-103.5 31t-25.5 100zM543 98q0 70 25.5 98.5t103.5 28.5q76 0 100.5 -28.5t24.5 -98.5t-24.5 -100.5t-100.5 -30.5q-78 0 -103.5 31t-25.5 100zM997 98q0 70 27 98.5t102 28.5 q78 0 101.5 -28.5t23.5 -98.5t-23.5 -100.5t-101.5 -30.5q-76 0 -102.5 31t-26.5 100z" />
<glyph unicode="&#x202f;" horiz-adv-x="358" />
<glyph unicode="&#x2039;" horiz-adv-x="708" d="M96 393v166l486 301l12 -112l-373 -256v-31l373 -256l-12 -115z" />
<glyph unicode="&#x203a;" horiz-adv-x="708" d="M115 205l372 256v31l-372 256l12 112l483 -301v-166l-483 -303z" />
<glyph unicode="&#x205f;" horiz-adv-x="448" />
<glyph unicode="&#x20ac;" horiz-adv-x="1081" d="M78 428l8 104h86q2 23 3 44.5t3 44.5q2 47 12 94h-104l-8 104h133q25 102 70 189.5t111.5 150t156.5 97t209 34.5q68 0 134 -6t120.5 -22.5t87.5 -48t33 -85.5q0 -20 -4.5 -45.5t-15.5 -46t-30.5 -35t-50.5 -14.5q-72 0 -112.5 35t-18.5 113q-43 16 -101.5 26t-117.5 10 q-119 -29 -187.5 -123t-105.5 -229h520l-8 -104h-543q-10 -47 -12 -94q-2 -23 -4 -45.5t-2 -43.5h561l8 -104h-561q8 -166 88 -233.5t252 -67.5q92 0 169 25.5t155 62.5l2 -47q-127 -195 -367 -195q-236 0 -352.5 113t-122.5 342h-94z" />
<glyph unicode="&#x2122;" horiz-adv-x="2060" d="M147 1016l27 264h721v-264h-94l-29 123q-6 29 -47 34t-94 5h-47v-527l4 -6l149 -43v-86h-401v115h127l4 8v539h-47q-41 0 -85 -6.5t-52 -32.5l-39 -123h-97zM993 1194v86h353l167 -604h25l195 604h323v-117h-112l-5 -6l11 -506l2 -6l131 -43v-86h-361v115h105l4 8v518 h-27l-219 -616h-135l-199 614h-26l-6 -504l2 -6l131 -43v-86h-344v115h108l4 8l8 506l-2 8z" />
<glyph unicode="&#xe000;" horiz-adv-x="962" d="M0 0v963h963v-963h-963z" />
<glyph unicode="&#xfb01;" horiz-adv-x="1056" d="M-258 -317q0 37 19.5 58t66.5 21q41 0 85 -24.5t79 -99.5l41 16q6 14 19.5 64.5t26.5 113t25.5 124.5t18.5 101l110 674l-172 51v54l201 69q57 268 166 377q20 20 53 39.5t73 34t87 24t96 9.5q94 0 143.5 -46.5t49.5 -117.5q0 -37 -18.5 -56.5t-61.5 -19.5q-20 0 -43 5 t-44.5 19.5t-42 40t-36.5 66.5l-190 -41q-8 -14 -19.5 -54t-23 -90.5t-22.5 -103.5t-19 -98h329q6 4 14.5 15.5t19.5 23.5t25.5 21.5t30.5 9.5q18 0 44 -9.5t50.5 -21.5t41 -24.5t14.5 -18.5l-221 -739l10 -15l219 80l19 -16q-25 -41 -56.5 -81t-66.5 -73t-73 -52.5 t-73 -19.5q-6 0 -29.5 9.5t-50 22.5t-47 26.5t-18.5 19.5l201 697l-15 16h-393l-106 -580q-18 -100 -40 -190t-47.5 -165t-53 -131t-58.5 -87q-35 -37 -80 -52.5t-100 -15.5q-72 0 -115 34t-43 106z" />
<glyph unicode="&#xfb02;" horiz-adv-x="1069" d="M-258 -317q0 37 19.5 58t66.5 21q41 0 85 -24.5t79 -99.5l41 16q6 14 19.5 64.5t26.5 113t25.5 124.5t18.5 101l110 674l-172 51v54l201 69q57 268 166 377q20 20 53 39.5t73 34t87 24t96 9.5q111 0 160 -66l180 59q-82 -344 -149 -614q-29 -115 -55.5 -225.5t-48 -197.5 t-34.5 -141l-14 -54l8 -15l222 80l18 -16q-25 -41 -56.5 -81t-66.5 -73t-72.5 -52.5t-72.5 -19.5q-6 0 -30 9.5t-50.5 22.5t-47 26.5t-18.5 19.5l174 713h-399l-106 -580q-18 -100 -40 -190t-47.5 -165t-53 -131t-58.5 -87q-35 -37 -80 -52.5t-100 -15.5q-72 0 -115 34 t-43 106zM410 893h405l66 262q-47 -4 -94.5 23.5t-75.5 103.5l-217 -43q-8 -14 -19.5 -54t-23 -90.5t-22.5 -103.5t-19 -98z" />
<glyph unicode="&#xfb03;" horiz-adv-x="1599" d="M-258 -317q0 37 19.5 58t66.5 21q41 0 85 -24.5t79 -99.5l41 16q6 14 19.5 64.5t26.5 113t25.5 124.5t18.5 101l110 674l-172 51v54l201 69q57 268 166 377q43 41 106.5 74t161.5 33q94 0 143.5 -46.5t49.5 -117.5q0 -37 -17.5 -56.5t-62.5 -19.5q-20 0 -43 5t-44.5 18.5 t-42 39t-36.5 68.5l-149 -41q-8 -14 -19.5 -54t-23 -90.5t-22.5 -103.5t-19 -98h391q33 143 73 238.5t95 150.5q20 20 53 39.5t73 34t87 24t96 9.5q94 0 143 -46.5t49 -117.5q0 -37 -18 -56.5t-61 -19.5q-20 0 -43 5t-44.5 19.5t-42 40t-36.5 66.5l-191 -41q-8 -14 -19 -54 t-22.5 -90.5t-23 -103.5t-19.5 -98h332q4 4 12.5 15.5t19.5 23.5t25.5 21.5t30.5 9.5q18 0 44 -9.5t50.5 -21.5t41 -24.5t14.5 -18.5l-222 -739l13 -15l217 80l18 -16q-25 -41 -56.5 -81t-66 -73t-71.5 -52.5t-72 -19.5q-6 0 -30.5 9.5t-50 22.5t-46 26.5t-20.5 19.5 l200 697l-12 16h-393l-109 -580q-18 -100 -39.5 -190t-46 -165t-52.5 -131t-58 -87q-37 -37 -81 -52.5t-102 -15.5q-70 0 -113.5 34t-43.5 106q0 37 19.5 58t66.5 21q41 0 85 -24.5t78 -99.5l41 16q8 14 20.5 64.5t27 113t26.5 124.5t19 101l116 707h-397l-106 -580 q-18 -100 -40 -190t-47.5 -165t-53 -131t-58.5 -87q-35 -37 -80 -52.5t-100 -15.5q-72 0 -115 34t-43 106z" />
<glyph unicode="&#xfb04;" horiz-adv-x="1611" d="M-258 -317q0 37 19.5 58t66.5 21q41 0 85 -24.5t79 -99.5l41 16q6 14 19.5 64.5t26.5 113t25.5 124.5t18.5 101l110 674l-172 51v54l201 69q57 268 166 377q43 41 106.5 74t161.5 33q94 0 143.5 -46.5t49.5 -117.5q0 -37 -17.5 -56.5t-62.5 -19.5q-20 0 -43 5t-44.5 18.5 t-42 39t-36.5 68.5l-149 -41q-8 -14 -19.5 -54t-23 -90.5t-22.5 -103.5t-19 -98h391q31 139 72 236.5t96 152.5q20 20 53 39.5t73 34t87 24t96 9.5q111 0 160 -66l180 59q-82 -344 -150 -614q-29 -115 -55.5 -225.5t-48 -197.5t-34.5 -141l-13 -54l8 -15l221 80l19 -16 q-25 -41 -56.5 -81t-66.5 -73t-73 -52.5t-73 -19.5q-6 0 -29.5 9.5t-50 22.5t-47 26.5t-18.5 19.5l174 713h-397l-109 -580q-18 -100 -39.5 -190t-46 -165t-52.5 -131t-58 -87q-37 -37 -81 -52.5t-102 -15.5q-70 0 -113.5 34t-43.5 106q0 37 19.5 58t66.5 21q41 0 85 -24.5 t78 -99.5l41 16q8 14 20.5 64.5t27 113t26.5 124.5t19 101l116 707h-397l-106 -580q-18 -100 -40 -190t-47.5 -165t-53 -131t-58.5 -87q-35 -37 -80 -52.5t-100 -15.5q-72 0 -115 34t-43 106zM950 893h406l65 262q-47 -4 -94 23.5t-76 103.5l-217 -43q-8 -14 -19 -54 t-22.5 -90.5t-23 -103.5t-19.5 -98z" />
</font>
</defs>
</svg>
