<?xml version="1.0" encoding="utf-8"?>
<!-- Generator: Adobe Illustrator 16.0.0, SVG Export Plug-In . SVG Version: 6.00 Build 0)  -->
<!DOCTYPE svg PUBLIC "-//W3C//DTD SVG 1.1//EN" "http://www.w3.org/Graphics/SVG/1.1/DTD/svg11.dtd">
<svg version="1.1" id="Layer_1" xmlns="http://www.w3.org/2000/svg" xmlns:xlink="http://www.w3.org/1999/xlink" x="0px" y="0px"
	 width="1044px" height="291px" viewBox="0 0 1044 291" enable-background="new 0 0 1044 291" xml:space="preserve">
<path fill="#E1EBEF" d="M29.5,107h63c7.452,0,13.5,8.064,13.5,18s-6.048,18-13.5,18h-63c-7.452,0-13.5-8.064-13.5-18
	S22.048,107,29.5,107"/>
<g enable-background="new    ">
	<path fill="#435152" d="M41.124,129.5l-1.835-3.319h-1.457v3.319h-1.989v-9.343h4.371c1.947,0,3.152,1.274,3.152,3.012
		c0,1.639-1.051,2.535-2.059,2.773l2.115,3.558H41.124z M41.32,123.154c0-0.771-0.602-1.246-1.387-1.246h-2.101v2.521h2.101
		C40.718,124.43,41.32,123.953,41.32,123.154z"/>
	<path fill="#435152" d="M43.949,126.11c0-1.961,1.457-3.544,3.502-3.544c2.031,0,3.39,1.513,3.39,3.712v0.42h-5.029
		c0.126,0.827,0.799,1.513,1.947,1.513c0.574,0,1.359-0.237,1.793-0.658l0.798,1.177c-0.672,0.616-1.737,0.938-2.788,0.938
		C45.503,129.668,43.949,128.281,43.949,126.11z M47.451,124.023c-1.106,0-1.583,0.77-1.653,1.442h3.333
		C49.076,124.821,48.627,124.023,47.451,124.023z"/>
	<path fill="#435152" d="M51.676,126.11c0-2.256,1.261-3.544,2.984-3.544c0.826,0,1.569,0.364,2.087,1.022v-0.854h1.793v9.343
		h-1.793v-3.445c-0.546,0.7-1.274,1.036-2.087,1.036C52.937,129.668,51.676,128.365,51.676,126.11z M56.747,127.301v-2.381
		c-0.294-0.448-0.938-0.771-1.527-0.771c-1.008,0-1.709,0.798-1.709,1.961c0,1.177,0.701,1.975,1.709,1.975
		C55.809,128.085,56.453,127.735,56.747,127.301z"/>
	<path fill="#435152" d="M64.853,129.5v-0.854c-0.462,0.504-1.274,1.022-2.381,1.022c-1.485,0-2.186-0.812-2.186-2.129v-4.805h1.779
		v4.104c0,0.938,0.49,1.246,1.247,1.246c0.686,0,1.232-0.378,1.541-0.771v-4.58h1.779v6.766H64.853z"/>
	<path fill="#435152" d="M67.958,126.11c0-1.961,1.457-3.544,3.502-3.544c2.031,0,3.39,1.513,3.39,3.712v0.42h-5.029
		c0.126,0.827,0.799,1.513,1.947,1.513c0.574,0,1.359-0.237,1.793-0.658l0.798,1.177c-0.672,0.616-1.737,0.938-2.788,0.938
		C69.513,129.668,67.958,128.281,67.958,126.11z M71.46,124.023c-1.106,0-1.583,0.77-1.653,1.442h3.333
		C73.085,124.821,72.637,124.023,71.46,124.023z"/>
	<path fill="#435152" d="M75.546,128.617l0.771-1.288c0.504,0.476,1.499,0.938,2.339,0.938c0.771,0,1.135-0.294,1.135-0.715
		c0-1.106-4.006-0.196-4.006-2.857c0-1.135,0.98-2.129,2.773-2.129c1.135,0,2.045,0.392,2.718,0.925l-0.714,1.26
		c-0.406-0.42-1.177-0.784-2.003-0.784c-0.644,0-1.064,0.28-1.064,0.658c0,0.995,4.02,0.154,4.02,2.886
		c0,1.247-1.064,2.157-2.941,2.157C77.395,129.668,76.26,129.275,75.546,128.617z"/>
	<path fill="#435152" d="M83.176,127.805v-3.516h-1.121v-1.555h1.121v-1.849h1.779v1.849h1.373v1.555h-1.373v3.04
		c0,0.434,0.224,0.756,0.616,0.756c0.266,0,0.518-0.098,0.616-0.21l0.378,1.358c-0.266,0.238-0.743,0.435-1.485,0.435
		C83.834,129.668,83.176,129.023,83.176,127.805z"/>
</g>
<g>
	<path fill="#E1EBEF" d="M912.125,104.5h71.75c8.487,0,15.375,9.186,15.375,20.5s-6.888,20.5-15.375,20.5h-71.75
		c-8.487,0-15.375-9.186-15.375-20.5S903.638,104.5,912.125,104.5"/>
	<g enable-background="new    ">
		<path fill="#435152" d="M924.246,129l-1.835-3.319h-1.456V129h-1.99v-9.343h4.371c1.947,0,3.152,1.274,3.152,3.012
			c0,1.639-1.051,2.535-2.06,2.773l2.114,3.558H924.246z M924.442,122.654c0-0.771-0.603-1.246-1.387-1.246h-2.101v2.521h2.101
			C923.84,123.93,924.442,123.453,924.442,122.654z"/>
		<path fill="#435152" d="M927.071,125.61c0-1.961,1.457-3.544,3.502-3.544c2.031,0,3.39,1.513,3.39,3.712v0.42h-5.029
			c0.127,0.827,0.799,1.513,1.947,1.513c0.574,0,1.359-0.237,1.793-0.658l0.799,1.177c-0.672,0.616-1.736,0.938-2.787,0.938
			C928.626,129.168,927.071,127.781,927.071,125.61z M930.573,123.523c-1.106,0-1.583,0.77-1.653,1.442h3.334
			C932.198,124.321,931.75,123.523,930.573,123.523z"/>
		<path fill="#435152" d="M934.658,128.117l0.771-1.288c0.504,0.476,1.498,0.938,2.339,0.938c0.771,0,1.135-0.294,1.135-0.715
			c0-1.106-4.007-0.196-4.007-2.857c0-1.135,0.98-2.129,2.773-2.129c1.135,0,2.046,0.392,2.719,0.925l-0.715,1.26
			c-0.406-0.42-1.177-0.784-2.004-0.784c-0.644,0-1.064,0.28-1.064,0.658c0,0.995,4.021,0.154,4.021,2.886
			c0,1.247-1.064,2.157-2.941,2.157C936.508,129.168,935.373,128.775,934.658,128.117z"/>
		<path fill="#435152" d="M943.704,128.132v3.445h-1.779v-9.343h1.779v0.854c0.519-0.658,1.261-1.022,2.087-1.022
			c1.736,0,2.998,1.288,2.998,3.544c0,2.255-1.262,3.558-2.998,3.558C944.992,129.168,944.264,128.832,943.704,128.132z
			 M946.953,125.61c0-1.163-0.699-1.961-1.723-1.961c-0.574,0-1.219,0.322-1.526,0.771v2.381c0.294,0.435,0.952,0.784,1.526,0.784
			C946.254,127.585,946.953,126.787,946.953,125.61z"/>
		<path fill="#435152" d="M949.652,125.61c0-1.919,1.346-3.544,3.572-3.544c2.241,0,3.586,1.625,3.586,3.544
			s-1.345,3.558-3.586,3.558C950.998,129.168,949.652,127.529,949.652,125.61z M954.962,125.61c0-1.051-0.616-1.961-1.737-1.961
			c-1.106,0-1.723,0.91-1.723,1.961c0,1.064,0.616,1.975,1.723,1.975C954.346,127.585,954.962,126.675,954.962,125.61z"/>
		<path fill="#435152" d="M962.703,129v-4.09c0-0.938-0.49-1.261-1.246-1.261c-0.701,0-1.232,0.392-1.541,0.784V129h-1.779v-6.766
			h1.779v0.868c0.434-0.504,1.274-1.036,2.367-1.036c1.498,0,2.213,0.84,2.213,2.157V129H962.703z"/>
		<path fill="#435152" d="M965.654,128.117l0.771-1.288c0.505,0.476,1.499,0.938,2.339,0.938c0.771,0,1.135-0.294,1.135-0.715
			c0-1.106-4.006-0.196-4.006-2.857c0-1.135,0.98-2.129,2.773-2.129c1.135,0,2.045,0.392,2.718,0.925l-0.714,1.26
			c-0.406-0.42-1.178-0.784-2.004-0.784c-0.645,0-1.064,0.28-1.064,0.658c0,0.995,4.02,0.154,4.02,2.886
			c0,1.247-1.064,2.157-2.941,2.157C967.504,129.168,966.369,128.775,965.654,128.117z"/>
		<path fill="#435152" d="M972.486,125.61c0-1.961,1.457-3.544,3.502-3.544c2.031,0,3.39,1.513,3.39,3.712v0.42h-5.028
			c0.126,0.827,0.799,1.513,1.947,1.513c0.574,0,1.358-0.237,1.793-0.658l0.798,1.177c-0.673,0.616-1.737,0.938-2.788,0.938
			C974.041,129.168,972.486,127.781,972.486,125.61z M975.988,123.523c-1.106,0-1.583,0.77-1.652,1.442h3.333
			C977.613,124.321,977.165,123.523,975.988,123.523z"/>
	</g>
</g>
<path fill="#E1EBEF" d="M349,107h81v36h-81V107z"/>
<g enable-background="new    ">
	<path fill="#435152" d="M358.246,124.836c0-2.886,2.171-4.833,4.987-4.833c2.045,0,3.236,1.106,3.894,2.283l-1.709,0.841
		c-0.392-0.757-1.232-1.359-2.185-1.359c-1.709,0-2.941,1.303-2.941,3.068c0,1.765,1.232,3.067,2.941,3.067
		c0.953,0,1.793-0.603,2.185-1.359l1.709,0.827c-0.658,1.162-1.849,2.297-3.894,2.297
		C360.417,129.668,358.246,127.707,358.246,124.836z"/>
	<path fill="#435152" d="M367.836,126.11c0-1.919,1.345-3.544,3.572-3.544c2.241,0,3.586,1.625,3.586,3.544
		s-1.345,3.558-3.586,3.558C369.181,129.668,367.836,128.029,367.836,126.11z M373.145,126.11c0-1.051-0.617-1.961-1.737-1.961
		c-1.106,0-1.723,0.91-1.723,1.961c0,1.064,0.616,1.975,1.723,1.975C372.528,128.085,373.145,127.175,373.145,126.11z"/>
	<path fill="#435152" d="M380.886,129.5v-4.09c0-0.938-0.49-1.261-1.247-1.261c-0.7,0-1.232,0.392-1.541,0.784v4.566h-1.779v-6.766
		h1.779v0.868c0.434-0.504,1.274-1.036,2.367-1.036c1.499,0,2.213,0.84,2.213,2.157v4.776H380.886z"/>
	<path fill="#435152" d="M384.79,127.805v-3.516h-1.121v-1.555h1.121v-1.849h1.779v1.849h1.373v1.555h-1.373v3.04
		c0,0.434,0.224,0.756,0.616,0.756c0.266,0,0.518-0.098,0.616-0.21l0.378,1.358c-0.266,0.238-0.743,0.435-1.485,0.435
		C385.448,129.668,384.79,129.023,384.79,127.805z"/>
	<path fill="#435152" d="M389.158,129.5v-6.766h1.779v0.91c0.49-0.588,1.316-1.078,2.157-1.078v1.736
		c-0.126-0.027-0.28-0.042-0.49-0.042c-0.588,0-1.373,0.337-1.667,0.771v4.469H389.158z"/>
	<path fill="#435152" d="M393.763,126.11c0-1.919,1.345-3.544,3.572-3.544c2.241,0,3.586,1.625,3.586,3.544
		s-1.345,3.558-3.586,3.558C395.108,129.668,393.763,128.029,393.763,126.11z M399.072,126.11c0-1.051-0.617-1.961-1.737-1.961
		c-1.106,0-1.723,0.91-1.723,1.961c0,1.064,0.616,1.975,1.723,1.975C398.456,128.085,399.072,127.175,399.072,126.11z"/>
	<path fill="#435152" d="M402.248,129.5v-9.343h1.779v9.343H402.248z"/>
	<path fill="#435152" d="M405.789,129.5v-9.343h1.779v9.343H405.789z"/>
	<path fill="#435152" d="M408.897,126.11c0-1.961,1.457-3.544,3.502-3.544c2.031,0,3.39,1.513,3.39,3.712v0.42h-5.029
		c0.126,0.827,0.799,1.513,1.947,1.513c0.574,0,1.359-0.237,1.793-0.658l0.798,1.177c-0.672,0.616-1.737,0.938-2.788,0.938
		C410.452,129.668,408.897,128.281,408.897,126.11z M412.399,124.023c-1.106,0-1.583,0.77-1.653,1.442h3.333
		C414.024,124.821,413.576,124.023,412.399,124.023z"/>
	<path fill="#435152" d="M417.073,129.5v-6.766h1.779v0.91c0.49-0.588,1.316-1.078,2.157-1.078v1.736
		c-0.126-0.027-0.28-0.042-0.491-0.042c-0.588,0-1.373,0.337-1.667,0.771v4.469H417.073z"/>
</g>
<path fill="#E1EBEF" d="M124,107h90l-18,36h-54L124,107z"/>
<g enable-background="new    ">
	<path fill="#435152" d="M145.782,121.789v-6.766h1.779v0.91c0.49-0.588,1.316-1.078,2.157-1.078v1.736
		c-0.126-0.027-0.28-0.042-0.49-0.042c-0.588,0-1.373,0.337-1.667,0.771v4.469H145.782z"/>
	<path fill="#435152" d="M150.388,118.399c0-1.961,1.457-3.544,3.502-3.544c2.031,0,3.39,1.513,3.39,3.712v0.42h-5.029
		c0.126,0.827,0.799,1.513,1.947,1.513c0.574,0,1.359-0.237,1.793-0.658l0.798,1.177c-0.672,0.616-1.737,0.938-2.788,0.938
		C151.942,121.957,150.388,120.57,150.388,118.399z M153.89,116.312c-1.106,0-1.583,0.77-1.653,1.442h3.333
		C155.515,117.11,155.066,116.312,153.89,116.312z"/>
	<path fill="#435152" d="M158.115,118.399c0-2.256,1.261-3.544,2.984-3.544c0.826,0,1.569,0.364,2.087,1.022v-0.854h1.793v9.343
		h-1.793v-3.445c-0.546,0.7-1.274,1.036-2.087,1.036C159.376,121.957,158.115,120.654,158.115,118.399z M163.186,119.59v-2.381
		c-0.294-0.448-0.938-0.771-1.527-0.771c-1.008,0-1.709,0.798-1.709,1.961c0,1.177,0.701,1.975,1.709,1.975
		C162.248,120.374,162.892,120.024,163.186,119.59z"/>
	<path fill="#435152" d="M171.292,121.789v-0.854c-0.462,0.504-1.274,1.022-2.381,1.022c-1.485,0-2.186-0.812-2.186-2.129v-4.805
		h1.779v4.104c0,0.938,0.49,1.246,1.247,1.246c0.687,0,1.232-0.378,1.541-0.771v-4.58h1.779v6.766H171.292z"/>
	<path fill="#435152" d="M174.397,118.399c0-1.961,1.457-3.544,3.502-3.544c2.031,0,3.39,1.513,3.39,3.712v0.42h-5.029
		c0.126,0.827,0.799,1.513,1.947,1.513c0.574,0,1.359-0.237,1.793-0.658l0.798,1.177c-0.672,0.616-1.737,0.938-2.788,0.938
		C175.952,121.957,174.397,120.57,174.397,118.399z M177.899,116.312c-1.106,0-1.583,0.77-1.653,1.442h3.333
		C179.524,117.11,179.076,116.312,177.899,116.312z"/>
	<path fill="#435152" d="M181.985,120.906l0.771-1.288c0.504,0.476,1.499,0.938,2.339,0.938c0.771,0,1.135-0.294,1.135-0.715
		c0-1.106-4.006-0.196-4.006-2.857c0-1.135,0.98-2.129,2.773-2.129c1.135,0,2.045,0.392,2.718,0.925L187,117.04
		c-0.406-0.42-1.177-0.784-2.003-0.784c-0.644,0-1.064,0.28-1.064,0.658c0,0.995,4.02,0.154,4.02,2.886
		c0,1.247-1.064,2.157-2.941,2.157C183.834,121.957,182.699,121.564,181.985,120.906z"/>
	<path fill="#435152" d="M189.615,120.094v-3.516h-1.121v-1.555h1.121v-1.849h1.779v1.849h1.373v1.555h-1.373v3.04
		c0,0.434,0.224,0.756,0.616,0.756c0.266,0,0.518-0.098,0.616-0.21l0.378,1.358c-0.266,0.238-0.743,0.435-1.485,0.435
		C190.273,121.957,189.615,121.312,189.615,120.094z"/>
</g>
<g enable-background="new    ">
	<path fill="#435152" d="M151.697,132.399c0-1.961,1.457-3.544,3.502-3.544c2.031,0,3.39,1.513,3.39,3.712v0.42h-5.029
		c0.126,0.827,0.799,1.513,1.947,1.513c0.574,0,1.359-0.237,1.793-0.658l0.798,1.177c-0.672,0.616-1.737,0.938-2.788,0.938
		C153.251,135.957,151.697,134.57,151.697,132.399z M155.199,130.312c-1.106,0-1.583,0.77-1.653,1.442h3.333
		C156.824,131.11,156.375,130.312,155.199,130.312z"/>
	<path fill="#435152" d="M161.624,135.789l-2.717-6.766h1.905l1.765,4.706l1.779-4.706h1.905l-2.718,6.766H161.624z"/>
	<path fill="#435152" d="M166.621,132.399c0-1.961,1.457-3.544,3.502-3.544c2.031,0,3.39,1.513,3.39,3.712v0.42h-5.029
		c0.126,0.827,0.799,1.513,1.947,1.513c0.574,0,1.359-0.237,1.793-0.658l0.798,1.177c-0.672,0.616-1.737,0.938-2.788,0.938
		C168.175,135.957,166.621,134.57,166.621,132.399z M170.123,130.312c-1.106,0-1.583,0.77-1.653,1.442h3.333
		C171.748,131.11,171.299,130.312,170.123,130.312z"/>
	<path fill="#435152" d="M179.363,135.789v-4.09c0-0.938-0.49-1.261-1.247-1.261c-0.7,0-1.232,0.392-1.541,0.784v4.566h-1.779
		v-6.766h1.779v0.868c0.434-0.504,1.274-1.036,2.367-1.036c1.499,0,2.213,0.84,2.213,2.157v4.776H179.363z"/>
	<path fill="#435152" d="M183.267,134.094v-3.516h-1.121v-1.555h1.121v-1.849h1.779v1.849h1.373v1.555h-1.373v3.04
		c0,0.434,0.225,0.756,0.617,0.756c0.266,0,0.518-0.098,0.616-0.21l0.378,1.358c-0.267,0.238-0.743,0.435-1.485,0.435
		C183.925,135.957,183.267,135.312,183.267,134.094z"/>
</g>
<path fill="#E1EBEF" d="M232,107h90l-18,36h-54L232,107z"/>
<g enable-background="new    ">
	<path fill="#435152" d="M247.034,118.399c0-2.073,1.513-3.544,3.586-3.544c1.387,0,2.227,0.603,2.675,1.219l-1.163,1.093
		c-0.322-0.477-0.812-0.729-1.429-0.729c-1.079,0-1.835,0.784-1.835,1.961s0.756,1.975,1.835,1.975c0.616,0,1.106-0.28,1.429-0.742
		l1.163,1.093c-0.448,0.616-1.289,1.232-2.675,1.232C248.546,121.957,247.034,120.486,247.034,118.399z"/>
	<path fill="#435152" d="M254.02,118.399c0-1.919,1.345-3.544,3.572-3.544c2.241,0,3.586,1.625,3.586,3.544
		s-1.345,3.558-3.586,3.558C255.364,121.957,254.02,120.318,254.02,118.399z M259.329,118.399c0-1.051-0.617-1.961-1.737-1.961
		c-1.106,0-1.723,0.91-1.723,1.961c0,1.064,0.616,1.975,1.723,1.975C258.712,120.374,259.329,119.464,259.329,118.399z"/>
	<path fill="#435152" d="M267.07,121.789v-4.09c0-0.938-0.49-1.261-1.247-1.261c-0.7,0-1.232,0.392-1.541,0.784v4.566h-1.779v-6.766
		h1.779v0.868c0.434-0.504,1.274-1.036,2.367-1.036c1.499,0,2.213,0.84,2.213,2.157v4.776H267.07z"/>
	<path fill="#435152" d="M270.974,120.094v-3.516h-1.121v-1.555h1.121v-1.849h1.779v1.849h1.373v1.555h-1.373v3.04
		c0,0.434,0.225,0.756,0.617,0.756c0.266,0,0.518-0.098,0.616-0.21l0.378,1.358c-0.267,0.238-0.743,0.435-1.485,0.435
		C271.632,121.957,270.974,121.312,270.974,120.094z"/>
	<path fill="#435152" d="M275.341,121.789v-6.766h1.779v0.91c0.49-0.588,1.316-1.078,2.157-1.078v1.736
		c-0.126-0.027-0.28-0.042-0.491-0.042c-0.588,0-1.373,0.337-1.667,0.771v4.469H275.341z"/>
	<path fill="#435152" d="M279.947,118.399c0-1.919,1.345-3.544,3.572-3.544c2.241,0,3.586,1.625,3.586,3.544
		s-1.345,3.558-3.586,3.558C281.292,121.957,279.947,120.318,279.947,118.399z M285.256,118.399c0-1.051-0.617-1.961-1.737-1.961
		c-1.106,0-1.723,0.91-1.723,1.961c0,1.064,0.616,1.975,1.723,1.975C284.64,120.374,285.256,119.464,285.256,118.399z"/>
	<path fill="#435152" d="M288.431,121.789v-9.343h1.779v9.343H288.431z"/>
	<path fill="#435152" d="M291.973,121.789v-9.343h1.779v9.343H291.973z"/>
	<path fill="#435152" d="M295.081,118.399c0-1.961,1.457-3.544,3.502-3.544c2.031,0,3.39,1.513,3.39,3.712v0.42h-5.029
		c0.126,0.827,0.799,1.513,1.947,1.513c0.574,0,1.359-0.237,1.793-0.658l0.798,1.177c-0.672,0.616-1.737,0.938-2.788,0.938
		C296.636,121.957,295.081,120.57,295.081,118.399z M298.583,116.312c-1.106,0-1.583,0.77-1.653,1.442h3.333
		C300.208,117.11,299.76,116.312,298.583,116.312z"/>
	<path fill="#435152" d="M303.257,121.789v-6.766h1.779v0.91c0.49-0.588,1.316-1.078,2.157-1.078v1.736
		c-0.126-0.027-0.28-0.042-0.49-0.042c-0.588,0-1.373,0.337-1.667,0.771v4.469H303.257z"/>
</g>
<g enable-background="new    ">
	<path fill="#435152" d="M259.697,132.399c0-1.961,1.457-3.544,3.502-3.544c2.031,0,3.39,1.513,3.39,3.712v0.42h-5.029
		c0.126,0.827,0.799,1.513,1.947,1.513c0.574,0,1.359-0.237,1.793-0.658l0.798,1.177c-0.672,0.616-1.737,0.938-2.788,0.938
		C261.251,135.957,259.697,134.57,259.697,132.399z M263.199,130.312c-1.106,0-1.583,0.77-1.653,1.442h3.333
		C264.824,131.11,264.375,130.312,263.199,130.312z"/>
	<path fill="#435152" d="M269.624,135.789l-2.717-6.766h1.905l1.765,4.706l1.779-4.706h1.905l-2.718,6.766H269.624z"/>
	<path fill="#435152" d="M274.621,132.399c0-1.961,1.457-3.544,3.502-3.544c2.031,0,3.39,1.513,3.39,3.712v0.42h-5.029
		c0.126,0.827,0.799,1.513,1.947,1.513c0.574,0,1.359-0.237,1.793-0.658l0.798,1.177c-0.672,0.616-1.737,0.938-2.788,0.938
		C276.175,135.957,274.621,134.57,274.621,132.399z M278.123,130.312c-1.106,0-1.583,0.77-1.653,1.442h3.333
		C279.748,131.11,279.299,130.312,278.123,130.312z"/>
	<path fill="#435152" d="M287.363,135.789v-4.09c0-0.938-0.49-1.261-1.247-1.261c-0.7,0-1.232,0.392-1.541,0.784v4.566h-1.779
		v-6.766h1.779v0.868c0.434-0.504,1.274-1.036,2.367-1.036c1.499,0,2.213,0.84,2.213,2.157v4.776H287.363z"/>
	<path fill="#435152" d="M291.267,134.094v-3.516h-1.121v-1.555h1.121v-1.849h1.779v1.849h1.373v1.555h-1.373v3.04
		c0,0.434,0.225,0.756,0.617,0.756c0.266,0,0.518-0.098,0.616-0.21l0.378,1.358c-0.267,0.238-0.743,0.435-1.485,0.435
		C291.925,135.957,291.267,135.312,291.267,134.094z"/>
</g>
<g>
	<path fill="#E1EBEF" d="M653.25,104h107.5l-21.5,43h-64.5L653.25,104z"/>
	<g enable-background="new    ">
		<path fill="#435152" d="M695.51,120.773l-2.717-6.766h1.904l1.766,4.706l1.779-4.706h1.904l-2.717,6.766H695.51z"/>
		<path fill="#435152" d="M700.773,112.215c0-0.588,0.476-1.051,1.051-1.051c0.588,0,1.064,0.463,1.064,1.051
			s-0.477,1.064-1.064,1.064C701.249,113.279,700.773,112.803,700.773,112.215z M700.941,120.773v-6.766h1.779v6.766H700.941z"/>
		<path fill="#435152" d="M704.049,117.384c0-1.961,1.457-3.544,3.502-3.544c2.031,0,3.39,1.513,3.39,3.712v0.42h-5.028
			c0.126,0.827,0.799,1.513,1.947,1.513c0.574,0,1.358-0.237,1.793-0.658l0.798,1.177c-0.673,0.616-1.737,0.938-2.788,0.938
			C705.604,120.941,704.049,119.555,704.049,117.384z M707.551,115.297c-1.106,0-1.583,0.77-1.652,1.442h3.333
			C709.176,116.095,708.728,115.297,707.551,115.297z"/>
		<path fill="#435152" d="M718.164,120.773l-1.428-4.608l-1.43,4.608h-1.904l-2.06-6.766h1.849l1.262,4.553l1.484-4.553h1.582
			l1.485,4.553l1.261-4.553h1.863l-2.06,6.766H718.164z"/>
	</g>
	<g enable-background="new    ">
		<path fill="#435152" d="M690.196,131.384c0-1.961,1.457-3.544,3.502-3.544c2.031,0,3.39,1.513,3.39,3.712v0.42h-5.029
			c0.127,0.827,0.799,1.513,1.947,1.513c0.574,0,1.359-0.237,1.793-0.658l0.799,1.177c-0.672,0.616-1.736,0.938-2.787,0.938
			C691.751,134.941,690.196,133.555,690.196,131.384z M693.698,129.297c-1.106,0-1.583,0.77-1.653,1.442h3.334
			C695.323,130.095,694.875,129.297,693.698,129.297z"/>
		<path fill="#435152" d="M700.123,134.773l-2.717-6.766h1.904l1.766,4.706l1.778-4.706h1.905l-2.718,6.766H700.123z"/>
		<path fill="#435152" d="M705.12,131.384c0-1.961,1.457-3.544,3.502-3.544c2.031,0,3.39,1.513,3.39,3.712v0.42h-5.029
			c0.127,0.827,0.799,1.513,1.947,1.513c0.574,0,1.359-0.237,1.793-0.658l0.799,1.177c-0.672,0.616-1.736,0.938-2.787,0.938
			C706.675,134.941,705.12,133.555,705.12,131.384z M708.622,129.297c-1.106,0-1.583,0.77-1.653,1.442h3.334
			C710.247,130.095,709.799,129.297,708.622,129.297z"/>
		<path fill="#435152" d="M717.862,134.773v-4.09c0-0.938-0.49-1.261-1.247-1.261c-0.699,0-1.232,0.392-1.54,0.784v4.566h-1.779
			v-6.766h1.779v0.868c0.435-0.504,1.274-1.036,2.367-1.036c1.499,0,2.213,0.84,2.213,2.157v4.776H717.862z"/>
		<path fill="#435152" d="M721.766,133.078v-3.516h-1.12v-1.555h1.12v-1.849h1.779v1.849h1.373v1.555h-1.373v3.04
			c0,0.434,0.225,0.756,0.617,0.756c0.266,0,0.518-0.098,0.615-0.21l0.379,1.358c-0.267,0.238-0.742,0.435-1.484,0.435
			C722.425,134.941,721.766,134.297,721.766,133.078z"/>
	</g>
</g>
<g>
	<path fill="#E1EBEF" d="M773.5,104h105l-21,42h-63L773.5,104z"/>
	<g enable-background="new    ">
		<path fill="#435152" d="M797.133,120.65v-6.766h1.779v0.91c0.49-0.588,1.316-1.078,2.157-1.078v1.736
			c-0.126-0.027-0.28-0.042-0.49-0.042c-0.588,0-1.372,0.337-1.667,0.771v4.469H797.133z"/>
		<path fill="#435152" d="M801.739,117.261c0-1.961,1.457-3.544,3.502-3.544c2.031,0,3.39,1.513,3.39,3.712v0.42h-5.029
			c0.127,0.827,0.799,1.513,1.947,1.513c0.574,0,1.359-0.237,1.793-0.658l0.799,1.177c-0.672,0.616-1.736,0.938-2.787,0.938
			C803.294,120.818,801.739,119.432,801.739,117.261z M805.241,115.174c-1.106,0-1.583,0.77-1.653,1.442h3.334
			C806.866,115.972,806.418,115.174,805.241,115.174z"/>
		<path fill="#435152" d="M809.326,119.768l0.771-1.288c0.504,0.476,1.498,0.938,2.339,0.938c0.771,0,1.135-0.294,1.135-0.715
			c0-1.106-4.007-0.196-4.007-2.857c0-1.135,0.98-2.129,2.773-2.129c1.135,0,2.046,0.392,2.719,0.925l-0.715,1.26
			c-0.406-0.42-1.177-0.784-2.004-0.784c-0.644,0-1.064,0.28-1.064,0.658c0,0.995,4.021,0.154,4.021,2.886
			c0,1.247-1.064,2.157-2.941,2.157C811.176,120.818,810.041,120.426,809.326,119.768z"/>
		<path fill="#435152" d="M818.372,119.782v3.445h-1.779v-9.343h1.779v0.854c0.519-0.658,1.261-1.022,2.087-1.022
			c1.736,0,2.998,1.288,2.998,3.544c0,2.255-1.262,3.558-2.998,3.558C819.66,120.818,818.932,120.482,818.372,119.782z
			 M821.621,117.261c0-1.163-0.699-1.961-1.723-1.961c-0.574,0-1.219,0.322-1.526,0.771v2.381c0.294,0.435,0.952,0.784,1.526,0.784
			C820.922,119.235,821.621,118.438,821.621,117.261z"/>
		<path fill="#435152" d="M824.32,117.261c0-1.919,1.346-3.544,3.572-3.544c2.241,0,3.586,1.625,3.586,3.544
			s-1.345,3.558-3.586,3.558C825.666,120.818,824.32,119.18,824.32,117.261z M829.63,117.261c0-1.051-0.616-1.961-1.737-1.961
			c-1.106,0-1.723,0.91-1.723,1.961c0,1.064,0.616,1.975,1.723,1.975C829.014,119.235,829.63,118.325,829.63,117.261z"/>
		<path fill="#435152" d="M837.371,120.65v-4.09c0-0.938-0.49-1.261-1.246-1.261c-0.701,0-1.232,0.392-1.541,0.784v4.566h-1.779
			v-6.766h1.779v0.868c0.434-0.504,1.274-1.036,2.367-1.036c1.498,0,2.213,0.84,2.213,2.157v4.776H837.371z"/>
		<path fill="#435152" d="M840.322,119.768l0.771-1.288c0.505,0.476,1.499,0.938,2.339,0.938c0.771,0,1.135-0.294,1.135-0.715
			c0-1.106-4.006-0.196-4.006-2.857c0-1.135,0.98-2.129,2.773-2.129c1.135,0,2.045,0.392,2.718,0.925l-0.714,1.26
			c-0.406-0.42-1.178-0.784-2.004-0.784c-0.645,0-1.064,0.28-1.064,0.658c0,0.995,4.02,0.154,4.02,2.886
			c0,1.247-1.064,2.157-2.941,2.157C842.172,120.818,841.037,120.426,840.322,119.768z"/>
		<path fill="#435152" d="M847.154,117.261c0-1.961,1.457-3.544,3.502-3.544c2.031,0,3.39,1.513,3.39,3.712v0.42h-5.028
			c0.126,0.827,0.799,1.513,1.947,1.513c0.574,0,1.358-0.237,1.793-0.658l0.798,1.177c-0.673,0.616-1.737,0.938-2.788,0.938
			C848.709,120.818,847.154,119.432,847.154,117.261z M850.656,115.174c-1.106,0-1.583,0.77-1.652,1.442h3.333
			C852.281,115.972,851.833,115.174,850.656,115.174z"/>
	</g>
	<g enable-background="new    ">
		<path fill="#435152" d="M808.046,131.261c0-1.961,1.457-3.544,3.502-3.544c2.031,0,3.39,1.513,3.39,3.712v0.42h-5.029
			c0.127,0.827,0.799,1.513,1.947,1.513c0.574,0,1.359-0.237,1.793-0.658l0.799,1.177c-0.672,0.616-1.736,0.938-2.787,0.938
			C809.601,134.818,808.046,133.432,808.046,131.261z M811.548,129.174c-1.106,0-1.583,0.77-1.653,1.442h3.334
			C813.173,129.972,812.725,129.174,811.548,129.174z"/>
		<path fill="#435152" d="M817.973,134.65l-2.717-6.766h1.904l1.766,4.706l1.778-4.706h1.905l-2.718,6.766H817.973z"/>
		<path fill="#435152" d="M822.97,131.261c0-1.961,1.457-3.544,3.502-3.544c2.031,0,3.39,1.513,3.39,3.712v0.42h-5.029
			c0.127,0.827,0.799,1.513,1.947,1.513c0.574,0,1.359-0.237,1.793-0.658l0.799,1.177c-0.672,0.616-1.736,0.938-2.787,0.938
			C824.524,134.818,822.97,133.432,822.97,131.261z M826.472,129.174c-1.106,0-1.583,0.77-1.653,1.442h3.334
			C828.097,129.972,827.648,129.174,826.472,129.174z"/>
		<path fill="#435152" d="M835.712,134.65v-4.09c0-0.938-0.49-1.261-1.247-1.261c-0.699,0-1.232,0.392-1.54,0.784v4.566h-1.779
			v-6.766h1.779v0.868c0.435-0.504,1.274-1.036,2.367-1.036c1.499,0,2.213,0.84,2.213,2.157v4.776H835.712z"/>
		<path fill="#435152" d="M839.615,132.955v-3.516h-1.12v-1.555h1.12v-1.849h1.779v1.849h1.373v1.555h-1.373v3.04
			c0,0.434,0.225,0.756,0.617,0.756c0.266,0,0.518-0.098,0.615-0.21l0.379,1.358c-0.267,0.238-0.742,0.435-1.484,0.435
			C840.274,134.818,839.615,134.174,839.615,132.955z"/>
	</g>
</g>
<path fill="#E1EBEF" d="M894.25,178.5h107.5l-21.5,43h-64.5L894.25,178.5z"/>
<g enable-background="new    ">
	<path fill="#435152" d="M919.082,195v-3.516h-1.12v-1.555h1.12v-1.849h1.779v1.849h1.373v1.555h-1.373v3.04
		c0,0.434,0.225,0.756,0.617,0.756c0.266,0,0.518-0.098,0.615-0.21l0.379,1.358c-0.267,0.238-0.742,0.435-1.484,0.435
		C919.741,196.863,919.082,196.219,919.082,195z"/>
	<path fill="#435152" d="M923.016,193.306c0-1.961,1.457-3.544,3.502-3.544c2.031,0,3.391,1.513,3.391,3.712v0.42h-5.029
		c0.127,0.827,0.799,1.513,1.947,1.513c0.574,0,1.359-0.237,1.793-0.658l0.799,1.177c-0.673,0.616-1.737,0.938-2.788,0.938
		C924.57,196.863,923.016,195.477,923.016,193.306z M926.518,191.219c-1.105,0-1.582,0.77-1.652,1.442h3.334
		C928.143,192.017,927.695,191.219,926.518,191.219z"/>
	<path fill="#435152" d="M931.191,196.695v-6.766h1.779v0.91c0.49-0.588,1.316-1.078,2.157-1.078v1.736
		c-0.126-0.027-0.28-0.042-0.49-0.042c-0.588,0-1.372,0.337-1.667,0.771v4.469H931.191z"/>
	<path fill="#435152" d="M944.623,196.695v-4.272c0-0.63-0.281-1.078-1.009-1.078c-0.63,0-1.149,0.42-1.401,0.784v4.566h-1.793
		v-4.272c0-0.63-0.279-1.078-1.008-1.078c-0.617,0-1.135,0.42-1.4,0.784v4.566h-1.779v-6.766h1.779v0.868
		c0.293-0.392,1.176-1.036,2.213-1.036c0.994,0,1.639,0.462,1.877,1.219c0.393-0.603,1.289-1.219,2.325-1.219
		c1.247,0,1.989,0.658,1.989,2.045v4.889H944.623z"/>
	<path fill="#435152" d="M948.006,188.137c0-0.588,0.477-1.051,1.051-1.051c0.588,0,1.064,0.463,1.064,1.051
		s-0.477,1.064-1.064,1.064C948.482,189.201,948.006,188.725,948.006,188.137z M948.174,196.695v-6.766h1.779v6.766H948.174z"/>
	<path fill="#435152" d="M956.282,196.695v-4.09c0-0.938-0.49-1.261-1.247-1.261c-0.699,0-1.232,0.392-1.54,0.784v4.566h-1.779
		v-6.766h1.779v0.868c0.435-0.504,1.274-1.036,2.367-1.036c1.499,0,2.213,0.84,2.213,2.157v4.776H956.282z"/>
	<path fill="#435152" d="M963.885,196.695v-0.715c-0.463,0.561-1.262,0.883-2.144,0.883c-1.079,0-2.339-0.729-2.339-2.241
		c0-1.597,1.26-2.185,2.339-2.185c0.91,0,1.694,0.294,2.144,0.826v-0.854c0-0.687-0.589-1.135-1.485-1.135
		c-0.714,0-1.387,0.28-1.947,0.799l-0.7-1.247c0.826-0.742,1.891-1.064,2.955-1.064c1.555,0,2.971,0.616,2.971,2.563v4.37H963.885z
		 M963.885,195.07v-0.84c-0.295-0.393-0.855-0.603-1.43-0.603c-0.7,0-1.274,0.378-1.274,1.022s0.574,1.009,1.274,1.009
		C963.029,195.659,963.59,195.463,963.885,195.07z"/>
	<path fill="#435152" d="M967.788,195v-3.516h-1.12v-1.555h1.12v-1.849h1.779v1.849h1.372v1.555h-1.372v3.04
		c0,0.434,0.224,0.756,0.616,0.756c0.266,0,0.518-0.098,0.616-0.21l0.378,1.358c-0.266,0.238-0.742,0.435-1.484,0.435
		C968.446,196.863,967.788,196.219,967.788,195z"/>
	<path fill="#435152" d="M971.722,193.306c0-1.961,1.457-3.544,3.502-3.544c2.031,0,3.39,1.513,3.39,3.712v0.42h-5.029
		c0.127,0.827,0.799,1.513,1.947,1.513c0.574,0,1.359-0.237,1.793-0.658l0.799,1.177c-0.672,0.616-1.736,0.938-2.787,0.938
		C973.276,196.863,971.722,195.477,971.722,193.306z M975.224,191.219c-1.106,0-1.583,0.77-1.653,1.442h3.334
		C976.849,192.017,976.4,191.219,975.224,191.219z"/>
</g>
<g enable-background="new    ">
	<path fill="#435152" d="M931.122,207.306c0-1.961,1.457-3.544,3.502-3.544c2.031,0,3.39,1.513,3.39,3.712v0.42h-5.029
		c0.127,0.827,0.799,1.513,1.947,1.513c0.574,0,1.359-0.237,1.793-0.658l0.799,1.177c-0.672,0.616-1.736,0.938-2.787,0.938
		C932.677,210.863,931.122,209.477,931.122,207.306z M934.624,205.219c-1.106,0-1.583,0.77-1.653,1.442h3.334
		C936.249,206.017,935.801,205.219,934.624,205.219z"/>
	<path fill="#435152" d="M941.049,210.695l-2.717-6.766h1.904l1.766,4.706l1.778-4.706h1.905l-2.718,6.766H941.049z"/>
	<path fill="#435152" d="M946.046,207.306c0-1.961,1.457-3.544,3.502-3.544c2.031,0,3.39,1.513,3.39,3.712v0.42h-5.029
		c0.127,0.827,0.799,1.513,1.947,1.513c0.574,0,1.359-0.237,1.793-0.658l0.799,1.177c-0.672,0.616-1.736,0.938-2.787,0.938
		C947.601,210.863,946.046,209.477,946.046,207.306z M949.548,205.219c-1.106,0-1.583,0.77-1.653,1.442h3.334
		C951.173,206.017,950.725,205.219,949.548,205.219z"/>
	<path fill="#435152" d="M958.788,210.695v-4.09c0-0.938-0.49-1.261-1.247-1.261c-0.699,0-1.232,0.392-1.54,0.784v4.566h-1.779
		v-6.766h1.779v0.868c0.435-0.504,1.274-1.036,2.367-1.036c1.499,0,2.213,0.84,2.213,2.157v4.776H958.788z"/>
	<path fill="#435152" d="M962.691,209v-3.516h-1.12v-1.555h1.12v-1.849h1.779v1.849h1.373v1.555h-1.373v3.04
		c0,0.434,0.225,0.756,0.617,0.756c0.266,0,0.518-0.098,0.615-0.21l0.379,1.358c-0.267,0.238-0.742,0.435-1.484,0.435
		C963.351,210.863,962.691,210.219,962.691,209z"/>
</g>
<path fill="#E1EBEF" d="M522.55,88.481L589.5,125l-66.95,36.518L455.6,125L522.55,88.481z"/>
<g enable-background="new    ">
	<path fill="#435152" d="M482.083,119.941c0-0.588,0.476-1.051,1.051-1.051c0.588,0,1.064,0.463,1.064,1.051
		s-0.476,1.064-1.064,1.064C482.56,121.006,482.083,120.529,482.083,119.941z M482.251,128.5v-6.766h1.779v6.766H482.251z"/>
	<path fill="#435152" d="M485.205,127.617l0.771-1.288c0.504,0.476,1.499,0.938,2.339,0.938c0.771,0,1.135-0.294,1.135-0.715
		c0-1.106-4.006-0.196-4.006-2.857c0-1.135,0.98-2.129,2.773-2.129c1.135,0,2.045,0.392,2.718,0.925l-0.714,1.26
		c-0.406-0.42-1.177-0.784-2.003-0.784c-0.644,0-1.064,0.28-1.064,0.658c0,0.995,4.02,0.154,4.02,2.886
		c0,1.247-1.064,2.157-2.941,2.157C487.054,128.668,485.92,128.275,485.205,127.617z"/>
	<path fill="#435152" d="M501.392,128.5l-1.835-3.319H498.1v3.319h-1.989v-9.343h4.371c1.947,0,3.152,1.274,3.152,3.012
		c0,1.639-1.051,2.535-2.059,2.773l2.115,3.558H501.392z M501.588,122.154c0-0.771-0.602-1.246-1.387-1.246H498.1v2.521h2.101
		C500.986,123.43,501.588,122.953,501.588,122.154z"/>
	<path fill="#435152" d="M504.217,125.11c0-1.961,1.457-3.544,3.502-3.544c2.031,0,3.39,1.513,3.39,3.712v0.42h-5.029
		c0.126,0.827,0.799,1.513,1.947,1.513c0.574,0,1.359-0.237,1.793-0.658l0.798,1.177c-0.672,0.616-1.737,0.938-2.788,0.938
		C505.771,128.668,504.217,127.281,504.217,125.11z M507.719,123.023c-1.106,0-1.583,0.77-1.653,1.442h3.333
		C509.344,123.821,508.896,123.023,507.719,123.023z"/>
	<path fill="#435152" d="M511.805,127.617l0.771-1.288c0.504,0.476,1.499,0.938,2.339,0.938c0.771,0,1.135-0.294,1.135-0.715
		c0-1.106-4.006-0.196-4.006-2.857c0-1.135,0.98-2.129,2.773-2.129c1.135,0,2.045,0.392,2.718,0.925l-0.714,1.26
		c-0.406-0.42-1.177-0.784-2.003-0.784c-0.644,0-1.064,0.28-1.064,0.658c0,0.995,4.02,0.154,4.02,2.886
		c0,1.247-1.064,2.157-2.941,2.157C513.654,128.668,512.52,128.275,511.805,127.617z"/>
	<path fill="#435152" d="M520.85,127.632v3.445h-1.779v-9.343h1.779v0.854c0.518-0.658,1.26-1.022,2.087-1.022
		c1.736,0,2.997,1.288,2.997,3.544c0,2.255-1.261,3.558-2.997,3.558C522.139,128.668,521.41,128.332,520.85,127.632z M524.1,125.11
		c0-1.163-0.7-1.961-1.723-1.961c-0.575,0-1.219,0.322-1.527,0.771v2.381c0.294,0.435,0.952,0.784,1.527,0.784
		C523.399,127.085,524.1,126.287,524.1,125.11z"/>
	<path fill="#435152" d="M526.799,125.11c0-1.919,1.344-3.544,3.571-3.544c2.241,0,3.586,1.625,3.586,3.544
		s-1.345,3.558-3.586,3.558C528.143,128.668,526.799,127.029,526.799,125.11z M532.107,125.11c0-1.051-0.617-1.961-1.737-1.961
		c-1.106,0-1.723,0.91-1.723,1.961c0,1.064,0.616,1.975,1.723,1.975C531.49,127.085,532.107,126.175,532.107,125.11z"/>
	<path fill="#435152" d="M539.85,128.5v-4.09c0-0.938-0.49-1.261-1.247-1.261c-0.7,0-1.232,0.392-1.54,0.784v4.566h-1.779v-6.766
		h1.779v0.868c0.434-0.504,1.273-1.036,2.367-1.036c1.498,0,2.213,0.84,2.213,2.157v4.776H539.85z"/>
	<path fill="#435152" d="M542.801,127.617l0.77-1.288c0.505,0.476,1.5,0.938,2.34,0.938c0.771,0,1.135-0.294,1.135-0.715
		c0-1.106-4.006-0.196-4.006-2.857c0-1.135,0.98-2.129,2.773-2.129c1.135,0,2.045,0.392,2.717,0.925l-0.714,1.26
		c-0.406-0.42-1.177-0.784-2.003-0.784c-0.645,0-1.064,0.28-1.064,0.658c0,0.995,4.02,0.154,4.02,2.886
		c0,1.247-1.064,2.157-2.941,2.157C544.649,128.668,543.515,128.275,542.801,127.617z"/>
	<path fill="#435152" d="M549.633,125.11c0-1.961,1.456-3.544,3.502-3.544c2.031,0,3.389,1.513,3.389,3.712v0.42h-5.028
		c0.126,0.827,0.799,1.513,1.947,1.513c0.574,0,1.358-0.237,1.793-0.658l0.798,1.177c-0.672,0.616-1.736,0.938-2.787,0.938
		C551.188,128.668,549.633,127.281,549.633,125.11z M553.135,123.023c-1.107,0-1.584,0.77-1.653,1.442h3.333
		C554.76,123.821,554.311,123.023,553.135,123.023z"/>
	<path fill="#435152" d="M558.355,124.396c0-1.652,2.059-1.849,2.059-2.815c0-0.434-0.336-0.798-1.107-0.798
		c-0.699,0-1.288,0.336-1.723,0.868l-1.135-1.274c0.743-0.883,1.863-1.359,3.068-1.359c1.807,0,2.914,0.911,2.914,2.214
		c0,2.045-2.34,2.199-2.34,3.375c0,0.225,0.111,0.463,0.266,0.589l-1.541,0.448C558.523,125.32,558.355,124.886,558.355,124.396z
		 M558.355,127.52c0-0.616,0.518-1.135,1.134-1.135s1.135,0.519,1.135,1.135s-0.519,1.135-1.135,1.135
		S558.355,128.136,558.355,127.52z"/>
</g>
<line fill="none" stroke="#E1EBEF" stroke-linecap="round" stroke-linejoin="round" stroke-miterlimit="10" x1="106.5" y1="125.5" x2="123.6" y2="125.5"/>
<path fill="#E1EBEF" d="M131.6,125.5l-8-3v6L131.6,125.5z"/>
<path fill="none" stroke="#E1EBEF" stroke-miterlimit="10" d="M131.6,125.5l-8-3v6L131.6,125.5z"/>
<line fill="none" stroke="#E1EBEF" stroke-linecap="round" stroke-linejoin="round" stroke-miterlimit="10" x1="205.5" y1="125.5" x2="231.6" y2="125.5"/>
<path fill="#E1EBEF" d="M239.6,125.5l-8-3v6L239.6,125.5z"/>
<path fill="none" stroke="#E1EBEF" stroke-miterlimit="10" d="M239.6,125.5l-8-3v6L239.6,125.5z"/>
<g>
	
		<line fill="none" stroke="#E1EBEF" stroke-linecap="round" stroke-linejoin="round" stroke-miterlimit="10" x1="430.5" y1="125.5" x2="447.6" y2="125.5"/>
	<path fill="#E1EBEF" d="M455.6,125.5l-8-3v6L455.6,125.5z"/>
	<path fill="none" stroke="#E1EBEF" stroke-miterlimit="10" d="M455.6,125.5l-8-3v6L455.6,125.5z"/>
</g>
<g>
	
		<line fill="none" stroke="#E1EBEF" stroke-linecap="round" stroke-linejoin="round" stroke-miterlimit="10" x1="583.771" y1="125.5" x2="600.872" y2="125.5"/>
	<path fill="#E1EBEF" d="M608.872,125.5l-8-3v6L608.872,125.5z"/>
	<path fill="none" stroke="#E1EBEF" stroke-miterlimit="10" d="M608.872,125.5l-8-3v6L608.872,125.5z"/>
</g>
<g>
	
		<line fill="none" stroke="#E1EBEF" stroke-linecap="round" stroke-linejoin="round" stroke-miterlimit="10" x1="634.872" y1="125.5" x2="657.8" y2="125.5"/>
	<path fill="#E1EBEF" d="M665.8,125.5l-8-3v6L665.8,125.5z"/>
	<path fill="none" stroke="#E1EBEF" stroke-miterlimit="10" d="M665.8,125.5l-8-3v6L665.8,125.5z"/>
</g>
<g>
	
		<line fill="none" stroke="#E1EBEF" stroke-linecap="round" stroke-linejoin="round" stroke-miterlimit="10" x1="750.25" y1="125.5" x2="778.04" y2="125.5"/>
	<path fill="#E1EBEF" d="M786.04,125.5l-8-3v6L786.04,125.5z"/>
	<path fill="none" stroke="#E1EBEF" stroke-miterlimit="10" d="M786.04,125.5l-8-3v6L786.04,125.5z"/>
</g>
<g>
	
		<line fill="none" stroke="#E1EBEF" stroke-linecap="round" stroke-linejoin="round" stroke-miterlimit="10" x1="861" y1="125.5" x2="888.75" y2="125.5"/>
	<path fill="#E1EBEF" d="M896.75,125.5l-8-3v6L896.75,125.5z"/>
	<path fill="none" stroke="#E1EBEF" stroke-miterlimit="10" d="M896.75,125.5l-8-3v6L896.75,125.5z"/>
</g>
<g>
	
		<line fill="none" stroke="#E1EBEF" stroke-linecap="round" stroke-linejoin="round" stroke-miterlimit="10" x1="589.5" y1="125" x2="692.34" y2="43.196"/>
	<path fill="#E1EBEF" d="M698.74,38.396l-8.201,2.4l3.6,4.8L698.74,38.396z"/>
</g>
<g>
	
		<line fill="none" stroke="#E1EBEF" stroke-linecap="round" stroke-linejoin="round" stroke-miterlimit="10" x1="727" y1="38.396" x2="819.979" y2="98.231"/>
	<path fill="#E1EBEF" d="M826,103.5l-4.045-7.526l-3.951,4.516L826,103.5z"/>
	<path fill="none" stroke="#E1EBEF" stroke-miterlimit="10" d="M826,103.5l-4.045-7.526l-3.951,4.516L826,103.5z"/>
</g>
<line fill="none" stroke="#E1EBEF" stroke-linecap="round" stroke-linejoin="round" stroke-miterlimit="10" x1="313.5" y1="125.5" x2="339.6" y2="125.5"/>
<path fill="#E1EBEF" d="M347.6,125.5l-8-3v6L347.6,125.5z"/>
<path fill="none" stroke="#E1EBEF" stroke-miterlimit="10" d="M347.6,125.5l-8-3v6L347.6,125.5z"/>
<g>
	<path fill="#DBE8EC" d="M698,26.396h29v24h-29V26.396z"/>
	<g enable-background="new    ">
		<path fill="#435152" d="M704.305,42.896v-3.824l-3.586-5.519h2.27l2.312,3.739l2.312-3.739h2.255l-3.571,5.519v3.824H704.305z"/>
		<path fill="#435152" d="M708.518,39.507c0-1.961,1.457-3.544,3.502-3.544c2.031,0,3.39,1.513,3.39,3.712v0.42h-5.028
			c0.126,0.827,0.799,1.513,1.947,1.513c0.574,0,1.358-0.237,1.793-0.658l0.798,1.177c-0.673,0.616-1.737,0.938-2.788,0.938
			C710.072,43.064,708.518,41.678,708.518,39.507z M712.02,37.42c-1.106,0-1.583,0.77-1.652,1.442h3.333
			C713.645,38.218,713.196,37.42,712.02,37.42z"/>
		<path fill="#435152" d="M716.105,42.014l0.77-1.288c0.505,0.476,1.5,0.938,2.34,0.938c0.771,0,1.135-0.294,1.135-0.715
			c0-1.106-4.006-0.196-4.006-2.857c0-1.135,0.98-2.129,2.773-2.129c1.135,0,2.045,0.392,2.717,0.925l-0.714,1.26
			c-0.406-0.42-1.177-0.784-2.003-0.784c-0.645,0-1.064,0.28-1.064,0.658c0,0.995,4.02,0.154,4.02,2.886
			c0,1.247-1.064,2.157-2.941,2.157C717.954,43.064,716.819,42.672,716.105,42.014z"/>
	</g>
</g>
<g>
	<path fill="#DBE8EC" d="M608.872,113.5h26v24h-26V113.5z"/>
	<g enable-background="new    ">
		<path fill="#435152" d="M619.78,130.006l-4.454-6.094v6.094h-1.99v-9.343h2.046l4.328,5.869v-5.869h1.989v9.343H619.78z"/>
		<path fill="#435152" d="M623.066,126.616c0-1.919,1.345-3.544,3.572-3.544c2.24,0,3.586,1.625,3.586,3.544
			s-1.346,3.558-3.586,3.558C624.411,130.174,623.066,128.535,623.066,126.616z M628.375,126.616c0-1.051-0.616-1.961-1.736-1.961
			c-1.107,0-1.723,0.91-1.723,1.961c0,1.064,0.615,1.975,1.723,1.975C627.759,128.591,628.375,127.681,628.375,126.616z"/>
	</g>
</g>
<line fill="none" stroke="#E1EBEF" stroke-linecap="round" stroke-linejoin="round" stroke-miterlimit="10" stroke-dasharray="4,4" x1="948.5" y1="143" x2="948.5" y2="169.1"/>
<path fill="#E1EBEF" d="M948.5,177.1l3-8h-6L948.5,177.1z"/>
<path fill="none" stroke="#E1EBEF" stroke-miterlimit="10" d="M948.5,177.1l3-8h-6L948.5,177.1z"/>
</svg>
