<?xml version="1.0" encoding="utf-8"?>
<!-- Generator: Adobe Illustrator 16.0.0, SVG Export Plug-In . SVG Version: 6.00 Build 0)  -->
<!DOCTYPE svg PUBLIC "-//W3C//DTD SVG 1.1//EN" "http://www.w3.org/Graphics/SVG/1.1/DTD/svg11.dtd">
<svg version="1.1" id="Layer_1" xmlns="http://www.w3.org/2000/svg" xmlns:xlink="http://www.w3.org/1999/xlink" x="0px" y="0px"
	 width="612px" height="242px" viewBox="0 0 612 242" enable-background="new 0 0 612 242" xml:space="preserve">
<path fill="#E1EBEF" d="M100.075,95.996h77.35c9.15,0,16.575,9.901,16.575,22.1c0,12.2-7.425,22.099-16.575,22.099h-77.35
	c-9.15,0-16.575-9.899-16.575-22.099C83.5,105.897,90.925,95.996,100.075,95.996"/>
<path fill="#E1EBEF" d="M434.175,95.996h77.351c9.148,0,16.574,9.901,16.574,22.1c0,12.2-7.426,22.099-16.574,22.099h-77.351
	c-9.148,0-16.575-9.899-16.575-22.099C417.6,105.897,425.025,95.996,434.175,95.996"/>
<g enable-background="new    ">
	<path fill="#435152" d="M118.124,122.604l-1.835-3.319h-1.457v3.319h-1.989v-9.343h4.371c1.947,0,3.152,1.274,3.152,3.012
		c0,1.639-1.051,2.535-2.059,2.773l2.115,3.558H118.124z M118.32,116.258c0-0.771-0.602-1.246-1.387-1.246h-2.101v2.521h2.101
		C117.718,117.533,118.32,117.057,118.32,116.258z"/>
	<path fill="#435152" d="M120.949,119.214c0-1.961,1.457-3.544,3.502-3.544c2.031,0,3.39,1.513,3.39,3.712v0.42h-5.029
		c0.126,0.827,0.799,1.513,1.947,1.513c0.574,0,1.359-0.237,1.793-0.658l0.798,1.177c-0.672,0.616-1.737,0.938-2.788,0.938
		C122.503,122.771,120.949,121.385,120.949,119.214z M124.451,117.127c-1.106,0-1.583,0.77-1.653,1.442h3.333
		C126.076,117.925,125.627,117.127,124.451,117.127z"/>
	<path fill="#435152" d="M128.676,119.214c0-2.256,1.261-3.544,2.984-3.544c0.826,0,1.569,0.364,2.087,1.022v-0.854h1.793v9.343
		h-1.793v-3.445c-0.546,0.7-1.274,1.036-2.087,1.036C129.937,122.771,128.676,121.469,128.676,119.214z M133.747,120.404v-2.381
		c-0.294-0.448-0.938-0.771-1.527-0.771c-1.008,0-1.709,0.798-1.709,1.961c0,1.177,0.701,1.975,1.709,1.975
		C132.809,121.188,133.453,120.839,133.747,120.404z"/>
	<path fill="#435152" d="M141.853,122.604v-0.854c-0.462,0.504-1.274,1.022-2.381,1.022c-1.485,0-2.186-0.812-2.186-2.129v-4.805
		h1.779v4.104c0,0.938,0.49,1.246,1.247,1.246c0.686,0,1.232-0.378,1.541-0.771v-4.58h1.779v6.766H141.853z"/>
	<path fill="#435152" d="M144.958,119.214c0-1.961,1.457-3.544,3.502-3.544c2.031,0,3.39,1.513,3.39,3.712v0.42h-5.029
		c0.126,0.827,0.799,1.513,1.947,1.513c0.574,0,1.359-0.237,1.793-0.658l0.798,1.177c-0.672,0.616-1.737,0.938-2.788,0.938
		C146.513,122.771,144.958,121.385,144.958,119.214z M148.46,117.127c-1.106,0-1.583,0.77-1.653,1.442h3.333
		C150.085,117.925,149.637,117.127,148.46,117.127z"/>
	<path fill="#435152" d="M152.546,121.721l0.771-1.288c0.504,0.476,1.499,0.938,2.339,0.938c0.771,0,1.135-0.294,1.135-0.715
		c0-1.106-4.006-0.196-4.006-2.857c0-1.135,0.98-2.129,2.773-2.129c1.135,0,2.045,0.392,2.718,0.925l-0.714,1.26
		c-0.406-0.42-1.177-0.784-2.003-0.784c-0.644,0-1.064,0.28-1.064,0.658c0,0.995,4.02,0.154,4.02,2.886
		c0,1.247-1.064,2.157-2.941,2.157C154.395,122.771,153.26,122.379,152.546,121.721z"/>
	<path fill="#435152" d="M160.176,120.908v-3.516h-1.121v-1.555h1.121v-1.849h1.779v1.849h1.373v1.555h-1.373v3.04
		c0,0.434,0.224,0.756,0.616,0.756c0.266,0,0.518-0.098,0.616-0.21l0.378,1.358c-0.266,0.238-0.743,0.435-1.485,0.435
		C160.834,122.771,160.176,122.127,160.176,120.908z"/>
</g>
<g>
	<g enable-background="new    ">
		<path fill="#435152" d="M449.125,122.604l-1.835-3.319h-1.456v3.319h-1.99v-9.343h4.371c1.947,0,3.152,1.274,3.152,3.012
			c0,1.639-1.051,2.535-2.06,2.773l2.114,3.558H449.125z M449.321,116.258c0-0.771-0.603-1.246-1.387-1.246h-2.101v2.521h2.101
			C448.719,117.533,449.321,117.057,449.321,116.258z"/>
		<path fill="#435152" d="M451.95,119.214c0-1.961,1.457-3.544,3.502-3.544c2.031,0,3.39,1.513,3.39,3.712v0.42h-5.029
			c0.127,0.827,0.799,1.513,1.947,1.513c0.574,0,1.359-0.237,1.793-0.658l0.799,1.177c-0.672,0.616-1.736,0.938-2.787,0.938
			C453.505,122.771,451.95,121.385,451.95,119.214z M455.452,117.127c-1.106,0-1.583,0.77-1.653,1.442h3.334
			C457.077,117.925,456.629,117.127,455.452,117.127z"/>
		<path fill="#435152" d="M459.537,121.721l0.771-1.288c0.504,0.476,1.498,0.938,2.339,0.938c0.771,0,1.135-0.294,1.135-0.715
			c0-1.106-4.007-0.196-4.007-2.857c0-1.135,0.98-2.129,2.773-2.129c1.135,0,2.046,0.392,2.719,0.925l-0.715,1.26
			c-0.406-0.42-1.177-0.784-2.004-0.784c-0.644,0-1.064,0.28-1.064,0.658c0,0.995,4.021,0.154,4.021,2.886
			c0,1.247-1.064,2.157-2.941,2.157C461.387,122.771,460.252,122.379,459.537,121.721z"/>
		<path fill="#435152" d="M468.583,121.735v3.445h-1.779v-9.343h1.779v0.854c0.519-0.658,1.261-1.022,2.087-1.022
			c1.736,0,2.998,1.288,2.998,3.544c0,2.255-1.262,3.558-2.998,3.558C469.871,122.771,469.143,122.436,468.583,121.735z
			 M471.832,119.214c0-1.163-0.699-1.961-1.723-1.961c-0.574,0-1.219,0.322-1.526,0.771v2.381c0.294,0.435,0.952,0.784,1.526,0.784
			C471.133,121.188,471.832,120.391,471.832,119.214z"/>
		<path fill="#435152" d="M474.531,119.214c0-1.919,1.346-3.544,3.572-3.544c2.241,0,3.586,1.625,3.586,3.544
			s-1.345,3.558-3.586,3.558C475.877,122.771,474.531,121.133,474.531,119.214z M479.841,119.214c0-1.051-0.616-1.961-1.737-1.961
			c-1.106,0-1.723,0.91-1.723,1.961c0,1.064,0.616,1.975,1.723,1.975C479.225,121.188,479.841,120.278,479.841,119.214z"/>
		<path fill="#435152" d="M487.582,122.604v-4.09c0-0.938-0.49-1.261-1.246-1.261c-0.701,0-1.232,0.392-1.541,0.784v4.566h-1.779
			v-6.766h1.779v0.868c0.434-0.504,1.274-1.036,2.367-1.036c1.498,0,2.213,0.84,2.213,2.157v4.776H487.582z"/>
		<path fill="#435152" d="M490.533,121.721l0.771-1.288c0.505,0.476,1.499,0.938,2.339,0.938c0.771,0,1.135-0.294,1.135-0.715
			c0-1.106-4.006-0.196-4.006-2.857c0-1.135,0.98-2.129,2.773-2.129c1.135,0,2.045,0.392,2.718,0.925l-0.714,1.26
			c-0.406-0.42-1.178-0.784-2.004-0.784c-0.645,0-1.064,0.28-1.064,0.658c0,0.995,4.02,0.154,4.02,2.886
			c0,1.247-1.064,2.157-2.941,2.157C492.383,122.771,491.248,122.379,490.533,121.721z"/>
		<path fill="#435152" d="M497.365,119.214c0-1.961,1.457-3.544,3.502-3.544c2.031,0,3.39,1.513,3.39,3.712v0.42h-5.028
			c0.126,0.827,0.799,1.513,1.947,1.513c0.574,0,1.358-0.237,1.793-0.658l0.798,1.177c-0.673,0.616-1.737,0.938-2.788,0.938
			C498.92,122.771,497.365,121.385,497.365,119.214z M500.867,117.127c-1.106,0-1.583,0.77-1.652,1.442h3.333
			C502.492,117.925,502.044,117.127,500.867,117.127z"/>
	</g>
</g>
<path fill="#E1EBEF" d="M256.6,122.93c-21.819-4.833-13.118-45.527,21.688-38.583c3.229-13.535,43.704-11.338,43.438,0
	c25.381-14.502,57.812,14.415,36.06,28.916c26.104,7.031-0.33,44.912-21.753,38.583c-1.715,10.547-40.013,14.238-43.374,0
	C270.971,167.051,225.751,143.672,256.6,122.93L256.6,122.93z"/>
<g>
	<g enable-background="new    ">
		<path fill="#435152" d="M272.907,122.604v-3.824l-3.586-5.519h2.27l2.311,3.739l2.312-3.739h2.255l-3.572,5.519v3.824H272.907z"/>
		<path fill="#435152" d="M277.119,119.214c0-1.919,1.345-3.544,3.572-3.544c2.241,0,3.586,1.625,3.586,3.544
			s-1.345,3.558-3.586,3.558C278.464,122.771,277.119,121.133,277.119,119.214z M282.428,119.214c0-1.051-0.617-1.961-1.737-1.961
			c-1.106,0-1.723,0.91-1.723,1.961c0,1.064,0.616,1.975,1.723,1.975C281.812,121.188,282.428,120.278,282.428,119.214z"/>
		<path fill="#435152" d="M290.169,122.604v-0.854c-0.462,0.504-1.274,1.022-2.381,1.022c-1.485,0-2.186-0.812-2.186-2.129v-4.805
			h1.779v4.104c0,0.938,0.49,1.246,1.247,1.246c0.687,0,1.232-0.378,1.541-0.771v-4.58h1.779v6.766H290.169z"/>
		<path fill="#435152" d="M293.709,122.604v-6.766h1.779v0.91c0.49-0.588,1.316-1.078,2.157-1.078v1.736
			c-0.126-0.027-0.28-0.042-0.491-0.042c-0.588,0-1.373,0.337-1.667,0.771v4.469H293.709z"/>
		<path fill="#435152" d="M301.758,121.721l0.771-1.288c0.504,0.476,1.499,0.938,2.339,0.938c0.771,0,1.135-0.294,1.135-0.715
			c0-1.106-4.006-0.196-4.006-2.857c0-1.135,0.98-2.129,2.773-2.129c1.135,0,2.045,0.392,2.718,0.925l-0.715,1.26
			c-0.406-0.42-1.177-0.784-2.003-0.784c-0.644,0-1.064,0.28-1.064,0.658c0,0.995,4.02,0.154,4.02,2.886
			c0,1.247-1.064,2.157-2.941,2.157C303.607,122.771,302.473,122.379,301.758,121.721z"/>
		<path fill="#435152" d="M308.59,119.214c0-1.961,1.457-3.544,3.502-3.544c2.031,0,3.391,1.513,3.391,3.712v0.42h-5.029
			c0.127,0.827,0.799,1.513,1.947,1.513c0.574,0,1.359-0.237,1.793-0.658l0.799,1.177c-0.673,0.616-1.737,0.938-2.788,0.938
			C310.145,122.771,308.59,121.385,308.59,119.214z M312.092,117.127c-1.105,0-1.582,0.77-1.652,1.442h3.334
			C313.717,117.925,313.27,117.127,312.092,117.127z"/>
		<path fill="#435152" d="M316.767,122.604v-6.766h1.779v0.91c0.49-0.588,1.316-1.078,2.157-1.078v1.736
			c-0.127-0.027-0.28-0.042-0.49-0.042c-0.588,0-1.373,0.337-1.667,0.771v4.469H316.767z"/>
		<path fill="#435152" d="M323.557,122.604l-2.717-6.766h1.904l1.766,4.706l1.779-4.706h1.904l-2.717,6.766H323.557z"/>
		<path fill="#435152" d="M328.555,119.214c0-1.961,1.456-3.544,3.502-3.544c2.031,0,3.389,1.513,3.389,3.712v0.42h-5.028
			c0.126,0.827,0.799,1.513,1.947,1.513c0.574,0,1.358-0.237,1.793-0.658l0.798,1.177c-0.672,0.616-1.736,0.938-2.787,0.938
			C330.109,122.771,328.555,121.385,328.555,119.214z M332.057,117.127c-1.107,0-1.584,0.77-1.653,1.442h3.333
			C333.682,117.925,333.232,117.127,332.057,117.127z"/>
		<path fill="#435152" d="M336.73,122.604v-6.766h1.779v0.91c0.49-0.588,1.316-1.078,2.156-1.078v1.736
			c-0.126-0.027-0.279-0.042-0.49-0.042c-0.588,0-1.373,0.337-1.666,0.771v4.469H336.73z"/>
	</g>
</g>
<line fill="none" stroke="#E1EBEF" stroke-linecap="round" stroke-linejoin="round" stroke-miterlimit="10" x1="194.5" y1="118.596" x2="238.966" y2="118.596"/>
<path fill="#E1EBEF" d="M246.966,118.596l-8-3v6L246.966,118.596z"/>
<path fill="none" stroke="#E1EBEF" stroke-miterlimit="10" d="M246.966,118.596l-8-3v6L246.966,118.596z"/>
<line fill="none" stroke="#E1EBEF" stroke-linecap="round" stroke-linejoin="round" stroke-miterlimit="10" x1="366.549" y1="118.596" x2="409.6" y2="118.596"/>
<path fill="#E1EBEF" d="M417.6,118.596l-8-3v6L417.6,118.596z"/>
<path fill="none" stroke="#E1EBEF" stroke-miterlimit="10" d="M417.6,118.596l-8-3v6L417.6,118.596z"/>
</svg>
