<?xml version="1.0" encoding="utf-8"?>
<!-- Generator: Adobe Illustrator 16.0.0, SVG Export Plug-In . SVG Version: 6.00 Build 0)  -->
<!DOCTYPE svg PUBLIC "-//W3C//DTD SVG 1.1//EN" "http://www.w3.org/Graphics/SVG/1.1/DTD/svg11.dtd">
<svg version="1.1" id="Layer_1" xmlns="http://www.w3.org/2000/svg" xmlns:xlink="http://www.w3.org/1999/xlink" x="0px" y="0px"
	 width="558px" height="155px" viewBox="0 0 558 155" enable-background="new 0 0 558 155" xml:space="preserve">
<path fill="#E1EBEF" d="M82.225,50.7h78.05C169.507,50.7,177,60.69,177,73c0,12.309-7.493,22.3-16.725,22.3h-78.05
	C72.993,95.3,65.5,85.309,65.5,73C65.5,60.69,72.993,50.7,82.225,50.7"/>
<path fill="#E1EBEF" d="M408.324,50.7h78.051c9.232,0,16.725,9.99,16.725,22.3c0,12.309-7.491,22.3-16.725,22.3h-78.051
	c-9.232,0-16.726-9.991-16.726-22.3C391.6,60.69,399.092,50.7,408.324,50.7"/>
<g enable-background="new    ">
	<path fill="#435152" d="M103.124,77.508l-1.835-3.319h-1.457v3.319h-1.989v-9.343h4.371c1.947,0,3.152,1.274,3.152,3.012
		c0,1.639-1.051,2.535-2.059,2.773l2.115,3.558H103.124z M103.32,71.162c0-0.771-0.602-1.246-1.387-1.246h-2.101v2.521h2.101
		C102.718,72.438,103.32,71.961,103.32,71.162z"/>
	<path fill="#435152" d="M105.949,74.118c0-1.961,1.457-3.544,3.502-3.544c2.031,0,3.39,1.513,3.39,3.712v0.42h-5.029
		c0.126,0.827,0.799,1.513,1.947,1.513c0.574,0,1.359-0.237,1.793-0.658l0.798,1.177c-0.672,0.616-1.737,0.938-2.788,0.938
		C107.503,77.676,105.949,76.289,105.949,74.118z M109.451,72.031c-1.106,0-1.583,0.77-1.653,1.442h3.333
		C111.076,72.829,110.627,72.031,109.451,72.031z"/>
	<path fill="#435152" d="M113.676,74.118c0-2.256,1.261-3.544,2.984-3.544c0.826,0,1.569,0.364,2.087,1.022v-0.854h1.793v9.343
		h-1.793V76.64c-0.546,0.7-1.274,1.036-2.087,1.036C114.937,77.676,113.676,76.373,113.676,74.118z M118.747,75.309v-2.381
		c-0.294-0.448-0.938-0.771-1.527-0.771c-1.008,0-1.709,0.798-1.709,1.961c0,1.177,0.701,1.975,1.709,1.975
		C117.809,76.093,118.453,75.743,118.747,75.309z"/>
	<path fill="#435152" d="M126.853,77.508v-0.854c-0.462,0.504-1.274,1.022-2.381,1.022c-1.485,0-2.186-0.812-2.186-2.129v-4.805
		h1.779v4.104c0,0.938,0.49,1.246,1.247,1.246c0.686,0,1.232-0.378,1.541-0.771v-4.58h1.779v6.766H126.853z"/>
	<path fill="#435152" d="M129.958,74.118c0-1.961,1.457-3.544,3.502-3.544c2.031,0,3.39,1.513,3.39,3.712v0.42h-5.029
		c0.126,0.827,0.799,1.513,1.947,1.513c0.574,0,1.359-0.237,1.793-0.658l0.798,1.177c-0.672,0.616-1.737,0.938-2.788,0.938
		C131.513,77.676,129.958,76.289,129.958,74.118z M133.46,72.031c-1.106,0-1.583,0.77-1.653,1.442h3.333
		C135.085,72.829,134.637,72.031,133.46,72.031z"/>
	<path fill="#435152" d="M137.546,76.625l0.771-1.288c0.504,0.476,1.499,0.938,2.339,0.938c0.771,0,1.135-0.294,1.135-0.715
		c0-1.106-4.006-0.196-4.006-2.857c0-1.135,0.98-2.129,2.773-2.129c1.135,0,2.045,0.392,2.718,0.925l-0.714,1.26
		c-0.406-0.42-1.177-0.784-2.003-0.784c-0.644,0-1.064,0.28-1.064,0.658c0,0.995,4.02,0.154,4.02,2.886
		c0,1.247-1.064,2.157-2.941,2.157C139.395,77.676,138.26,77.283,137.546,76.625z"/>
	<path fill="#435152" d="M145.176,75.812v-3.516h-1.121v-1.555h1.121v-1.849h1.779v1.849h1.373v1.555h-1.373v3.04
		c0,0.434,0.224,0.756,0.616,0.756c0.266,0,0.518-0.098,0.616-0.21l0.378,1.358c-0.266,0.238-0.743,0.435-1.485,0.435
		C145.834,77.676,145.176,77.031,145.176,75.812z"/>
</g>
<g enable-background="new    ">
	<path fill="#435152" d="M423.125,77.508l-1.835-3.319h-1.456v3.319h-1.99v-9.343h4.371c1.947,0,3.152,1.274,3.152,3.012
		c0,1.639-1.051,2.535-2.06,2.773l2.114,3.558H423.125z M423.321,71.162c0-0.771-0.603-1.246-1.387-1.246h-2.101v2.521h2.101
		C422.719,72.438,423.321,71.961,423.321,71.162z"/>
	<path fill="#435152" d="M425.95,74.118c0-1.961,1.457-3.544,3.502-3.544c2.031,0,3.39,1.513,3.39,3.712v0.42h-5.029
		c0.127,0.827,0.799,1.513,1.947,1.513c0.574,0,1.359-0.237,1.793-0.658l0.799,1.177c-0.672,0.616-1.736,0.938-2.787,0.938
		C427.505,77.676,425.95,76.289,425.95,74.118z M429.452,72.031c-1.106,0-1.583,0.77-1.653,1.442h3.334
		C431.077,72.829,430.629,72.031,429.452,72.031z"/>
	<path fill="#435152" d="M433.537,76.625l0.771-1.288c0.504,0.476,1.498,0.938,2.339,0.938c0.771,0,1.135-0.294,1.135-0.715
		c0-1.106-4.007-0.196-4.007-2.857c0-1.135,0.98-2.129,2.773-2.129c1.135,0,2.046,0.392,2.719,0.925l-0.715,1.26
		c-0.406-0.42-1.177-0.784-2.004-0.784c-0.644,0-1.064,0.28-1.064,0.658c0,0.995,4.021,0.154,4.021,2.886
		c0,1.247-1.064,2.157-2.941,2.157C435.387,77.676,434.252,77.283,433.537,76.625z"/>
	<path fill="#435152" d="M442.583,76.64v3.445h-1.779v-9.343h1.779v0.854c0.519-0.658,1.261-1.022,2.087-1.022
		c1.736,0,2.998,1.288,2.998,3.544c0,2.255-1.262,3.558-2.998,3.558C443.871,77.676,443.143,77.34,442.583,76.64z M445.832,74.118
		c0-1.163-0.699-1.961-1.723-1.961c-0.574,0-1.219,0.322-1.526,0.771v2.381c0.294,0.435,0.952,0.784,1.526,0.784
		C445.133,76.093,445.832,75.295,445.832,74.118z"/>
	<path fill="#435152" d="M448.531,74.118c0-1.919,1.346-3.544,3.572-3.544c2.241,0,3.586,1.625,3.586,3.544
		s-1.345,3.558-3.586,3.558C449.877,77.676,448.531,76.037,448.531,74.118z M453.841,74.118c0-1.051-0.616-1.961-1.737-1.961
		c-1.106,0-1.723,0.91-1.723,1.961c0,1.064,0.616,1.975,1.723,1.975C453.225,76.093,453.841,75.183,453.841,74.118z"/>
	<path fill="#435152" d="M461.582,77.508v-4.09c0-0.938-0.49-1.261-1.246-1.261c-0.701,0-1.232,0.392-1.541,0.784v4.566h-1.779
		v-6.766h1.779v0.868c0.434-0.504,1.274-1.036,2.367-1.036c1.498,0,2.213,0.84,2.213,2.157v4.776H461.582z"/>
	<path fill="#435152" d="M464.533,76.625l0.771-1.288c0.505,0.476,1.499,0.938,2.339,0.938c0.771,0,1.135-0.294,1.135-0.715
		c0-1.106-4.006-0.196-4.006-2.857c0-1.135,0.98-2.129,2.773-2.129c1.135,0,2.045,0.392,2.718,0.925l-0.714,1.26
		c-0.406-0.42-1.178-0.784-2.004-0.784c-0.645,0-1.064,0.28-1.064,0.658c0,0.995,4.02,0.154,4.02,2.886
		c0,1.247-1.064,2.157-2.941,2.157C466.383,77.676,465.248,77.283,464.533,76.625z"/>
	<path fill="#435152" d="M471.365,74.118c0-1.961,1.457-3.544,3.502-3.544c2.031,0,3.39,1.513,3.39,3.712v0.42h-5.028
		c0.126,0.827,0.799,1.513,1.947,1.513c0.574,0,1.358-0.237,1.793-0.658l0.798,1.177c-0.673,0.616-1.737,0.938-2.788,0.938
		C472.92,77.676,471.365,76.289,471.365,74.118z M474.867,72.031c-1.106,0-1.583,0.77-1.652,1.442h3.333
		C476.492,72.829,476.044,72.031,474.867,72.031z"/>
</g>
<path fill="#E1EBEF" d="M225.1,47.126H348v51.748H225.1V47.126z"/>
<g enable-background="new    ">
	<path fill="#435152" d="M260.859,77.508v-3.937h-4.413v3.937h-1.989v-9.343h1.989v3.67h4.413v-3.67h2.003v9.343H260.859z"/>
	<path fill="#435152" d="M265.013,75.812v-3.516h-1.121v-1.555h1.121v-1.849h1.779v1.849h1.373v1.555h-1.373v3.04
		c0,0.434,0.224,0.756,0.616,0.756c0.266,0,0.518-0.098,0.616-0.21l0.378,1.358c-0.266,0.238-0.743,0.435-1.485,0.435
		C265.671,77.676,265.013,77.031,265.013,75.812z"/>
	<path fill="#435152" d="M269.745,75.812v-3.516h-1.121v-1.555h1.121v-1.849h1.779v1.849h1.373v1.555h-1.373v3.04
		c0,0.434,0.225,0.756,0.617,0.756c0.266,0,0.518-0.098,0.616-0.21l0.378,1.358c-0.267,0.238-0.743,0.435-1.485,0.435
		C270.404,77.676,269.745,77.031,269.745,75.812z"/>
	<path fill="#435152" d="M275.892,76.64v3.445h-1.779v-9.343h1.779v0.854c0.518-0.658,1.261-1.022,2.087-1.022
		c1.737,0,2.998,1.288,2.998,3.544c0,2.255-1.261,3.558-2.998,3.558C277.181,77.676,276.452,77.34,275.892,76.64z M279.142,74.118
		c0-1.163-0.7-1.961-1.723-1.961c-0.575,0-1.219,0.322-1.527,0.771v2.381c0.294,0.435,0.952,0.784,1.527,0.784
		C278.441,76.093,279.142,75.295,279.142,74.118z"/>
	<path fill="#435152" d="M287.864,77.508l-2.829-3.754l-0.729,0.883v2.871h-1.99v-9.343h1.99v4.16l3.305-4.16h2.452l-3.712,4.384
		l3.964,4.959H287.864z"/>
	<path fill="#435152" d="M290.367,74.118c0-1.961,1.457-3.544,3.502-3.544c2.031,0,3.389,1.513,3.389,3.712v0.42h-5.028
		c0.126,0.827,0.799,1.513,1.947,1.513c0.574,0,1.358-0.237,1.793-0.658l0.798,1.177c-0.672,0.616-1.736,0.938-2.787,0.938
		C291.922,77.676,290.367,76.289,290.367,74.118z M293.869,72.031c-1.107,0-1.584,0.77-1.653,1.442h3.333
		C295.494,72.829,295.045,72.031,293.869,72.031z"/>
	<path fill="#435152" d="M298.543,77.508v-6.766h1.779v0.91c0.49-0.588,1.316-1.078,2.156-1.078v1.736
		c-0.126-0.027-0.279-0.042-0.49-0.042c-0.588,0-1.373,0.337-1.666,0.771v4.469H298.543z"/>
	<path fill="#435152" d="M308.148,77.508v-4.09c0-0.938-0.49-1.261-1.246-1.261c-0.7,0-1.232,0.392-1.541,0.784v4.566h-1.779v-6.766
		h1.779v0.868c0.435-0.504,1.275-1.036,2.367-1.036c1.499,0,2.213,0.84,2.213,2.157v4.776H308.148z"/>
	<path fill="#435152" d="M311.254,74.118c0-1.961,1.457-3.544,3.502-3.544c2.031,0,3.391,1.513,3.391,3.712v0.42h-5.029
		c0.127,0.827,0.799,1.513,1.947,1.513c0.574,0,1.359-0.237,1.793-0.658l0.799,1.177c-0.673,0.616-1.737,0.938-2.788,0.938
		C312.809,77.676,311.254,76.289,311.254,74.118z M314.756,72.031c-1.105,0-1.582,0.77-1.652,1.442h3.334
		C316.381,72.829,315.934,72.031,314.756,72.031z"/>
	<path fill="#435152" d="M319.43,77.508v-9.343h1.779v9.343H319.43z"/>
</g>
<line fill="none" stroke="#E1EBEF" stroke-linecap="round" stroke-linejoin="round" stroke-miterlimit="10" x1="177.5" y1="73.5" x2="217.1" y2="73.5"/>
<path fill="#E1EBEF" d="M225.1,73.5l-8-3v6L225.1,73.5z"/>
<path fill="none" stroke="#E1EBEF" stroke-miterlimit="10" d="M225.1,73.5l-8-3v6L225.1,73.5z"/>
<line fill="none" stroke="#E1EBEF" stroke-linecap="round" stroke-linejoin="round" stroke-miterlimit="10" x1="348.5" y1="73.5" x2="383.6" y2="73.5"/>
<path fill="#E1EBEF" d="M391.6,73.5l-8-3v6L391.6,73.5z"/>
<path fill="none" stroke="#E1EBEF" stroke-miterlimit="10" d="M391.6,73.5l-8-3v6L391.6,73.5z"/>
</svg>
