<?xml version="1.0" encoding="utf-8"?>
<!-- Generator: Adobe Illustrator 16.0.0, SVG Export Plug-In . SVG Version: 6.00 Build 0)  -->
<!DOCTYPE svg PUBLIC "-//W3C//DTD SVG 1.1//EN" "http://www.w3.org/Graphics/SVG/1.1/DTD/svg11.dtd">
<svg version="1.1" id="Layer_1" xmlns="http://www.w3.org/2000/svg" xmlns:xlink="http://www.w3.org/1999/xlink" x="0px" y="0px"
	 width="612px" height="212px" viewBox="0 0 612 212" enable-background="new 0 0 612 212" xml:space="preserve">
<path fill="#E1EBEF" d="M399,68h148v57.6c-44.4-7.199-103.6,21.603-148,7.2V68z"/>
<g enable-background="new    ">
	<path fill="#435152" d="M453.274,97.898V93.78c0-0.938-0.49-1.232-1.247-1.232c-0.699,0-1.246,0.392-1.541,0.784v4.566h-1.793
		v-9.343h1.793v3.445c0.436-0.504,1.262-1.036,2.368-1.036c1.484,0,2.198,0.812,2.198,2.129v4.805H453.274z"/>
	<path fill="#435152" d="M456.379,94.509c0-1.961,1.457-3.544,3.502-3.544c2.031,0,3.391,1.513,3.391,3.712v0.42h-5.029
		c0.127,0.827,0.799,1.513,1.947,1.513c0.574,0,1.359-0.237,1.793-0.658l0.799,1.177c-0.673,0.616-1.737,0.938-2.788,0.938
		C457.934,98.066,456.379,96.68,456.379,94.509z M459.881,92.422c-1.105,0-1.582,0.77-1.652,1.442h3.334
		C461.506,93.22,461.059,92.422,459.881,92.422z"/>
	<path fill="#435152" d="M468.618,97.898v-0.715c-0.462,0.561-1.261,0.883-2.144,0.883c-1.078,0-2.339-0.729-2.339-2.241
		c0-1.597,1.261-2.185,2.339-2.185c0.91,0,1.695,0.294,2.144,0.826v-0.854c0-0.687-0.589-1.135-1.485-1.135
		c-0.714,0-1.387,0.28-1.947,0.799l-0.699-1.247c0.826-0.742,1.891-1.064,2.955-1.064c1.555,0,2.97,0.616,2.97,2.563v4.37H468.618z
		 M468.618,96.273v-0.84c-0.294-0.393-0.854-0.603-1.429-0.603c-0.701,0-1.275,0.378-1.275,1.022s0.574,1.009,1.275,1.009
		C467.764,96.862,468.324,96.666,468.618,96.273z"/>
	<path fill="#435152" d="M476.809,97.898V97.03c-0.533,0.672-1.261,1.036-2.088,1.036c-1.694,0-2.997-1.289-2.997-3.558
		c0-2.199,1.274-3.544,2.997-3.544c0.799,0,1.555,0.336,2.088,1.036v-3.445h1.793v9.343H476.809z M476.809,95.713v-2.395
		c-0.295-0.448-0.938-0.771-1.527-0.771c-1.022,0-1.723,0.798-1.723,1.961c0,1.177,0.7,1.975,1.723,1.975
		C475.87,96.483,476.514,96.161,476.809,95.713z"/>
	<path fill="#435152" d="M479.928,94.509c0-1.961,1.456-3.544,3.502-3.544c2.031,0,3.389,1.513,3.389,3.712v0.42h-5.028
		c0.126,0.827,0.799,1.513,1.947,1.513c0.574,0,1.358-0.237,1.793-0.658l0.798,1.177c-0.672,0.616-1.736,0.938-2.787,0.938
		C481.482,98.066,479.928,96.68,479.928,94.509z M483.43,92.422c-1.107,0-1.584,0.77-1.653,1.442h3.333
		C485.055,93.22,484.605,92.422,483.43,92.422z"/>
	<path fill="#435152" d="M488.104,97.898v-6.766h1.779v0.91c0.49-0.588,1.316-1.078,2.157-1.078v1.736
		c-0.126-0.027-0.28-0.042-0.491-0.042c-0.588,0-1.372,0.337-1.666,0.771v4.469H488.104z"/>
	<path fill="#435152" d="M495.062,100.686c-1.373-1.526-2.228-3.936-2.228-6.191c0-2.255,0.854-4.664,2.228-6.19l1.106,0.84
		c-0.938,1.709-1.415,3.25-1.415,5.351c0,2.088,0.477,3.643,1.415,5.323L495.062,100.686z"/>
	<path fill="#435152" d="M500.269,99.817c0.952-1.681,1.415-3.235,1.415-5.323c0-2.101-0.463-3.642-1.415-5.351l1.106-0.84
		c1.373,1.526,2.242,3.936,2.242,6.19c0,2.256-0.869,4.665-2.242,6.191L500.269,99.817z"/>
</g>
<g enable-background="new    ">
	<path fill="#435152" d="M418.035,113.83v3.445h-1.779v-9.343h1.779v0.854c0.518-0.658,1.26-1.022,2.086-1.022
		c1.737,0,2.998,1.288,2.998,3.544c0,2.255-1.261,3.558-2.998,3.558C419.323,114.866,418.595,114.53,418.035,113.83z
		 M421.284,111.309c0-1.163-0.7-1.961-1.723-1.961c-0.575,0-1.219,0.322-1.526,0.771v2.381c0.293,0.435,0.951,0.784,1.526,0.784
		C420.584,113.283,421.284,112.485,421.284,111.309z"/>
	<path fill="#435152" d="M424.418,114.698v-6.766h1.779v0.91c0.49-0.588,1.316-1.078,2.156-1.078v1.736
		c-0.126-0.027-0.279-0.042-0.49-0.042c-0.588,0-1.373,0.337-1.666,0.771v4.469H424.418z"/>
	<path fill="#435152" d="M429.289,106.14c0-0.588,0.477-1.051,1.051-1.051c0.588,0,1.064,0.463,1.064,1.051
		s-0.477,1.064-1.064,1.064C429.766,107.204,429.289,106.728,429.289,106.14z M429.457,114.698v-6.766h1.779v6.766H429.457z"/>
	<path fill="#435152" d="M437.565,114.698v-4.09c0-0.938-0.49-1.261-1.247-1.261c-0.699,0-1.232,0.392-1.54,0.784v4.566h-1.779
		v-6.766h1.779v0.868c0.435-0.504,1.274-1.036,2.367-1.036c1.499,0,2.213,0.84,2.213,2.157v4.776H437.565z"/>
	<path fill="#435152" d="M441.469,113.003v-3.516h-1.12v-1.555h1.12v-1.849h1.779v1.849h1.373v1.555h-1.373v3.04
		c0,0.434,0.225,0.756,0.617,0.756c0.266,0,0.518-0.098,0.615-0.21l0.379,1.358c-0.267,0.238-0.742,0.435-1.484,0.435
		C442.128,114.866,441.469,114.222,441.469,113.003z"/>
	<path fill="#435152" d="M452.293,114.838c-1.472-0.126-2.551-0.686-3.32-1.456l1.092-1.555c0.52,0.546,1.289,1.036,2.229,1.204
		v-2.171c-1.443-0.351-3.012-0.896-3.012-2.802c0-1.415,1.12-2.619,3.012-2.815v-1.303h1.316v1.331
		c1.135,0.126,2.101,0.546,2.857,1.246l-1.107,1.485c-0.504-0.463-1.12-0.757-1.75-0.911v1.934c1.457,0.364,3.081,0.924,3.081,2.844
		c0,1.555-1.022,2.759-3.081,2.969v1.261h-1.316V114.838z M452.293,108.703v-1.695c-0.617,0.084-0.967,0.421-0.967,0.896
		C451.326,108.311,451.718,108.521,452.293,108.703z M453.609,111.183v1.877c0.714-0.141,1.051-0.547,1.051-0.995
		C454.66,111.603,454.225,111.379,453.609,111.183z"/>
	<path fill="#435152" d="M459.811,113.83v3.445h-1.779v-9.343h1.779v0.854c0.518-0.658,1.26-1.022,2.086-1.022
		c1.737,0,2.998,1.288,2.998,3.544c0,2.255-1.261,3.558-2.998,3.558C461.099,114.866,460.37,114.53,459.811,113.83z M463.06,111.309
		c0-1.163-0.7-1.961-1.723-1.961c-0.575,0-1.219,0.322-1.526,0.771v2.381c0.293,0.435,0.951,0.784,1.526,0.784
		C462.359,113.283,463.06,112.485,463.06,111.309z"/>
	<path fill="#435152" d="M470.255,114.698v-0.715c-0.462,0.561-1.261,0.883-2.144,0.883c-1.078,0-2.339-0.729-2.339-2.241
		c0-1.597,1.261-2.185,2.339-2.185c0.91,0,1.695,0.294,2.144,0.826v-0.854c0-0.687-0.589-1.135-1.485-1.135
		c-0.714,0-1.387,0.28-1.947,0.799l-0.699-1.247c0.826-0.742,1.891-1.064,2.955-1.064c1.555,0,2.97,0.616,2.97,2.563v4.37H470.255z
		 M470.255,113.073v-0.84c-0.294-0.393-0.854-0.603-1.429-0.603c-0.701,0-1.275,0.378-1.275,1.022s0.574,1.009,1.275,1.009
		C469.4,113.662,469.961,113.466,470.255,113.073z"/>
	<path fill="#435152" d="M473.654,116.436l0.799-1.275c0.546,0.589,1.274,0.827,2.115,0.827c0.854,0,1.877-0.364,1.877-1.737v-0.658
		c-0.533,0.672-1.261,1.051-2.102,1.051c-1.681,0-2.983-1.177-2.983-3.433c0-2.213,1.274-3.445,2.983-3.445
		c0.812,0,1.555,0.336,2.102,1.036v-0.868h1.779v6.317c0,2.563-1.99,3.193-3.656,3.193
		C475.42,117.443,474.509,117.178,473.654,116.436z M478.445,112.303v-2.199c-0.309-0.434-0.953-0.756-1.527-0.756
		c-1.022,0-1.723,0.7-1.723,1.862c0,1.163,0.7,1.863,1.723,1.863C477.492,113.073,478.137,112.737,478.445,112.303z"/>
	<path fill="#435152" d="M481.551,111.309c0-1.961,1.456-3.544,3.502-3.544c2.031,0,3.389,1.513,3.389,3.712v0.42h-5.028
		c0.126,0.827,0.799,1.513,1.947,1.513c0.574,0,1.358-0.237,1.793-0.658l0.798,1.177c-0.672,0.616-1.736,0.938-2.787,0.938
		C483.105,114.866,481.551,113.479,481.551,111.309z M485.053,109.222c-1.107,0-1.584,0.77-1.653,1.442h3.333
		C486.678,110.02,486.229,109.222,485.053,109.222z"/>
	<path fill="#435152" d="M488.802,116.449v-1.19h7.984v1.19H488.802z"/>
	<path fill="#435152" d="M497.033,113.815l0.771-1.288c0.504,0.476,1.498,0.938,2.339,0.938c0.771,0,1.135-0.294,1.135-0.715
		c0-1.106-4.007-0.196-4.007-2.857c0-1.135,0.98-2.129,2.773-2.129c1.135,0,2.046,0.392,2.719,0.925l-0.715,1.26
		c-0.406-0.42-1.177-0.784-2.004-0.784c-0.644,0-1.064,0.28-1.064,0.658c0,0.995,4.021,0.154,4.021,2.886
		c0,1.247-1.064,2.157-2.941,2.157C498.883,114.866,497.748,114.474,497.033,113.815z"/>
	<path fill="#435152" d="M504.664,113.003v-3.516h-1.12v-1.555h1.12v-1.849h1.779v1.849h1.373v1.555h-1.373v3.04
		c0,0.434,0.225,0.756,0.617,0.756c0.266,0,0.518-0.098,0.615-0.21l0.379,1.358c-0.267,0.238-0.742,0.435-1.484,0.435
		C505.323,114.866,504.664,114.222,504.664,113.003z"/>
	<path fill="#435152" d="M509.032,114.698v-6.766h1.779v0.91c0.49-0.588,1.316-1.078,2.157-1.078v1.736
		c-0.127-0.027-0.28-0.042-0.49-0.042c-0.588,0-1.373,0.337-1.667,0.771v4.469H509.032z"/>
	<path fill="#435152" d="M513.904,106.14c0-0.588,0.476-1.051,1.051-1.051c0.588,0,1.064,0.463,1.064,1.051
		s-0.477,1.064-1.064,1.064C514.38,107.204,513.904,106.728,513.904,106.14z M514.072,114.698v-6.766h1.779v6.766H514.072z"/>
	<path fill="#435152" d="M522.18,114.698v-4.09c0-0.938-0.49-1.261-1.246-1.261c-0.7,0-1.232,0.392-1.541,0.784v4.566h-1.779v-6.766
		h1.779v0.868c0.435-0.504,1.275-1.036,2.367-1.036c1.499,0,2.213,0.84,2.213,2.157v4.776H522.18z"/>
	<path fill="#435152" d="M525.58,116.436l0.799-1.275c0.545,0.589,1.273,0.827,2.114,0.827c0.854,0,1.878-0.364,1.878-1.737v-0.658
		c-0.533,0.672-1.262,1.051-2.102,1.051c-1.682,0-2.984-1.177-2.984-3.433c0-2.213,1.275-3.445,2.984-3.445
		c0.812,0,1.555,0.336,2.102,1.036v-0.868h1.778v6.317c0,2.563-1.989,3.193-3.656,3.193
		C527.345,117.443,526.434,117.178,525.58,116.436z M530.371,112.303v-2.199c-0.309-0.434-0.953-0.756-1.527-0.756
		c-1.023,0-1.723,0.7-1.723,1.862c0,1.163,0.699,1.863,1.723,1.863C529.418,113.073,530.062,112.737,530.371,112.303z"/>
</g>
<path fill="#E1EBEF" d="M82.8,71.562h138.4l-34.6,64.875H48.2L82.8,71.562z"/>
<g enable-background="new    ">
	<path fill="#435152" d="M102.257,101.5v-9.343h4.917c1.779,0,2.689,1.135,2.689,2.381c0,1.163-0.729,1.961-1.611,2.144
		c1.008,0.154,1.793,1.12,1.793,2.283c0,1.414-0.925,2.535-2.718,2.535H102.257z M107.832,94.889c0-0.574-0.42-0.98-1.093-0.98
		h-2.493v1.961h2.493C107.412,95.869,107.832,95.491,107.832,94.889z M108.014,98.685c0-0.589-0.42-1.064-1.19-1.064h-2.578v2.129
		h2.578C107.566,99.749,108.014,99.356,108.014,98.685z"/>
	<path fill="#435152" d="M116.063,101.5v-0.854c-0.462,0.504-1.274,1.022-2.381,1.022c-1.485,0-2.186-0.812-2.186-2.129v-4.805
		h1.779v4.104c0,0.938,0.49,1.246,1.247,1.246c0.686,0,1.232-0.378,1.541-0.771v-4.58h1.779v6.766H116.063z"/>
	<path fill="#435152" d="M124.169,101.5v-4.09c0-0.938-0.49-1.261-1.247-1.261c-0.7,0-1.232,0.392-1.541,0.784v4.566h-1.779v-6.766
		h1.779v0.868c0.434-0.504,1.274-1.036,2.367-1.036c1.499,0,2.213,0.84,2.213,2.157v4.776H124.169z"/>
	<path fill="#435152" d="M127.274,98.11c0-2.073,1.513-3.544,3.586-3.544c1.387,0,2.227,0.603,2.675,1.219l-1.163,1.093
		c-0.322-0.477-0.812-0.729-1.429-0.729c-1.079,0-1.835,0.784-1.835,1.961s0.756,1.975,1.835,1.975c0.616,0,1.106-0.28,1.429-0.742
		l1.163,1.093c-0.448,0.616-1.289,1.232-2.675,1.232C128.787,101.668,127.274,100.197,127.274,98.11z"/>
	<path fill="#435152" d="M139.275,101.5v-4.118c0-0.938-0.49-1.232-1.247-1.232c-0.7,0-1.247,0.392-1.541,0.784v4.566h-1.793v-9.343
		h1.793v3.445c0.435-0.504,1.261-1.036,2.368-1.036c1.484,0,2.199,0.812,2.199,2.129v4.805H139.275z"/>
	<path fill="#435152" d="M145.978,98.11c0-1.919,1.345-3.544,3.572-3.544c2.241,0,3.586,1.625,3.586,3.544s-1.345,3.558-3.586,3.558
		C147.323,101.668,145.978,100.029,145.978,98.11z M151.287,98.11c0-1.051-0.617-1.961-1.737-1.961c-1.106,0-1.723,0.91-1.723,1.961
		c0,1.064,0.616,1.975,1.723,1.975C150.67,100.085,151.287,99.175,151.287,98.11z"/>
	<path fill="#435152" d="M154.63,96.247c0,0-0.574-2.997-0.574-3.264c0-0.532,0.435-0.967,0.967-0.967
		c0.518,0,0.966,0.435,0.966,0.967c0,0.267-0.574,3.264-0.574,3.264H154.63z"/>
</g>
<g enable-background="new    ">
	<path fill="#435152" d="M86.359,117.417l0.771-1.288c0.504,0.476,1.499,0.938,2.339,0.938c0.771,0,1.135-0.294,1.135-0.715
		c0-1.106-4.006-0.196-4.006-2.857c0-1.135,0.98-2.129,2.773-2.129c1.135,0,2.045,0.392,2.718,0.925l-0.714,1.26
		c-0.406-0.42-1.177-0.784-2.003-0.784c-0.644,0-1.064,0.28-1.064,0.658c0,0.995,4.02,0.154,4.02,2.886
		c0,1.247-1.064,2.157-2.941,2.157C88.208,118.468,87.074,118.075,86.359,117.417z"/>
	<path fill="#435152" d="M98.192,118.3v-0.854c-0.462,0.504-1.274,1.022-2.381,1.022c-1.485,0-2.186-0.812-2.186-2.129v-4.805h1.779
		v4.104c0,0.938,0.49,1.246,1.247,1.246c0.687,0,1.232-0.378,1.541-0.771v-4.58h1.779v6.766H98.192z"/>
	<path fill="#435152" d="M103.511,117.432v3.445h-1.779v-9.343h1.779v0.854c0.518-0.658,1.261-1.022,2.087-1.022
		c1.737,0,2.998,1.288,2.998,3.544c0,2.255-1.261,3.558-2.998,3.558C104.799,118.468,104.071,118.132,103.511,117.432z
		 M106.76,114.91c0-1.163-0.7-1.961-1.723-1.961c-0.575,0-1.219,0.322-1.527,0.771v2.381c0.294,0.435,0.952,0.784,1.527,0.784
		C106.06,116.885,106.76,116.087,106.76,114.91z"/>
	<path fill="#435152" d="M109.459,114.91c0-1.961,1.457-3.544,3.502-3.544c2.031,0,3.39,1.513,3.39,3.712v0.42h-5.029
		c0.126,0.827,0.799,1.513,1.947,1.513c0.574,0,1.359-0.237,1.793-0.658l0.798,1.177c-0.672,0.616-1.737,0.938-2.788,0.938
		C111.014,118.468,109.459,117.081,109.459,114.91z M112.961,112.823c-1.106,0-1.583,0.77-1.653,1.442h3.333
		C114.586,113.621,114.138,112.823,112.961,112.823z"/>
	<path fill="#435152" d="M117.635,118.3v-6.766h1.779v0.91c0.49-0.588,1.316-1.078,2.157-1.078v1.736
		c-0.126-0.027-0.28-0.042-0.49-0.042c-0.588,0-1.373,0.337-1.667,0.771v4.469H117.635z"/>
	<path fill="#435152" d="M122.213,115.666v-1.513h3.362v1.513H122.213z"/>
	<path fill="#435152" d="M126.735,120.037l0.799-1.275c0.546,0.589,1.274,0.827,2.115,0.827c0.854,0,1.877-0.364,1.877-1.737v-0.658
		c-0.533,0.672-1.261,1.051-2.102,1.051c-1.681,0-2.983-1.177-2.983-3.433c0-2.213,1.275-3.445,2.983-3.445
		c0.812,0,1.555,0.336,2.102,1.036v-0.868h1.779v6.317c0,2.563-1.989,3.193-3.656,3.193
		C128.5,121.045,127.589,120.779,126.735,120.037z M131.526,115.904v-2.199c-0.309-0.434-0.953-0.756-1.527-0.756
		c-1.023,0-1.723,0.7-1.723,1.862c0,1.163,0.7,1.863,1.723,1.863C130.573,116.675,131.217,116.339,131.526,115.904z"/>
	<path fill="#435152" d="M135.065,118.3v-9.343h1.779v9.343H135.065z"/>
	<path fill="#435152" d="M138.173,114.91c0-1.919,1.345-3.544,3.572-3.544c2.241,0,3.586,1.625,3.586,3.544
		s-1.345,3.558-3.586,3.558C139.518,118.468,138.173,116.829,138.173,114.91z M143.482,114.91c0-1.051-0.617-1.961-1.737-1.961
		c-1.106,0-1.723,0.91-1.723,1.961c0,1.064,0.616,1.975,1.723,1.975C142.865,116.885,143.482,115.975,143.482,114.91z"/>
	<path fill="#435152" d="M146.657,118.3v-9.343h1.779v3.445c0.532-0.7,1.289-1.036,2.087-1.036c1.723,0,2.998,1.345,2.998,3.544
		c0,2.269-1.289,3.558-2.998,3.558c-0.812,0-1.555-0.364-2.087-1.036v0.868H146.657z M149.977,116.885
		c1.022,0,1.709-0.798,1.709-1.975c0-1.163-0.687-1.961-1.709-1.961c-0.588,0-1.232,0.336-1.541,0.784v2.396
		C148.744,116.562,149.388,116.885,149.977,116.885z"/>
	<path fill="#435152" d="M158.923,118.3v-0.715c-0.462,0.561-1.261,0.883-2.143,0.883c-1.079,0-2.339-0.729-2.339-2.241
		c0-1.597,1.261-2.185,2.339-2.185c0.91,0,1.695,0.294,2.143,0.826v-0.854c0-0.687-0.588-1.135-1.485-1.135
		c-0.714,0-1.387,0.28-1.947,0.799l-0.7-1.247c0.826-0.742,1.891-1.064,2.956-1.064c1.555,0,2.97,0.616,2.97,2.563v4.37H158.923z
		 M158.923,116.675v-0.84c-0.294-0.393-0.854-0.603-1.429-0.603c-0.701,0-1.275,0.378-1.275,1.022s0.574,1.009,1.275,1.009
		C158.069,117.264,158.629,117.067,158.923,116.675z"/>
	<path fill="#435152" d="M162.462,118.3v-9.343h1.779v9.343H162.462z"/>
	<path fill="#435152" d="M165.416,117.417l0.771-1.288c0.504,0.476,1.499,0.938,2.339,0.938c0.771,0,1.135-0.294,1.135-0.715
		c0-1.106-4.006-0.196-4.006-2.857c0-1.135,0.98-2.129,2.773-2.129c1.135,0,2.045,0.392,2.718,0.925l-0.714,1.26
		c-0.406-0.42-1.177-0.784-2.003-0.784c-0.644,0-1.064,0.28-1.064,0.658c0,0.995,4.02,0.154,4.02,2.886
		c0,1.247-1.064,2.157-2.941,2.157C167.265,118.468,166.131,118.075,165.416,117.417z"/>
</g>
<path fill="#E1EBEF" d="M264.8,135.579V73.42c0-4.289,17.405-7.77,38.85-7.77s38.85,3.48,38.85,7.77v62.159
	c0,4.29-17.404,7.771-38.85,7.771S264.8,139.869,264.8,135.579"/>
<path fill="none" stroke="#435152" stroke-linecap="round" stroke-linejoin="round" stroke-miterlimit="10" d="M264.8,135.579V73.42
	c0-4.289,17.405-7.77,38.85-7.77s38.85,3.48,38.85,7.77v62.159c0,4.29-17.404,7.771-38.85,7.771S264.8,139.869,264.8,135.579
	 M264.8,73.42c0,4.289,17.405,7.77,38.85,7.77s38.85-3.481,38.85-7.77"/>
<g enable-background="new    ">
	<path fill="#435152" d="M291.558,111.203v-9.343h4.371c2.031,0,3.138,1.372,3.138,3.012c0,1.624-1.121,2.997-3.138,2.997h-2.381
		v3.334H291.558z M297.035,104.872c0-0.785-0.602-1.261-1.387-1.261h-2.101v2.507h2.101
		C296.433,106.118,297.035,105.643,297.035,104.872z"/>
	<path fill="#435152" d="M306.709,111.203v-3.937h-4.412v3.937h-1.989v-9.343h1.989v3.67h4.412v-3.67h2.004v9.343H306.709z"/>
	<path fill="#435152" d="M310.541,111.203v-9.343h4.371c2.031,0,3.138,1.372,3.138,3.012c0,1.624-1.12,2.997-3.138,2.997h-2.381
		v3.334H310.541z M316.019,104.872c0-0.785-0.603-1.261-1.387-1.261h-2.101v2.507h2.101
		C315.416,106.118,316.019,105.643,316.019,104.872z"/>
</g>
<line fill="none" stroke="#E1EBEF" stroke-linecap="round" stroke-linejoin="round" stroke-miterlimit="10" x1="193.7" y1="104.5" x2="256.8" y2="104.5"/>
<path fill="#E1EBEF" d="M264.8,104.5l-8-3v6L264.8,104.5z"/>
<path fill="none" stroke="#E1EBEF" stroke-miterlimit="10" d="M264.8,104.5l-8-3v6L264.8,104.5z"/>
<line fill="none" stroke="#E1EBEF" stroke-linecap="round" stroke-linejoin="round" stroke-miterlimit="10" x1="342.5" y1="104.5" x2="389.6" y2="104.5"/>
<path fill="#E1EBEF" d="M397.6,104.5l-8-3v6L397.6,104.5z"/>
<path fill="none" stroke="#E1EBEF" stroke-miterlimit="10" d="M397.6,104.5l-8-3v6L397.6,104.5z"/>
</svg>
