<?xml version="1.0" encoding="utf-8"?>
<!-- Generator: Adobe Illustrator 16.0.0, SVG Export Plug-In . SVG Version: 6.00 Build 0)  -->
<!DOCTYPE svg PUBLIC "-//W3C//DTD SVG 1.1//EN" "http://www.w3.org/Graphics/SVG/1.1/DTD/svg11.dtd">
<svg version="1.1" id="Layer_1" xmlns="http://www.w3.org/2000/svg" xmlns:xlink="http://www.w3.org/1999/xlink" x="0px" y="0px"
	 width="921px" height="450px" viewBox="0 0 921 450" enable-background="new 0 0 921 450" xml:space="preserve">
<polygon fill="#DBE8EC" points="323.827,87.857 333.969,98 323.827,108.143 "/>
<polygon fill="#DBE8EC" points="478.295,126.857 488.438,137 478.295,147.143 "/>
<polygon fill="#DBE8EC" points="347.947,186.143 337.805,176 347.947,165.857 "/>
<polygon fill="#DBE8EC" points="347.947,303.143 337.805,293 347.947,282.857 "/>
<polygon fill="#DBE8EC" points="104.15,342.143 94.007,332 104.15,321.857 "/>
<polygon fill="#DBE8EC" points="104.15,385.143 94.007,375 104.15,364.857 "/>
<polygon fill="#DBE8EC" points="640.415,204.857 650.558,215 640.415,225.143 "/>
<polygon fill="#DBE8EC" points="807.347,243.857 817.489,254 807.347,264.143 "/>
<rect x="10" y="20" fill="#DBE8EC" width="166.141" height="39"/>
<g>
	<g enable-background="new    ">
		<path fill="#344041" d="M39.827,45L37.6,40.972h-1.768V45h-2.414V33.662h5.303c2.363,0,3.825,1.547,3.825,3.654
			c0,1.989-1.275,3.077-2.499,3.366L42.614,45H39.827z M40.064,37.3c0-0.935-0.731-1.513-1.683-1.513h-2.55v3.06h2.55
			C39.333,38.847,40.064,38.269,40.064,37.3z"/>
		<path fill="#344041" d="M43.261,40.887c0-2.329,1.632-4.301,4.334-4.301c2.72,0,4.352,1.972,4.352,4.301
			c0,2.328-1.632,4.317-4.352,4.317C44.893,45.204,43.261,43.215,43.261,40.887z M49.704,40.887c0-1.275-0.748-2.38-2.108-2.38
			c-1.343,0-2.091,1.104-2.091,2.38c0,1.292,0.748,2.396,2.091,2.396C48.956,43.283,49.704,42.179,49.704,40.887z"/>
		<path fill="#344041" d="M59.104,45v-1.037c-0.561,0.612-1.547,1.241-2.89,1.241c-1.802,0-2.652-0.986-2.652-2.584v-5.83h2.159
			v4.98c0,1.139,0.595,1.513,1.513,1.513c0.833,0,1.496-0.459,1.87-0.935V36.79h2.159V45H59.104z"/>
		<path fill="#344041" d="M63.848,42.943v-4.267h-1.36V36.79h1.36v-2.244h2.159v2.244h1.666v1.887h-1.666v3.688
			c0,0.527,0.272,0.918,0.748,0.918c0.323,0,0.629-0.119,0.748-0.255l0.459,1.648c-0.323,0.289-0.901,0.527-1.802,0.527
			C64.647,45.204,63.848,44.422,63.848,42.943z"/>
		<path fill="#344041" d="M68.948,34.614c0-0.714,0.578-1.275,1.275-1.275c0.714,0,1.292,0.562,1.292,1.275
			s-0.578,1.292-1.292,1.292C69.526,35.906,68.948,35.328,68.948,34.614z M69.152,45v-8.21h2.159V45H69.152z"/>
		<path fill="#344041" d="M78.994,45v-4.964c0-1.139-0.595-1.529-1.513-1.529c-0.85,0-1.496,0.476-1.87,0.952V45h-2.159v-8.21h2.159
			v1.054c0.527-0.612,1.547-1.258,2.873-1.258c1.819,0,2.686,1.02,2.686,2.617V45H78.994z"/>
		<path fill="#344041" d="M83.125,47.107l0.969-1.547c0.663,0.714,1.547,1.003,2.567,1.003c1.037,0,2.278-0.441,2.278-2.107v-0.799
			c-0.646,0.815-1.53,1.274-2.55,1.274c-2.04,0-3.621-1.428-3.621-4.164c0-2.686,1.547-4.182,3.621-4.182
			c0.986,0,1.887,0.408,2.55,1.258V36.79h2.159v7.666c0,3.11-2.414,3.876-4.437,3.876C85.267,48.332,84.163,48.009,83.125,47.107z
			 M88.939,42.094v-2.669c-0.374-0.527-1.156-0.918-1.853-0.918c-1.241,0-2.091,0.85-2.091,2.261s0.85,2.261,2.091,2.261
			C87.783,43.028,88.565,42.62,88.939,42.094z"/>
		<path fill="#344041" d="M93.189,45V33.662h2.431v9.213h4.793V45H93.189z"/>
		<path fill="#344041" d="M101.792,34.614c0-0.714,0.578-1.275,1.275-1.275c0.714,0,1.292,0.562,1.292,1.275
			s-0.578,1.292-1.292,1.292C102.37,35.906,101.792,35.328,101.792,34.614z M101.996,45v-8.21h2.159V45H101.996z"/>
		<path fill="#344041" d="M105.583,43.929l0.935-1.563c0.612,0.578,1.819,1.139,2.838,1.139c0.935,0,1.377-0.356,1.377-0.866
			c0-1.344-4.861-0.238-4.861-3.468c0-1.377,1.19-2.584,3.366-2.584c1.377,0,2.481,0.476,3.297,1.122l-0.867,1.529
			c-0.493-0.51-1.428-0.951-2.431-0.951c-0.782,0-1.292,0.34-1.292,0.799c0,1.206,4.878,0.187,4.878,3.501
			c0,1.513-1.292,2.618-3.569,2.618C107.826,45.204,106.45,44.729,105.583,43.929z"/>
		<path fill="#344041" d="M114.847,42.943v-4.267h-1.36V36.79h1.36v-2.244h2.159v2.244h1.666v1.887h-1.666v3.688
			c0,0.527,0.271,0.918,0.748,0.918c0.323,0,0.629-0.119,0.748-0.255l0.459,1.648c-0.323,0.289-0.901,0.527-1.802,0.527
			C115.646,45.204,114.847,44.422,114.847,42.943z"/>
		<path fill="#344041" d="M119.624,40.887c0-2.38,1.768-4.301,4.25-4.301c2.465,0,4.114,1.836,4.114,4.505v0.51h-6.103
			c0.153,1.003,0.969,1.836,2.363,1.836c0.697,0,1.649-0.289,2.176-0.799l0.969,1.428c-0.816,0.748-2.107,1.139-3.382,1.139
			C121.511,45.204,119.624,43.521,119.624,40.887z M123.874,38.354c-1.343,0-1.921,0.936-2.006,1.751h4.046
			C125.845,39.322,125.301,38.354,123.874,38.354z"/>
		<path fill="#344041" d="M135.093,45v-4.964c0-1.139-0.595-1.529-1.513-1.529c-0.85,0-1.496,0.476-1.87,0.952V45h-2.159v-8.21
			h2.159v1.054c0.527-0.612,1.547-1.258,2.873-1.258c1.819,0,2.686,1.02,2.686,2.617V45H135.093z"/>
		<path fill="#344041" d="M138.868,40.887c0-2.38,1.768-4.301,4.25-4.301c2.465,0,4.114,1.836,4.114,4.505v0.51h-6.103
			c0.153,1.003,0.969,1.836,2.363,1.836c0.697,0,1.649-0.289,2.176-0.799l0.969,1.428c-0.816,0.748-2.107,1.139-3.382,1.139
			C140.755,45.204,138.868,43.521,138.868,40.887z M143.118,38.354c-1.343,0-1.921,0.936-2.006,1.751h4.046
			C145.089,39.322,144.545,38.354,143.118,38.354z"/>
		<path fill="#344041" d="M148.796,45v-8.21h2.159v1.104c0.595-0.714,1.598-1.309,2.618-1.309v2.107
			c-0.153-0.034-0.34-0.051-0.595-0.051c-0.714,0-1.666,0.408-2.023,0.935V45H148.796z"/>
	</g>
</g>
<rect x="10" y="391" fill="#DBE8EC" width="166.141" height="39"/>
<g>
	<g enable-background="new    ">
		<path fill="#344041" d="M39.827,416l-2.227-4.028h-1.768V416h-2.414v-11.338h5.303c2.363,0,3.825,1.547,3.825,3.654
			c0,1.989-1.275,3.077-2.499,3.366L42.614,416H39.827z M40.064,408.3c0-0.935-0.731-1.513-1.683-1.513h-2.55v3.06h2.55
			C39.333,409.847,40.064,409.269,40.064,408.3z"/>
		<path fill="#344041" d="M43.261,411.887c0-2.329,1.632-4.301,4.334-4.301c2.72,0,4.352,1.972,4.352,4.301
			c0,2.328-1.632,4.317-4.352,4.317C44.893,416.204,43.261,414.215,43.261,411.887z M49.704,411.887c0-1.275-0.748-2.38-2.108-2.38
			c-1.343,0-2.091,1.104-2.091,2.38c0,1.292,0.748,2.396,2.091,2.396C48.956,414.283,49.704,413.179,49.704,411.887z"/>
		<path fill="#344041" d="M59.104,416v-1.037c-0.561,0.612-1.547,1.241-2.89,1.241c-1.802,0-2.652-0.986-2.652-2.584v-5.83h2.159
			v4.98c0,1.139,0.595,1.513,1.513,1.513c0.833,0,1.496-0.459,1.87-0.935v-5.559h2.159V416H59.104z"/>
		<path fill="#344041" d="M63.848,413.943v-4.267h-1.36v-1.887h1.36v-2.244h2.159v2.244h1.666v1.887h-1.666v3.688
			c0,0.527,0.272,0.918,0.748,0.918c0.323,0,0.629-0.119,0.748-0.255l0.459,1.648c-0.323,0.289-0.901,0.527-1.802,0.527
			C64.647,416.204,63.848,415.422,63.848,413.943z"/>
		<path fill="#344041" d="M68.948,405.614c0-0.714,0.578-1.275,1.275-1.275c0.714,0,1.292,0.562,1.292,1.275
			s-0.578,1.292-1.292,1.292C69.526,406.906,68.948,406.328,68.948,405.614z M69.152,416v-8.21h2.159V416H69.152z"/>
		<path fill="#344041" d="M78.994,416v-4.964c0-1.139-0.595-1.529-1.513-1.529c-0.85,0-1.496,0.476-1.87,0.952V416h-2.159v-8.21
			h2.159v1.054c0.527-0.612,1.547-1.258,2.873-1.258c1.819,0,2.686,1.02,2.686,2.617V416H78.994z"/>
		<path fill="#344041" d="M83.125,418.107l0.969-1.547c0.663,0.714,1.547,1.003,2.567,1.003c1.037,0,2.278-0.441,2.278-2.107v-0.799
			c-0.646,0.815-1.53,1.274-2.55,1.274c-2.04,0-3.621-1.428-3.621-4.164c0-2.686,1.547-4.182,3.621-4.182
			c0.986,0,1.887,0.408,2.55,1.258v-1.054h2.159v7.666c0,3.11-2.414,3.876-4.437,3.876
			C85.267,419.332,84.163,419.009,83.125,418.107z M88.939,413.094v-2.669c-0.374-0.527-1.156-0.918-1.853-0.918
			c-1.241,0-2.091,0.85-2.091,2.261s0.85,2.261,2.091,2.261C87.783,414.028,88.565,413.62,88.939,413.094z"/>
		<path fill="#344041" d="M93.189,416v-11.338h2.431v9.213h4.793V416H93.189z"/>
		<path fill="#344041" d="M101.792,405.614c0-0.714,0.578-1.275,1.275-1.275c0.714,0,1.292,0.562,1.292,1.275
			s-0.578,1.292-1.292,1.292C102.37,406.906,101.792,406.328,101.792,405.614z M101.996,416v-8.21h2.159V416H101.996z"/>
		<path fill="#344041" d="M105.583,414.929l0.935-1.563c0.612,0.578,1.819,1.139,2.838,1.139c0.935,0,1.377-0.356,1.377-0.866
			c0-1.344-4.861-0.238-4.861-3.468c0-1.377,1.19-2.584,3.366-2.584c1.377,0,2.481,0.476,3.297,1.122l-0.867,1.529
			c-0.493-0.51-1.428-0.951-2.431-0.951c-0.782,0-1.292,0.34-1.292,0.799c0,1.206,4.878,0.187,4.878,3.501
			c0,1.513-1.292,2.618-3.569,2.618C107.826,416.204,106.45,415.729,105.583,414.929z"/>
		<path fill="#344041" d="M114.847,413.943v-4.267h-1.36v-1.887h1.36v-2.244h2.159v2.244h1.666v1.887h-1.666v3.688
			c0,0.527,0.271,0.918,0.748,0.918c0.323,0,0.629-0.119,0.748-0.255l0.459,1.648c-0.323,0.289-0.901,0.527-1.802,0.527
			C115.646,416.204,114.847,415.422,114.847,413.943z"/>
		<path fill="#344041" d="M119.624,411.887c0-2.38,1.768-4.301,4.25-4.301c2.465,0,4.114,1.836,4.114,4.505v0.51h-6.103
			c0.153,1.003,0.969,1.836,2.363,1.836c0.697,0,1.649-0.289,2.176-0.799l0.969,1.428c-0.816,0.748-2.107,1.139-3.382,1.139
			C121.511,416.204,119.624,414.521,119.624,411.887z M123.874,409.354c-1.343,0-1.921,0.936-2.006,1.751h4.046
			C125.845,410.322,125.301,409.354,123.874,409.354z"/>
		<path fill="#344041" d="M135.093,416v-4.964c0-1.139-0.595-1.529-1.513-1.529c-0.85,0-1.496,0.476-1.87,0.952V416h-2.159v-8.21
			h2.159v1.054c0.527-0.612,1.547-1.258,2.873-1.258c1.819,0,2.686,1.02,2.686,2.617V416H135.093z"/>
		<path fill="#344041" d="M138.868,411.887c0-2.38,1.768-4.301,4.25-4.301c2.465,0,4.114,1.836,4.114,4.505v0.51h-6.103
			c0.153,1.003,0.969,1.836,2.363,1.836c0.697,0,1.649-0.289,2.176-0.799l0.969,1.428c-0.816,0.748-2.107,1.139-3.382,1.139
			C140.755,416.204,138.868,414.521,138.868,411.887z M143.118,409.354c-1.343,0-1.921,0.936-2.006,1.751h4.046
			C145.089,410.322,144.545,409.354,143.118,409.354z"/>
		<path fill="#344041" d="M148.796,416v-8.21h2.159v1.104c0.595-0.714,1.598-1.309,2.618-1.309v2.107
			c-0.153-0.034-0.34-0.051-0.595-0.051c-0.714,0-1.666,0.408-2.023,0.935V416H148.796z"/>
	</g>
</g>
<path fill="none" stroke="#DBE8EC" stroke-width="2" d="M93.07,59v332"/>
<rect x="273.016" y="20" fill="#DBE8EC" width="127.703" height="39"/>
<g>
	<g enable-background="new    ">
		<path fill="#344041" d="M289.327,39.34c0-3.502,2.635-5.864,6.051-5.864c2.482,0,3.927,1.343,4.726,2.771l-2.074,1.02
			c-0.476-0.918-1.496-1.648-2.652-1.648c-2.074,0-3.57,1.581-3.57,3.723s1.496,3.723,3.57,3.723c1.156,0,2.176-0.731,2.652-1.649
			l2.074,1.003c-0.799,1.411-2.244,2.788-4.726,2.788C291.962,45.204,289.327,42.824,289.327,39.34z"/>
		<path fill="#344041" d="M307.057,45v-4.997c0-1.14-0.595-1.496-1.513-1.496c-0.85,0-1.513,0.476-1.87,0.952V45h-2.176V33.662
			h2.176v4.182c0.527-0.612,1.53-1.258,2.873-1.258c1.802,0,2.669,0.985,2.669,2.584V45H307.057z"/>
		<path fill="#344041" d="M316.288,45v-0.867c-0.561,0.681-1.53,1.071-2.601,1.071c-1.309,0-2.839-0.884-2.839-2.72
			c0-1.938,1.53-2.652,2.839-2.652c1.104,0,2.057,0.357,2.601,1.003v-1.036c0-0.833-0.714-1.377-1.802-1.377
			c-0.867,0-1.683,0.34-2.363,0.969l-0.85-1.513c1.003-0.901,2.295-1.292,3.587-1.292c1.887,0,3.604,0.748,3.604,3.11V45H316.288z
			 M316.288,43.028v-1.021c-0.357-0.476-1.037-0.73-1.734-0.73c-0.85,0-1.547,0.459-1.547,1.241c0,0.781,0.697,1.224,1.547,1.224
			C315.251,43.742,315.931,43.504,316.288,43.028z"/>
		<path fill="#344041" d="M320.385,34.614c0-0.714,0.578-1.275,1.275-1.275c0.714,0,1.292,0.562,1.292,1.275
			s-0.578,1.292-1.292,1.292C320.963,35.906,320.385,35.328,320.385,34.614z M320.589,45v-8.21h2.159V45H320.589z"/>
		<path fill="#344041" d="M330.432,45v-4.964c0-1.139-0.595-1.529-1.513-1.529c-0.85,0-1.496,0.476-1.87,0.952V45h-2.159v-8.21
			h2.159v1.054c0.527-0.612,1.547-1.258,2.873-1.258c1.819,0,2.686,1.02,2.686,2.617V45H330.432z"/>
		<path fill="#344041" d="M341.193,45l-2.227-4.028h-1.768V45h-2.414V33.662h5.303c2.363,0,3.825,1.547,3.825,3.654
			c0,1.989-1.275,3.077-2.499,3.366L343.98,45H341.193z M341.431,37.3c0-0.935-0.731-1.513-1.683-1.513h-2.55v3.06h2.55
			C340.7,38.847,341.431,38.269,341.431,37.3z"/>
		<path fill="#344041" d="M344.627,40.887c0-2.329,1.632-4.301,4.334-4.301c2.72,0,4.352,1.972,4.352,4.301
			c0,2.328-1.632,4.317-4.352,4.317C346.259,45.204,344.627,43.215,344.627,40.887z M351.07,40.887c0-1.275-0.748-2.38-2.108-2.38
			c-1.343,0-2.091,1.104-2.091,2.38c0,1.292,0.748,2.396,2.091,2.396C350.322,43.283,351.07,42.179,351.07,40.887z"/>
		<path fill="#344041" d="M360.471,45v-1.037c-0.561,0.612-1.547,1.241-2.89,1.241c-1.802,0-2.652-0.986-2.652-2.584v-5.83h2.159
			v4.98c0,1.139,0.595,1.513,1.513,1.513c0.833,0,1.496-0.459,1.87-0.935V36.79h2.159V45H360.471z"/>
		<path fill="#344041" d="M365.214,42.943v-4.267h-1.36V36.79h1.36v-2.244h2.159v2.244h1.666v1.887h-1.666v3.688
			c0,0.527,0.271,0.918,0.748,0.918c0.323,0,0.629-0.119,0.748-0.255l0.459,1.648c-0.323,0.289-0.901,0.527-1.802,0.527
			C366.013,45.204,365.214,44.422,365.214,42.943z"/>
		<path fill="#344041" d="M369.991,40.887c0-2.38,1.768-4.301,4.25-4.301c2.465,0,4.114,1.836,4.114,4.505v0.51h-6.103
			c0.153,1.003,0.969,1.836,2.363,1.836c0.697,0,1.649-0.289,2.176-0.799l0.969,1.428c-0.816,0.748-2.107,1.139-3.382,1.139
			C371.878,45.204,369.991,43.521,369.991,40.887z M374.241,38.354c-1.343,0-1.921,0.936-2.006,1.751h4.046
			C376.212,39.322,375.668,38.354,374.241,38.354z"/>
		<path fill="#344041" d="M379.919,45v-8.21h2.159v1.104c0.595-0.714,1.598-1.309,2.618-1.309v2.107
			c-0.153-0.034-0.34-0.051-0.595-0.051c-0.714,0-1.666,0.408-2.023,0.935V45H379.919z"/>
	</g>
</g>
<rect x="273.016" y="391" fill="#DBE8EC" width="127.703" height="39"/>
<g>
	<g enable-background="new    ">
		<path fill="#344041" d="M289.327,410.34c0-3.502,2.635-5.864,6.051-5.864c2.482,0,3.927,1.343,4.726,2.771l-2.074,1.02
			c-0.476-0.918-1.496-1.648-2.652-1.648c-2.074,0-3.57,1.581-3.57,3.723s1.496,3.723,3.57,3.723c1.156,0,2.176-0.731,2.652-1.649
			l2.074,1.003c-0.799,1.411-2.244,2.788-4.726,2.788C291.962,416.204,289.327,413.824,289.327,410.34z"/>
		<path fill="#344041" d="M307.057,416v-4.997c0-1.14-0.595-1.496-1.513-1.496c-0.85,0-1.513,0.476-1.87,0.952V416h-2.176v-11.338
			h2.176v4.182c0.527-0.612,1.53-1.258,2.873-1.258c1.802,0,2.669,0.985,2.669,2.584V416H307.057z"/>
		<path fill="#344041" d="M316.288,416v-0.867c-0.561,0.681-1.53,1.071-2.601,1.071c-1.309,0-2.839-0.884-2.839-2.72
			c0-1.938,1.53-2.652,2.839-2.652c1.104,0,2.057,0.357,2.601,1.003v-1.036c0-0.833-0.714-1.377-1.802-1.377
			c-0.867,0-1.683,0.34-2.363,0.969l-0.85-1.513c1.003-0.901,2.295-1.292,3.587-1.292c1.887,0,3.604,0.748,3.604,3.11V416H316.288z
			 M316.288,414.028v-1.021c-0.357-0.476-1.037-0.73-1.734-0.73c-0.85,0-1.547,0.459-1.547,1.241c0,0.781,0.697,1.224,1.547,1.224
			C315.251,414.742,315.931,414.504,316.288,414.028z"/>
		<path fill="#344041" d="M320.385,405.614c0-0.714,0.578-1.275,1.275-1.275c0.714,0,1.292,0.562,1.292,1.275
			s-0.578,1.292-1.292,1.292C320.963,406.906,320.385,406.328,320.385,405.614z M320.589,416v-8.21h2.159V416H320.589z"/>
		<path fill="#344041" d="M330.432,416v-4.964c0-1.139-0.595-1.529-1.513-1.529c-0.85,0-1.496,0.476-1.87,0.952V416h-2.159v-8.21
			h2.159v1.054c0.527-0.612,1.547-1.258,2.873-1.258c1.819,0,2.686,1.02,2.686,2.617V416H330.432z"/>
		<path fill="#344041" d="M341.193,416l-2.227-4.028h-1.768V416h-2.414v-11.338h5.303c2.363,0,3.825,1.547,3.825,3.654
			c0,1.989-1.275,3.077-2.499,3.366L343.98,416H341.193z M341.431,408.3c0-0.935-0.731-1.513-1.683-1.513h-2.55v3.06h2.55
			C340.7,409.847,341.431,409.269,341.431,408.3z"/>
		<path fill="#344041" d="M344.627,411.887c0-2.329,1.632-4.301,4.334-4.301c2.72,0,4.352,1.972,4.352,4.301
			c0,2.328-1.632,4.317-4.352,4.317C346.259,416.204,344.627,414.215,344.627,411.887z M351.07,411.887
			c0-1.275-0.748-2.38-2.108-2.38c-1.343,0-2.091,1.104-2.091,2.38c0,1.292,0.748,2.396,2.091,2.396
			C350.322,414.283,351.07,413.179,351.07,411.887z"/>
		<path fill="#344041" d="M360.471,416v-1.037c-0.561,0.612-1.547,1.241-2.89,1.241c-1.802,0-2.652-0.986-2.652-2.584v-5.83h2.159
			v4.98c0,1.139,0.595,1.513,1.513,1.513c0.833,0,1.496-0.459,1.87-0.935v-5.559h2.159V416H360.471z"/>
		<path fill="#344041" d="M365.214,413.943v-4.267h-1.36v-1.887h1.36v-2.244h2.159v2.244h1.666v1.887h-1.666v3.688
			c0,0.527,0.271,0.918,0.748,0.918c0.323,0,0.629-0.119,0.748-0.255l0.459,1.648c-0.323,0.289-0.901,0.527-1.802,0.527
			C366.013,416.204,365.214,415.422,365.214,413.943z"/>
		<path fill="#344041" d="M369.991,411.887c0-2.38,1.768-4.301,4.25-4.301c2.465,0,4.114,1.836,4.114,4.505v0.51h-6.103
			c0.153,1.003,0.969,1.836,2.363,1.836c0.697,0,1.649-0.289,2.176-0.799l0.969,1.428c-0.816,0.748-2.107,1.139-3.382,1.139
			C371.878,416.204,369.991,414.521,369.991,411.887z M374.241,409.354c-1.343,0-1.921,0.936-2.006,1.751h4.046
			C376.212,410.322,375.668,409.354,374.241,409.354z"/>
		<path fill="#344041" d="M379.919,416v-8.21h2.159v1.104c0.595-0.714,1.598-1.309,2.618-1.309v2.107
			c-0.153-0.034-0.34-0.051-0.595-0.051c-0.714,0-1.666,0.408-2.023,0.935V416H379.919z"/>
	</g>
</g>
<path fill="none" stroke="#DBE8EC" stroke-width="2" d="M336.867,59v332"/>
<rect x="420.719" y="20" fill="#DBE8EC" width="137.312" height="39"/>
<g>
	<g enable-background="new    ">
		<path fill="#344041" d="M437.567,45V33.662h2.431v9.213h4.793V45H437.567z"/>
		<path fill="#344041" d="M445.66,40.887c0-2.38,1.768-4.301,4.25-4.301c2.465,0,4.114,1.836,4.114,4.505v0.51h-6.103
			c0.153,1.003,0.969,1.836,2.363,1.836c0.697,0,1.649-0.289,2.176-0.799l0.969,1.428c-0.816,0.748-2.107,1.139-3.382,1.139
			C447.546,45.204,445.66,43.521,445.66,40.887z M449.909,38.354c-1.343,0-1.921,0.936-2.006,1.751h4.046
			C451.881,39.322,451.337,38.354,449.909,38.354z"/>
		<path fill="#344041" d="M455.417,47.107l0.969-1.547c0.663,0.714,1.547,1.003,2.567,1.003c1.037,0,2.277-0.441,2.277-2.107v-0.799
			c-0.646,0.815-1.529,1.274-2.549,1.274c-2.04,0-3.621-1.428-3.621-4.164c0-2.686,1.547-4.182,3.621-4.182
			c0.986,0,1.887,0.408,2.549,1.258V36.79h2.159v7.666c0,3.11-2.414,3.876-4.437,3.876
			C457.559,48.332,456.455,48.009,455.417,47.107z M461.23,42.094v-2.669c-0.374-0.527-1.155-0.918-1.853-0.918
			c-1.241,0-2.091,0.85-2.091,2.261s0.85,2.261,2.091,2.261C460.075,43.028,460.857,42.62,461.23,42.094z"/>
		<path fill="#344041" d="M470.462,45v-0.867c-0.562,0.681-1.53,1.071-2.601,1.071c-1.309,0-2.839-0.884-2.839-2.72
			c0-1.938,1.53-2.652,2.839-2.652c1.104,0,2.057,0.357,2.601,1.003v-1.036c0-0.833-0.714-1.377-1.802-1.377
			c-0.867,0-1.684,0.34-2.363,0.969l-0.85-1.513c1.003-0.901,2.295-1.292,3.587-1.292c1.887,0,3.604,0.748,3.604,3.11V45H470.462z
			 M470.462,43.028v-1.021c-0.356-0.476-1.037-0.73-1.733-0.73c-0.851,0-1.547,0.459-1.547,1.241c0,0.781,0.696,1.224,1.547,1.224
			C469.425,43.742,470.105,43.504,470.462,43.028z"/>
		<path fill="#344041" d="M474.236,40.887c0-2.516,1.836-4.301,4.352-4.301c1.683,0,2.703,0.73,3.246,1.479l-1.41,1.326
			c-0.391-0.578-0.986-0.884-1.734-0.884c-1.309,0-2.227,0.952-2.227,2.38s0.918,2.396,2.227,2.396c0.748,0,1.344-0.34,1.734-0.901
			l1.41,1.326c-0.543,0.748-1.563,1.496-3.246,1.496C476.072,45.204,474.236,43.419,474.236,40.887z"/>
		<path fill="#344041" d="M483.28,46.274c0.187,0.085,0.476,0.137,0.68,0.137c0.562,0,0.935-0.153,1.14-0.595l0.305-0.715
			l-3.331-8.312h2.312l2.143,5.711l2.158-5.711h2.312l-3.859,9.553c-0.611,1.547-1.699,1.955-3.11,1.989
			c-0.238,0-0.8-0.052-1.054-0.137L483.28,46.274z"/>
		<path fill="#344041" d="M498.426,45l-2.227-4.028h-1.768V45h-2.414V33.662h5.304c2.362,0,3.825,1.547,3.825,3.654
			c0,1.989-1.275,3.077-2.5,3.366L501.214,45H498.426z M498.664,37.3c0-0.935-0.73-1.513-1.683-1.513h-2.55v3.06h2.55
			C497.934,38.847,498.664,38.269,498.664,37.3z"/>
		<path fill="#344041" d="M501.861,40.887c0-2.329,1.631-4.301,4.334-4.301c2.72,0,4.352,1.972,4.352,4.301
			c0,2.328-1.632,4.317-4.352,4.317C503.492,45.204,501.861,43.215,501.861,40.887z M508.303,40.887c0-1.275-0.748-2.38-2.107-2.38
			c-1.343,0-2.091,1.104-2.091,2.38c0,1.292,0.748,2.396,2.091,2.396C507.555,43.283,508.303,42.179,508.303,40.887z"/>
		<path fill="#344041" d="M517.704,45v-1.037c-0.562,0.612-1.547,1.241-2.89,1.241c-1.802,0-2.652-0.986-2.652-2.584v-5.83h2.159
			v4.98c0,1.139,0.595,1.513,1.513,1.513c0.834,0,1.496-0.459,1.87-0.935V36.79h2.159V45H517.704z"/>
		<path fill="#344041" d="M522.447,42.943v-4.267h-1.359V36.79h1.359v-2.244h2.158v2.244h1.666v1.887h-1.666v3.688
			c0,0.527,0.273,0.918,0.748,0.918c0.324,0,0.629-0.119,0.748-0.255l0.459,1.648c-0.322,0.289-0.9,0.527-1.801,0.527
			C523.246,45.204,522.447,44.422,522.447,42.943z"/>
		<path fill="#344041" d="M527.225,40.887c0-2.38,1.768-4.301,4.25-4.301c2.465,0,4.113,1.836,4.113,4.505v0.51h-6.103
			c0.153,1.003,0.969,1.836,2.362,1.836c0.697,0,1.649-0.289,2.176-0.799l0.969,1.428c-0.815,0.748-2.107,1.139-3.382,1.139
			C529.111,45.204,527.225,43.521,527.225,40.887z M531.475,38.354c-1.344,0-1.922,0.936-2.006,1.751h4.045
			C533.445,39.322,532.902,38.354,531.475,38.354z"/>
		<path fill="#344041" d="M537.152,45v-8.21h2.158v1.104c0.596-0.714,1.599-1.309,2.619-1.309v2.107
			c-0.154-0.034-0.341-0.051-0.596-0.051c-0.714,0-1.666,0.408-2.023,0.935V45H537.152z"/>
	</g>
</g>
<rect x="420.719" y="391" fill="#DBE8EC" width="137.312" height="39"/>
<g>
	<g enable-background="new    ">
		<path fill="#344041" d="M437.567,416v-11.338h2.431v9.213h4.793V416H437.567z"/>
		<path fill="#344041" d="M445.66,411.887c0-2.38,1.768-4.301,4.25-4.301c2.465,0,4.114,1.836,4.114,4.505v0.51h-6.103
			c0.153,1.003,0.969,1.836,2.363,1.836c0.697,0,1.649-0.289,2.176-0.799l0.969,1.428c-0.816,0.748-2.107,1.139-3.382,1.139
			C447.546,416.204,445.66,414.521,445.66,411.887z M449.909,409.354c-1.343,0-1.921,0.936-2.006,1.751h4.046
			C451.881,410.322,451.337,409.354,449.909,409.354z"/>
		<path fill="#344041" d="M455.417,418.107l0.969-1.547c0.663,0.714,1.547,1.003,2.567,1.003c1.037,0,2.277-0.441,2.277-2.107
			v-0.799c-0.646,0.815-1.529,1.274-2.549,1.274c-2.04,0-3.621-1.428-3.621-4.164c0-2.686,1.547-4.182,3.621-4.182
			c0.986,0,1.887,0.408,2.549,1.258v-1.054h2.159v7.666c0,3.11-2.414,3.876-4.437,3.876
			C457.559,419.332,456.455,419.009,455.417,418.107z M461.23,413.094v-2.669c-0.374-0.527-1.155-0.918-1.853-0.918
			c-1.241,0-2.091,0.85-2.091,2.261s0.85,2.261,2.091,2.261C460.075,414.028,460.857,413.62,461.23,413.094z"/>
		<path fill="#344041" d="M470.462,416v-0.867c-0.562,0.681-1.53,1.071-2.601,1.071c-1.309,0-2.839-0.884-2.839-2.72
			c0-1.938,1.53-2.652,2.839-2.652c1.104,0,2.057,0.357,2.601,1.003v-1.036c0-0.833-0.714-1.377-1.802-1.377
			c-0.867,0-1.684,0.34-2.363,0.969l-0.85-1.513c1.003-0.901,2.295-1.292,3.587-1.292c1.887,0,3.604,0.748,3.604,3.11V416H470.462z
			 M470.462,414.028v-1.021c-0.356-0.476-1.037-0.73-1.733-0.73c-0.851,0-1.547,0.459-1.547,1.241c0,0.781,0.696,1.224,1.547,1.224
			C469.425,414.742,470.105,414.504,470.462,414.028z"/>
		<path fill="#344041" d="M474.236,411.887c0-2.516,1.836-4.301,4.352-4.301c1.683,0,2.703,0.73,3.246,1.479l-1.41,1.326
			c-0.391-0.578-0.986-0.884-1.734-0.884c-1.309,0-2.227,0.952-2.227,2.38s0.918,2.396,2.227,2.396c0.748,0,1.344-0.34,1.734-0.901
			l1.41,1.326c-0.543,0.748-1.563,1.496-3.246,1.496C476.072,416.204,474.236,414.419,474.236,411.887z"/>
		<path fill="#344041" d="M483.28,417.274c0.187,0.085,0.476,0.137,0.68,0.137c0.562,0,0.935-0.153,1.14-0.595l0.305-0.715
			l-3.331-8.312h2.312l2.143,5.711l2.158-5.711h2.312l-3.859,9.553c-0.611,1.547-1.699,1.955-3.11,1.989
			c-0.238,0-0.8-0.052-1.054-0.137L483.28,417.274z"/>
		<path fill="#344041" d="M498.426,416l-2.227-4.028h-1.768V416h-2.414v-11.338h5.304c2.362,0,3.825,1.547,3.825,3.654
			c0,1.989-1.275,3.077-2.5,3.366l2.567,4.317H498.426z M498.664,408.3c0-0.935-0.73-1.513-1.683-1.513h-2.55v3.06h2.55
			C497.934,409.847,498.664,409.269,498.664,408.3z"/>
		<path fill="#344041" d="M501.861,411.887c0-2.329,1.631-4.301,4.334-4.301c2.72,0,4.352,1.972,4.352,4.301
			c0,2.328-1.632,4.317-4.352,4.317C503.492,416.204,501.861,414.215,501.861,411.887z M508.303,411.887
			c0-1.275-0.748-2.38-2.107-2.38c-1.343,0-2.091,1.104-2.091,2.38c0,1.292,0.748,2.396,2.091,2.396
			C507.555,414.283,508.303,413.179,508.303,411.887z"/>
		<path fill="#344041" d="M517.704,416v-1.037c-0.562,0.612-1.547,1.241-2.89,1.241c-1.802,0-2.652-0.986-2.652-2.584v-5.83h2.159
			v4.98c0,1.139,0.595,1.513,1.513,1.513c0.834,0,1.496-0.459,1.87-0.935v-5.559h2.159V416H517.704z"/>
		<path fill="#344041" d="M522.447,413.943v-4.267h-1.359v-1.887h1.359v-2.244h2.158v2.244h1.666v1.887h-1.666v3.688
			c0,0.527,0.273,0.918,0.748,0.918c0.324,0,0.629-0.119,0.748-0.255l0.459,1.648c-0.322,0.289-0.9,0.527-1.801,0.527
			C523.246,416.204,522.447,415.422,522.447,413.943z"/>
		<path fill="#344041" d="M527.225,411.887c0-2.38,1.768-4.301,4.25-4.301c2.465,0,4.113,1.836,4.113,4.505v0.51h-6.103
			c0.153,1.003,0.969,1.836,2.362,1.836c0.697,0,1.649-0.289,2.176-0.799l0.969,1.428c-0.815,0.748-2.107,1.139-3.382,1.139
			C529.111,416.204,527.225,414.521,527.225,411.887z M531.475,409.354c-1.344,0-1.922,0.936-2.006,1.751h4.045
			C533.445,410.322,532.902,409.354,531.475,409.354z"/>
		<path fill="#344041" d="M537.152,416v-8.21h2.158v1.104c0.596-0.714,1.599-1.309,2.619-1.309v2.107
			c-0.154-0.034-0.341-0.051-0.596-0.051c-0.714,0-1.666,0.408-2.023,0.935V416H537.152z"/>
	</g>
</g>
<path fill="none" stroke="#DBE8EC" stroke-width="2" d="M489.375,59v131.5"/>
<path fill="none" stroke="#DBE8EC" stroke-width="2" d="M489.375,284.5v109.25"/>
<path fill="none" stroke="#DBE8EC" stroke-width="2" d="M489.375,208.857v55.286"/>
<rect x="578.031" y="20" fill="#DBE8EC" width="146.922" height="39"/>
<g>
	<g enable-background="new    ">
		<path fill="#344041" d="M593.678,45V33.662h4.471c3.553,0,6.018,2.261,6.018,5.66c0,3.434-2.465,5.678-6,5.678H593.678z
			 M601.701,39.322c0-1.988-1.224-3.535-3.535-3.535h-2.074v7.088h2.057C600.393,42.875,601.701,41.261,601.701,39.322z"/>
		<path fill="#344041" d="M605.867,46.274c0.187,0.085,0.476,0.137,0.68,0.137c0.561,0,0.935-0.153,1.139-0.595l0.306-0.715
			l-3.331-8.312h2.312l2.142,5.711l2.158-5.711h2.312l-3.859,9.553c-0.611,1.547-1.699,1.955-3.109,1.989
			c-0.238,0-0.8-0.052-1.055-0.137L605.867,46.274z"/>
		<path fill="#344041" d="M620.096,45v-4.964c0-1.139-0.596-1.529-1.514-1.529c-0.85,0-1.496,0.476-1.869,0.952V45h-2.159v-8.21
			h2.159v1.054c0.527-0.612,1.547-1.258,2.873-1.258c1.818,0,2.686,1.02,2.686,2.617V45H620.096z"/>
		<path fill="#344041" d="M629.326,45v-0.867c-0.561,0.681-1.529,1.071-2.601,1.071c-1.31,0-2.839-0.884-2.839-2.72
			c0-1.938,1.529-2.652,2.839-2.652c1.104,0,2.057,0.357,2.601,1.003v-1.036c0-0.833-0.714-1.377-1.802-1.377
			c-0.867,0-1.683,0.34-2.362,0.969l-0.851-1.513c1.003-0.901,2.295-1.292,3.587-1.292c1.887,0,3.604,0.748,3.604,3.11V45H629.326z
			 M629.326,43.028v-1.021c-0.357-0.476-1.037-0.73-1.734-0.73c-0.85,0-1.547,0.459-1.547,1.241c0,0.781,0.697,1.224,1.547,1.224
			C628.289,43.742,628.969,43.504,629.326,43.028z"/>
		<path fill="#344041" d="M643.81,45v-5.185c0-0.765-0.34-1.309-1.224-1.309c-0.766,0-1.395,0.51-1.7,0.952V45h-2.176v-5.185
			c0-0.765-0.34-1.309-1.224-1.309c-0.748,0-1.377,0.51-1.7,0.952V45h-2.159v-8.21h2.159v1.054c0.356-0.476,1.429-1.258,2.687-1.258
			c1.206,0,1.988,0.561,2.277,1.479c0.476-0.73,1.563-1.479,2.821-1.479c1.513,0,2.414,0.799,2.414,2.481V45H643.81z"/>
		<path fill="#344041" d="M647.924,34.614c0-0.714,0.578-1.275,1.275-1.275c0.714,0,1.292,0.562,1.292,1.275
			s-0.578,1.292-1.292,1.292C648.502,35.906,647.924,35.328,647.924,34.614z M648.129,45v-8.21h2.158V45H648.129z"/>
		<path fill="#344041" d="M651.902,40.887c0-2.516,1.836-4.301,4.352-4.301c1.683,0,2.703,0.73,3.246,1.479l-1.41,1.326
			c-0.391-0.578-0.986-0.884-1.734-0.884c-1.309,0-2.227,0.952-2.227,2.38s0.918,2.396,2.227,2.396c0.748,0,1.344-0.34,1.734-0.901
			l1.41,1.326c-0.543,0.748-1.563,1.496-3.246,1.496C653.738,45.204,651.902,43.419,651.902,40.887z"/>
		<path fill="#344041" d="M667.371,45l-2.227-4.028h-1.768V45h-2.414V33.662h5.304c2.362,0,3.825,1.547,3.825,3.654
			c0,1.989-1.275,3.077-2.499,3.366L670.159,45H667.371z M667.609,37.3c0-0.935-0.73-1.513-1.683-1.513h-2.55v3.06h2.55
			C666.879,38.847,667.609,38.269,667.609,37.3z"/>
		<path fill="#344041" d="M670.807,40.887c0-2.329,1.631-4.301,4.334-4.301c2.72,0,4.352,1.972,4.352,4.301
			c0,2.328-1.632,4.317-4.352,4.317C672.438,45.204,670.807,43.215,670.807,40.887z M677.248,40.887c0-1.275-0.748-2.38-2.107-2.38
			c-1.343,0-2.091,1.104-2.091,2.38c0,1.292,0.748,2.396,2.091,2.396C676.5,43.283,677.248,42.179,677.248,40.887z"/>
		<path fill="#344041" d="M686.649,45v-1.037c-0.562,0.612-1.547,1.241-2.89,1.241c-1.802,0-2.652-0.986-2.652-2.584v-5.83h2.159
			v4.98c0,1.139,0.595,1.513,1.513,1.513c0.833,0,1.496-0.459,1.87-0.935V36.79h2.159V45H686.649z"/>
		<path fill="#344041" d="M691.393,42.943v-4.267h-1.359V36.79h1.359v-2.244h2.159v2.244h1.665v1.887h-1.665v3.688
			c0,0.527,0.271,0.918,0.747,0.918c0.324,0,0.629-0.119,0.748-0.255l0.459,1.648c-0.322,0.289-0.9,0.527-1.801,0.527
			C692.191,45.204,691.393,44.422,691.393,42.943z"/>
		<path fill="#344041" d="M696.17,40.887c0-2.38,1.768-4.301,4.25-4.301c2.465,0,4.113,1.836,4.113,4.505v0.51h-6.103
			c0.153,1.003,0.969,1.836,2.362,1.836c0.697,0,1.649-0.289,2.176-0.799l0.969,1.428c-0.815,0.748-2.107,1.139-3.382,1.139
			C698.057,45.204,696.17,43.521,696.17,40.887z M700.42,38.354c-1.344,0-1.922,0.936-2.006,1.751h4.045
			C702.391,39.322,701.848,38.354,700.42,38.354z"/>
		<path fill="#344041" d="M706.098,45v-8.21h2.158v1.104c0.596-0.714,1.599-1.309,2.618-1.309v2.107
			c-0.153-0.034-0.34-0.051-0.595-0.051c-0.714,0-1.666,0.408-2.023,0.935V45H706.098z"/>
	</g>
</g>
<rect x="578.031" y="391" fill="#DBE8EC" width="146.922" height="39"/>
<g>
	<g enable-background="new    ">
		<path fill="#344041" d="M593.678,416v-11.338h4.471c3.553,0,6.018,2.261,6.018,5.66c0,3.434-2.465,5.678-6,5.678H593.678z
			 M601.701,410.322c0-1.988-1.224-3.535-3.535-3.535h-2.074v7.088h2.057C600.393,413.875,601.701,412.261,601.701,410.322z"/>
		<path fill="#344041" d="M605.867,417.274c0.187,0.085,0.476,0.137,0.68,0.137c0.561,0,0.935-0.153,1.139-0.595l0.306-0.715
			l-3.331-8.312h2.312l2.142,5.711l2.158-5.711h2.312l-3.859,9.553c-0.611,1.547-1.699,1.955-3.109,1.989
			c-0.238,0-0.8-0.052-1.055-0.137L605.867,417.274z"/>
		<path fill="#344041" d="M620.096,416v-4.964c0-1.139-0.596-1.529-1.514-1.529c-0.85,0-1.496,0.476-1.869,0.952V416h-2.159v-8.21
			h2.159v1.054c0.527-0.612,1.547-1.258,2.873-1.258c1.818,0,2.686,1.02,2.686,2.617V416H620.096z"/>
		<path fill="#344041" d="M629.326,416v-0.867c-0.561,0.681-1.529,1.071-2.601,1.071c-1.31,0-2.839-0.884-2.839-2.72
			c0-1.938,1.529-2.652,2.839-2.652c1.104,0,2.057,0.357,2.601,1.003v-1.036c0-0.833-0.714-1.377-1.802-1.377
			c-0.867,0-1.683,0.34-2.362,0.969l-0.851-1.513c1.003-0.901,2.295-1.292,3.587-1.292c1.887,0,3.604,0.748,3.604,3.11V416H629.326z
			 M629.326,414.028v-1.021c-0.357-0.476-1.037-0.73-1.734-0.73c-0.85,0-1.547,0.459-1.547,1.241c0,0.781,0.697,1.224,1.547,1.224
			C628.289,414.742,628.969,414.504,629.326,414.028z"/>
		<path fill="#344041" d="M643.81,416v-5.185c0-0.765-0.34-1.309-1.224-1.309c-0.766,0-1.395,0.51-1.7,0.952V416h-2.176v-5.185
			c0-0.765-0.34-1.309-1.224-1.309c-0.748,0-1.377,0.51-1.7,0.952V416h-2.159v-8.21h2.159v1.054
			c0.356-0.476,1.429-1.258,2.687-1.258c1.206,0,1.988,0.561,2.277,1.479c0.476-0.73,1.563-1.479,2.821-1.479
			c1.513,0,2.414,0.799,2.414,2.481V416H643.81z"/>
		<path fill="#344041" d="M647.924,405.614c0-0.714,0.578-1.275,1.275-1.275c0.714,0,1.292,0.562,1.292,1.275
			s-0.578,1.292-1.292,1.292C648.502,406.906,647.924,406.328,647.924,405.614z M648.129,416v-8.21h2.158V416H648.129z"/>
		<path fill="#344041" d="M651.902,411.887c0-2.516,1.836-4.301,4.352-4.301c1.683,0,2.703,0.73,3.246,1.479l-1.41,1.326
			c-0.391-0.578-0.986-0.884-1.734-0.884c-1.309,0-2.227,0.952-2.227,2.38s0.918,2.396,2.227,2.396c0.748,0,1.344-0.34,1.734-0.901
			l1.41,1.326c-0.543,0.748-1.563,1.496-3.246,1.496C653.738,416.204,651.902,414.419,651.902,411.887z"/>
		<path fill="#344041" d="M667.371,416l-2.227-4.028h-1.768V416h-2.414v-11.338h5.304c2.362,0,3.825,1.547,3.825,3.654
			c0,1.989-1.275,3.077-2.499,3.366l2.566,4.317H667.371z M667.609,408.3c0-0.935-0.73-1.513-1.683-1.513h-2.55v3.06h2.55
			C666.879,409.847,667.609,409.269,667.609,408.3z"/>
		<path fill="#344041" d="M670.807,411.887c0-2.329,1.631-4.301,4.334-4.301c2.72,0,4.352,1.972,4.352,4.301
			c0,2.328-1.632,4.317-4.352,4.317C672.438,416.204,670.807,414.215,670.807,411.887z M677.248,411.887
			c0-1.275-0.748-2.38-2.107-2.38c-1.343,0-2.091,1.104-2.091,2.38c0,1.292,0.748,2.396,2.091,2.396
			C676.5,414.283,677.248,413.179,677.248,411.887z"/>
		<path fill="#344041" d="M686.649,416v-1.037c-0.562,0.612-1.547,1.241-2.89,1.241c-1.802,0-2.652-0.986-2.652-2.584v-5.83h2.159
			v4.98c0,1.139,0.595,1.513,1.513,1.513c0.833,0,1.496-0.459,1.87-0.935v-5.559h2.159V416H686.649z"/>
		<path fill="#344041" d="M691.393,413.943v-4.267h-1.359v-1.887h1.359v-2.244h2.159v2.244h1.665v1.887h-1.665v3.688
			c0,0.527,0.271,0.918,0.747,0.918c0.324,0,0.629-0.119,0.748-0.255l0.459,1.648c-0.322,0.289-0.9,0.527-1.801,0.527
			C692.191,416.204,691.393,415.422,691.393,413.943z"/>
		<path fill="#344041" d="M696.17,411.887c0-2.38,1.768-4.301,4.25-4.301c2.465,0,4.113,1.836,4.113,4.505v0.51h-6.103
			c0.153,1.003,0.969,1.836,2.362,1.836c0.697,0,1.649-0.289,2.176-0.799l0.969,1.428c-0.815,0.748-2.107,1.139-3.382,1.139
			C698.057,416.204,696.17,414.521,696.17,411.887z M700.42,409.354c-1.344,0-1.922,0.936-2.006,1.751h4.045
			C702.391,410.322,701.848,409.354,700.42,409.354z"/>
		<path fill="#344041" d="M706.098,416v-8.21h2.158v1.104c0.596-0.714,1.599-1.309,2.618-1.309v2.107
			c-0.153-0.034-0.34-0.051-0.595-0.051c-0.714,0-1.666,0.408-2.023,0.935V416H706.098z"/>
	</g>
</g>
<path fill="none" stroke="#DBE8EC" stroke-width="2" d="M651.492,59v332"/>
<rect x="744.953" y="20" fill="#DBE8EC" width="146.922" height="39"/>
<g>
	<g enable-background="new    ">
		<path fill="#344041" d="M768.162,45l-5.406-7.395V45h-2.413V33.662h2.481l5.252,7.122v-7.122h2.414V45H768.162z"/>
		<path fill="#344041" d="M772.157,40.887c0-2.38,1.768-4.301,4.249-4.301c2.465,0,4.114,1.836,4.114,4.505v0.51h-6.103
			c0.152,1.003,0.969,1.836,2.363,1.836c0.696,0,1.648-0.289,2.176-0.799l0.969,1.428c-0.816,0.748-2.107,1.139-3.383,1.139
			C774.044,45.204,772.157,43.521,772.157,40.887z M776.406,38.354c-1.342,0-1.92,0.936-2.006,1.751h4.047
			C778.379,39.322,777.834,38.354,776.406,38.354z"/>
		<path fill="#344041" d="M781.371,43.929l0.936-1.563c0.611,0.578,1.818,1.139,2.838,1.139c0.936,0,1.377-0.356,1.377-0.866
			c0-1.344-4.861-0.238-4.861-3.468c0-1.377,1.19-2.584,3.366-2.584c1.377,0,2.481,0.476,3.298,1.122l-0.867,1.529
			c-0.493-0.51-1.428-0.951-2.431-0.951c-0.782,0-1.292,0.34-1.292,0.799c0,1.206,4.879,0.187,4.879,3.501
			c0,1.513-1.293,2.618-3.57,2.618C783.615,45.204,782.238,44.729,781.371,43.929z"/>
		<path fill="#344041" d="M790.636,42.943v-4.267h-1.36V36.79h1.36v-2.244h2.159v2.244h1.666v1.887h-1.666v3.688
			c0,0.527,0.271,0.918,0.748,0.918c0.322,0,0.629-0.119,0.748-0.255l0.459,1.648c-0.323,0.289-0.901,0.527-1.803,0.527
			C791.435,45.204,790.636,44.422,790.636,42.943z"/>
		<path fill="#344041" d="M795.413,40.887c0-2.38,1.768-4.301,4.249-4.301c2.465,0,4.114,1.836,4.114,4.505v0.51h-6.103
			c0.152,1.003,0.969,1.836,2.363,1.836c0.696,0,1.648-0.289,2.176-0.799l0.969,1.428c-0.816,0.748-2.107,1.139-3.383,1.139
			C797.3,45.204,795.413,43.521,795.413,40.887z M799.662,38.354c-1.342,0-1.92,0.936-2.006,1.751h4.047
			C801.635,39.322,801.09,38.354,799.662,38.354z"/>
		<path fill="#344041" d="M810.984,45v-1.054c-0.646,0.815-1.529,1.258-2.533,1.258c-2.057,0-3.637-1.563-3.637-4.317
			c0-2.669,1.547-4.301,3.637-4.301c0.969,0,1.887,0.408,2.533,1.258v-4.182h2.176V45H810.984z M810.984,42.349v-2.907
			c-0.357-0.544-1.139-0.935-1.854-0.935c-1.24,0-2.09,0.969-2.09,2.38c0,1.428,0.85,2.396,2.09,2.396
			C809.846,43.283,810.627,42.893,810.984,42.349z"/>
		<path fill="#344041" d="M825.213,45v-8.176L822.018,45h-1.055l-3.195-8.176V45h-2.414V33.662h3.383l2.754,7.088l2.754-7.088h3.399
			V45H825.213z"/>
		<path fill="#344041" d="M834.768,45v-0.867c-0.561,0.681-1.529,1.071-2.601,1.071c-1.31,0-2.839-0.884-2.839-2.72
			c0-1.938,1.529-2.652,2.839-2.652c1.104,0,2.057,0.357,2.601,1.003v-1.036c0-0.833-0.714-1.377-1.802-1.377
			c-0.867,0-1.683,0.34-2.362,0.969l-0.851-1.513c1.003-0.901,2.295-1.292,3.587-1.292c1.887,0,3.604,0.748,3.604,3.11V45H834.768z
			 M834.768,43.028v-1.021c-0.357-0.476-1.037-0.73-1.734-0.73c-0.85,0-1.547,0.459-1.547,1.241c0,0.781,0.697,1.224,1.547,1.224
			C833.73,43.742,834.41,43.504,834.768,43.028z"/>
		<path fill="#344041" d="M839.511,42.943v-4.267h-1.36V36.79h1.36v-2.244h2.159v2.244h1.666v1.887h-1.666v3.688
			c0,0.527,0.271,0.918,0.748,0.918c0.322,0,0.629-0.119,0.748-0.255l0.459,1.648c-0.323,0.289-0.901,0.527-1.803,0.527
			C840.31,45.204,839.511,44.422,839.511,42.943z"/>
		<path fill="#344041" d="M844.288,40.887c0-2.516,1.836-4.301,4.352-4.301c1.683,0,2.702,0.73,3.247,1.479l-1.411,1.326
			c-0.392-0.578-0.985-0.884-1.733-0.884c-1.31,0-2.228,0.952-2.228,2.38s0.918,2.396,2.228,2.396c0.748,0,1.342-0.34,1.733-0.901
			l1.411,1.326c-0.545,0.748-1.564,1.496-3.247,1.496C846.124,45.204,844.288,43.419,844.288,40.887z"/>
		<path fill="#344041" d="M858.855,45v-4.997c0-1.14-0.595-1.496-1.512-1.496c-0.851,0-1.514,0.476-1.871,0.952V45h-2.176V33.662
			h2.176v4.182c0.527-0.612,1.53-1.258,2.873-1.258c1.803,0,2.669,0.985,2.669,2.584V45H858.855z"/>
		<path fill="#344041" d="M862.631,40.887c0-2.38,1.768-4.301,4.249-4.301c2.465,0,4.114,1.836,4.114,4.505v0.51h-6.104
			c0.153,1.003,0.969,1.836,2.363,1.836c0.697,0,1.648-0.289,2.176-0.799l0.969,1.428c-0.816,0.748-2.107,1.139-3.383,1.139
			C864.518,45.204,862.631,43.521,862.631,40.887z M866.88,38.354c-1.343,0-1.921,0.936-2.006,1.751h4.046
			C868.852,39.322,868.308,38.354,866.88,38.354z"/>
		<path fill="#344041" d="M872.559,45v-8.21h2.158v1.104c0.596-0.714,1.598-1.309,2.618-1.309v2.107
			c-0.153-0.034-0.341-0.051-0.595-0.051c-0.715,0-1.666,0.408-2.023,0.935V45H872.559z"/>
	</g>
</g>
<rect x="744.953" y="391" fill="#DBE8EC" width="146.922" height="39"/>
<g>
	<g enable-background="new    ">
		<path fill="#344041" d="M768.162,416l-5.406-7.395V416h-2.413v-11.338h2.481l5.252,7.122v-7.122h2.414V416H768.162z"/>
		<path fill="#344041" d="M772.157,411.887c0-2.38,1.768-4.301,4.249-4.301c2.465,0,4.114,1.836,4.114,4.505v0.51h-6.103
			c0.152,1.003,0.969,1.836,2.363,1.836c0.696,0,1.648-0.289,2.176-0.799l0.969,1.428c-0.816,0.748-2.107,1.139-3.383,1.139
			C774.044,416.204,772.157,414.521,772.157,411.887z M776.406,409.354c-1.342,0-1.92,0.936-2.006,1.751h4.047
			C778.379,410.322,777.834,409.354,776.406,409.354z"/>
		<path fill="#344041" d="M781.371,414.929l0.936-1.563c0.611,0.578,1.818,1.139,2.838,1.139c0.936,0,1.377-0.356,1.377-0.866
			c0-1.344-4.861-0.238-4.861-3.468c0-1.377,1.19-2.584,3.366-2.584c1.377,0,2.481,0.476,3.298,1.122l-0.867,1.529
			c-0.493-0.51-1.428-0.951-2.431-0.951c-0.782,0-1.292,0.34-1.292,0.799c0,1.206,4.879,0.187,4.879,3.501
			c0,1.513-1.293,2.618-3.57,2.618C783.615,416.204,782.238,415.729,781.371,414.929z"/>
		<path fill="#344041" d="M790.636,413.943v-4.267h-1.36v-1.887h1.36v-2.244h2.159v2.244h1.666v1.887h-1.666v3.688
			c0,0.527,0.271,0.918,0.748,0.918c0.322,0,0.629-0.119,0.748-0.255l0.459,1.648c-0.323,0.289-0.901,0.527-1.803,0.527
			C791.435,416.204,790.636,415.422,790.636,413.943z"/>
		<path fill="#344041" d="M795.413,411.887c0-2.38,1.768-4.301,4.249-4.301c2.465,0,4.114,1.836,4.114,4.505v0.51h-6.103
			c0.152,1.003,0.969,1.836,2.363,1.836c0.696,0,1.648-0.289,2.176-0.799l0.969,1.428c-0.816,0.748-2.107,1.139-3.383,1.139
			C797.3,416.204,795.413,414.521,795.413,411.887z M799.662,409.354c-1.342,0-1.92,0.936-2.006,1.751h4.047
			C801.635,410.322,801.09,409.354,799.662,409.354z"/>
		<path fill="#344041" d="M810.984,416v-1.054c-0.646,0.815-1.529,1.258-2.533,1.258c-2.057,0-3.637-1.563-3.637-4.317
			c0-2.669,1.547-4.301,3.637-4.301c0.969,0,1.887,0.408,2.533,1.258v-4.182h2.176V416H810.984z M810.984,413.349v-2.907
			c-0.357-0.544-1.139-0.935-1.854-0.935c-1.24,0-2.09,0.969-2.09,2.38c0,1.428,0.85,2.396,2.09,2.396
			C809.846,414.283,810.627,413.893,810.984,413.349z"/>
		<path fill="#344041" d="M825.213,416v-8.176L822.018,416h-1.055l-3.195-8.176V416h-2.414v-11.338h3.383l2.754,7.088l2.754-7.088
			h3.399V416H825.213z"/>
		<path fill="#344041" d="M834.768,416v-0.867c-0.561,0.681-1.529,1.071-2.601,1.071c-1.31,0-2.839-0.884-2.839-2.72
			c0-1.938,1.529-2.652,2.839-2.652c1.104,0,2.057,0.357,2.601,1.003v-1.036c0-0.833-0.714-1.377-1.802-1.377
			c-0.867,0-1.683,0.34-2.362,0.969l-0.851-1.513c1.003-0.901,2.295-1.292,3.587-1.292c1.887,0,3.604,0.748,3.604,3.11V416H834.768z
			 M834.768,414.028v-1.021c-0.357-0.476-1.037-0.73-1.734-0.73c-0.85,0-1.547,0.459-1.547,1.241c0,0.781,0.697,1.224,1.547,1.224
			C833.73,414.742,834.41,414.504,834.768,414.028z"/>
		<path fill="#344041" d="M839.511,413.943v-4.267h-1.36v-1.887h1.36v-2.244h2.159v2.244h1.666v1.887h-1.666v3.688
			c0,0.527,0.271,0.918,0.748,0.918c0.322,0,0.629-0.119,0.748-0.255l0.459,1.648c-0.323,0.289-0.901,0.527-1.803,0.527
			C840.31,416.204,839.511,415.422,839.511,413.943z"/>
		<path fill="#344041" d="M844.288,411.887c0-2.516,1.836-4.301,4.352-4.301c1.683,0,2.702,0.73,3.247,1.479l-1.411,1.326
			c-0.392-0.578-0.985-0.884-1.733-0.884c-1.31,0-2.228,0.952-2.228,2.38s0.918,2.396,2.228,2.396c0.748,0,1.342-0.34,1.733-0.901
			l1.411,1.326c-0.545,0.748-1.564,1.496-3.247,1.496C846.124,416.204,844.288,414.419,844.288,411.887z"/>
		<path fill="#344041" d="M858.855,416v-4.997c0-1.14-0.595-1.496-1.512-1.496c-0.851,0-1.514,0.476-1.871,0.952V416h-2.176v-11.338
			h2.176v4.182c0.527-0.612,1.53-1.258,2.873-1.258c1.803,0,2.669,0.985,2.669,2.584V416H858.855z"/>
		<path fill="#344041" d="M862.631,411.887c0-2.38,1.768-4.301,4.249-4.301c2.465,0,4.114,1.836,4.114,4.505v0.51h-6.104
			c0.153,1.003,0.969,1.836,2.363,1.836c0.697,0,1.648-0.289,2.176-0.799l0.969,1.428c-0.816,0.748-2.107,1.139-3.383,1.139
			C864.518,416.204,862.631,414.521,862.631,411.887z M866.88,409.354c-1.343,0-1.921,0.936-2.006,1.751h4.046
			C868.852,410.322,868.308,409.354,866.88,409.354z"/>
		<path fill="#344041" d="M872.559,416v-8.21h2.158v1.104c0.596-0.714,1.598-1.309,2.618-1.309v2.107
			c-0.153-0.034-0.341-0.051-0.595-0.051c-0.715,0-1.666,0.408-2.023,0.935V416H872.559z"/>
	</g>
</g>
<path fill="none" stroke="#DBE8EC" stroke-width="2" d="M818.414,59v332"/>
<g>
	<g enable-background="new    ">
		<path fill="#DBE8EC" d="M188.717,89.5v-5.794c0-0.855-0.38-1.463-1.368-1.463c-0.855,0-1.558,0.569-1.9,1.063V89.5h-2.432v-5.794
			c0-0.855-0.38-1.463-1.368-1.463c-0.836,0-1.539,0.569-1.9,1.063V89.5h-2.413v-9.176h2.413v1.178
			c0.399-0.531,1.596-1.405,3.001-1.405c1.349,0,2.223,0.627,2.546,1.652c0.532-0.816,1.748-1.652,3.153-1.652
			c1.691,0,2.698,0.893,2.698,2.773v6.63H188.717z"/>
		<path fill="#DBE8EC" d="M199.054,89.5v-0.969c-0.627,0.76-1.71,1.196-2.907,1.196c-1.463,0-3.172-0.987-3.172-3.039
			c0-2.166,1.709-2.964,3.172-2.964c1.235,0,2.299,0.399,2.907,1.121v-1.159c0-0.931-0.798-1.538-2.014-1.538
			c-0.969,0-1.881,0.38-2.641,1.082l-0.95-1.69c1.121-1.007,2.564-1.443,4.008-1.443c2.108,0,4.027,0.836,4.027,3.477V89.5H199.054z
			 M199.054,87.296v-1.14c-0.399-0.531-1.159-0.816-1.938-0.816c-0.95,0-1.729,0.513-1.729,1.387s0.779,1.367,1.729,1.367
			C197.896,88.094,198.655,87.828,199.054,87.296z"/>
		<path fill="#DBE8EC" d="M204.356,87.201v-4.769h-1.52v-2.108h1.52v-2.508h2.413v2.508h1.862v2.108h-1.862v4.123
			c0,0.589,0.304,1.025,0.836,1.025c0.361,0,0.703-0.133,0.835-0.285l0.513,1.843c-0.361,0.323-1.007,0.589-2.014,0.589
			C205.249,89.728,204.356,88.854,204.356,87.201z"/>
		<path fill="#DBE8EC" d="M209.695,84.902c0-2.812,2.052-4.806,4.863-4.806c1.881,0,3.021,0.816,3.628,1.652l-1.577,1.481
			c-0.437-0.646-1.102-0.987-1.938-0.987c-1.462,0-2.488,1.063-2.488,2.659s1.026,2.679,2.488,2.679c0.836,0,1.501-0.38,1.938-1.007
			l1.577,1.482c-0.608,0.836-1.748,1.671-3.628,1.671C211.747,89.728,209.695,87.733,209.695,84.902z"/>
		<path fill="#DBE8EC" d="M225.977,89.5v-5.585c0-1.273-0.665-1.672-1.69-1.672c-0.95,0-1.691,0.532-2.09,1.063V89.5h-2.432V76.829
			h2.432v4.673c0.589-0.684,1.71-1.405,3.21-1.405c2.014,0,2.983,1.102,2.983,2.888V89.5H225.977z"/>
		<path fill="#DBE8EC" d="M233.387,93.28c-1.862-2.07-3.021-5.338-3.021-8.396s1.159-6.326,3.021-8.396l1.501,1.14
			c-1.273,2.317-1.919,4.407-1.919,7.257c0,2.83,0.646,4.939,1.919,7.219L233.387,93.28z"/>
		<path fill="#DBE8EC" d="M240.455,92.103c1.292-2.279,1.919-4.389,1.919-7.219c0-2.85-0.627-4.939-1.919-7.257l1.501-1.14
			c1.862,2.07,3.04,5.338,3.04,8.396s-1.178,6.326-3.04,8.396L240.455,92.103z"/>
	</g>
</g>
<g>
	<g enable-background="new    ">
		<path fill="#DBE8EC" d="M386.469,128.5v-5.794c0-0.855-0.38-1.463-1.368-1.463c-0.855,0-1.558,0.569-1.9,1.063v6.193h-2.432
			v-5.794c0-0.855-0.38-1.463-1.368-1.463c-0.836,0-1.539,0.569-1.9,1.063v6.193h-2.413v-9.176h2.413v1.178
			c0.399-0.531,1.596-1.405,3.001-1.405c1.349,0,2.223,0.627,2.546,1.652c0.532-0.816,1.748-1.652,3.153-1.652
			c1.691,0,2.698,0.893,2.698,2.773v6.63H386.469z"/>
		<path fill="#DBE8EC" d="M396.806,128.5v-0.969c-0.627,0.76-1.71,1.196-2.907,1.196c-1.463,0-3.172-0.987-3.172-3.039
			c0-2.166,1.709-2.964,3.172-2.964c1.235,0,2.299,0.399,2.907,1.121v-1.159c0-0.931-0.798-1.538-2.014-1.538
			c-0.969,0-1.881,0.38-2.641,1.082l-0.95-1.69c1.121-1.007,2.564-1.443,4.008-1.443c2.108,0,4.027,0.836,4.027,3.477v5.927H396.806
			z M396.806,126.296v-1.14c-0.399-0.531-1.159-0.816-1.938-0.816c-0.95,0-1.729,0.513-1.729,1.387s0.779,1.367,1.729,1.367
			C395.647,127.094,396.407,126.828,396.806,126.296z"/>
		<path fill="#DBE8EC" d="M402.107,126.201v-4.769h-1.52v-2.108h1.52v-2.508h2.413v2.508h1.862v2.108h-1.862v4.123
			c0,0.589,0.304,1.025,0.836,1.025c0.361,0,0.703-0.133,0.835-0.285l0.513,1.843c-0.361,0.323-1.007,0.589-2.014,0.589
			C403,128.728,402.107,127.854,402.107,126.201z"/>
		<path fill="#DBE8EC" d="M407.446,123.902c0-2.812,2.052-4.806,4.863-4.806c1.881,0,3.021,0.816,3.628,1.652l-1.577,1.481
			c-0.437-0.646-1.102-0.987-1.938-0.987c-1.462,0-2.488,1.063-2.488,2.659s1.026,2.679,2.488,2.679c0.836,0,1.501-0.38,1.938-1.007
			l1.577,1.482c-0.608,0.836-1.748,1.671-3.628,1.671C409.498,128.728,407.446,126.733,407.446,123.902z"/>
		<path fill="#DBE8EC" d="M423.728,128.5v-5.585c0-1.273-0.665-1.672-1.69-1.672c-0.95,0-1.691,0.532-2.09,1.063v6.193h-2.432
			v-12.671h2.432v4.673c0.589-0.684,1.71-1.405,3.21-1.405c2.014,0,2.983,1.102,2.983,2.888v6.516H423.728z"/>
		<path fill="#DBE8EC" d="M431.138,132.28c-1.862-2.07-3.021-5.338-3.021-8.396s1.159-6.326,3.021-8.396l1.501,1.14
			c-1.273,2.317-1.919,4.407-1.919,7.257c0,2.83,0.646,4.939,1.919,7.219L431.138,132.28z"/>
		<path fill="#DBE8EC" d="M438.207,131.103c1.292-2.279,1.919-4.389,1.919-7.219c0-2.85-0.627-4.939-1.919-7.257l1.501-1.14
			c1.862,2.07,3.04,5.338,3.04,8.396s-1.178,6.326-3.04,8.396L438.207,131.103z"/>
	</g>
</g>
<g>
	<g enable-background="new    ">
		<path fill="#DBE8EC" d="M408.697,167.5l-6.042-8.264v8.264h-2.697v-12.671h2.773l5.87,7.96v-7.96h2.698V167.5H408.697z"/>
		<path fill="#DBE8EC" d="M413.163,162.902c0-2.603,1.824-4.806,4.844-4.806c3.04,0,4.863,2.203,4.863,4.806
			s-1.824,4.825-4.863,4.825C414.986,167.728,413.163,165.505,413.163,162.902z M420.362,162.902c0-1.425-0.835-2.659-2.355-2.659
			c-1.501,0-2.336,1.234-2.336,2.659c0,1.444,0.835,2.679,2.336,2.679C419.527,165.581,420.362,164.347,420.362,162.902z"/>
		<path fill="#DBE8EC" d="M427.089,166.322v4.673h-2.413v-12.671h2.413v1.159c0.703-0.894,1.71-1.387,2.831-1.387
			c2.356,0,4.065,1.747,4.065,4.806s-1.709,4.825-4.065,4.825C428.837,167.728,427.849,167.272,427.089,166.322z M431.497,162.902
			c0-1.576-0.95-2.659-2.336-2.659c-0.779,0-1.653,0.437-2.071,1.045v3.229c0.399,0.589,1.292,1.063,2.071,1.063
			C430.547,165.581,431.497,164.498,431.497,162.902z"/>
		<path fill="#DBE8EC" d="M435.165,162.902c0-2.659,1.976-4.806,4.75-4.806c2.754,0,4.597,2.052,4.597,5.034v0.569h-6.82
			c0.171,1.121,1.083,2.052,2.641,2.052c0.779,0,1.842-0.322,2.432-0.893l1.083,1.596c-0.912,0.836-2.355,1.272-3.78,1.272
			C437.273,167.728,435.165,165.848,435.165,162.902z M439.914,160.072c-1.501,0-2.147,1.045-2.242,1.957h4.521
			C442.118,161.155,441.51,160.072,439.914,160.072z"/>
	</g>
</g>
<g>
	<g enable-background="new    ">
		<path fill="#DBE8EC" d="M473.076,205.5v-5.794c0-0.855-0.38-1.463-1.367-1.463c-0.855,0-1.559,0.569-1.9,1.063v6.193h-2.432
			v-5.794c0-0.855-0.38-1.463-1.367-1.463c-0.836,0-1.539,0.569-1.9,1.063v6.193h-2.412v-9.176h2.412v1.178
			c0.398-0.531,1.596-1.405,3.002-1.405c1.349,0,2.223,0.627,2.545,1.652c0.532-0.816,1.748-1.652,3.154-1.652
			c1.69,0,2.697,0.893,2.697,2.773v6.63H473.076z"/>
		<path fill="#DBE8EC" d="M483.413,205.5v-0.969c-0.627,0.76-1.71,1.196-2.907,1.196c-1.463,0-3.172-0.987-3.172-3.039
			c0-2.166,1.709-2.964,3.172-2.964c1.235,0,2.299,0.399,2.907,1.121v-1.159c0-0.931-0.798-1.538-2.014-1.538
			c-0.969,0-1.881,0.38-2.641,1.082l-0.95-1.69c1.121-1.007,2.564-1.443,4.009-1.443c2.108,0,4.027,0.836,4.027,3.477v5.927H483.413
			z M483.413,203.296v-1.14c-0.399-0.531-1.159-0.816-1.938-0.816c-0.949,0-1.729,0.513-1.729,1.387s0.779,1.367,1.729,1.367
			C482.254,204.094,483.014,203.828,483.413,203.296z"/>
		<path fill="#DBE8EC" d="M488.715,203.201v-4.769h-1.52v-2.108h1.52v-2.508h2.412v2.508h1.862v2.108h-1.862v4.123
			c0,0.589,0.305,1.025,0.836,1.025c0.361,0,0.703-0.133,0.836-0.285l0.514,1.843c-0.361,0.323-1.008,0.589-2.014,0.589
			C489.607,205.728,488.715,204.854,488.715,203.201z"/>
		<path fill="#DBE8EC" d="M494.054,200.902c0-2.812,2.052-4.806,4.863-4.806c1.881,0,3.021,0.816,3.628,1.652l-1.576,1.481
			c-0.438-0.646-1.102-0.987-1.938-0.987c-1.463,0-2.488,1.063-2.488,2.659s1.025,2.679,2.488,2.679c0.836,0,1.5-0.38,1.938-1.007
			l1.576,1.482c-0.607,0.836-1.747,1.671-3.628,1.671C496.105,205.728,494.054,203.733,494.054,200.902z"/>
		<path fill="#DBE8EC" d="M510.336,205.5v-5.585c0-1.273-0.665-1.672-1.691-1.672c-0.949,0-1.69,0.532-2.09,1.063v6.193h-2.432
			v-12.671h2.432v4.673c0.59-0.684,1.711-1.405,3.211-1.405c2.014,0,2.982,1.102,2.982,2.888v6.516H510.336z"/>
		<path fill="#DBE8EC" d="M517.746,209.28c-1.862-2.07-3.021-5.338-3.021-8.396s1.159-6.326,3.021-8.396l1.5,1.14
			c-1.272,2.317-1.918,4.407-1.918,7.257c0,2.83,0.646,4.939,1.918,7.219L517.746,209.28z"/>
		<path fill="#DBE8EC" d="M524.814,208.103c1.291-2.279,1.918-4.389,1.918-7.219c0-2.85-0.627-4.939-1.918-7.257l1.5-1.14
			c1.862,2.07,3.04,5.338,3.04,8.396s-1.178,6.326-3.04,8.396L524.814,208.103z"/>
	</g>
</g>
<g>
	<g enable-background="new    ">
		<path fill="#DBE8EC" d="M709.01,245.5v-5.794c0-0.855-0.38-1.463-1.367-1.463c-0.855,0-1.559,0.569-1.9,1.063v6.193h-2.432v-5.794
			c0-0.855-0.38-1.463-1.367-1.463c-0.836,0-1.539,0.569-1.9,1.063v6.193h-2.412v-9.176h2.412v1.178
			c0.398-0.531,1.596-1.405,3.002-1.405c1.349,0,2.223,0.627,2.545,1.652c0.532-0.816,1.748-1.652,3.154-1.652
			c1.69,0,2.697,0.893,2.697,2.773v6.63H709.01z"/>
		<path fill="#DBE8EC" d="M719.347,245.5v-0.969c-0.627,0.76-1.71,1.196-2.907,1.196c-1.463,0-3.172-0.987-3.172-3.039
			c0-2.166,1.709-2.964,3.172-2.964c1.235,0,2.299,0.399,2.907,1.121v-1.159c0-0.931-0.798-1.538-2.014-1.538
			c-0.969,0-1.881,0.38-2.641,1.082l-0.95-1.69c1.121-1.007,2.564-1.443,4.009-1.443c2.108,0,4.027,0.836,4.027,3.477v5.927H719.347
			z M719.347,243.296v-1.14c-0.399-0.531-1.159-0.816-1.938-0.816c-0.949,0-1.729,0.513-1.729,1.387s0.779,1.367,1.729,1.367
			C718.188,244.094,718.947,243.828,719.347,243.296z"/>
		<path fill="#DBE8EC" d="M724.648,243.201v-4.769h-1.52v-2.108h1.52v-2.508h2.412v2.508h1.862v2.108h-1.862v4.123
			c0,0.589,0.305,1.025,0.836,1.025c0.361,0,0.703-0.133,0.836-0.285l0.514,1.843c-0.361,0.323-1.008,0.589-2.014,0.589
			C725.541,245.728,724.648,244.854,724.648,243.201z"/>
		<path fill="#DBE8EC" d="M729.987,240.902c0-2.812,2.052-4.806,4.863-4.806c1.881,0,3.021,0.816,3.628,1.652l-1.576,1.481
			c-0.438-0.646-1.102-0.987-1.938-0.987c-1.463,0-2.488,1.063-2.488,2.659s1.025,2.679,2.488,2.679c0.836,0,1.5-0.38,1.938-1.007
			l1.576,1.482c-0.607,0.836-1.747,1.671-3.628,1.671C732.039,245.728,729.987,243.733,729.987,240.902z"/>
		<path fill="#DBE8EC" d="M746.27,245.5v-5.585c0-1.273-0.665-1.672-1.691-1.672c-0.949,0-1.69,0.532-2.09,1.063v6.193h-2.432
			v-12.671h2.432v4.673c0.59-0.684,1.711-1.405,3.211-1.405c2.014,0,2.982,1.102,2.982,2.888v6.516H746.27z"/>
		<path fill="#DBE8EC" d="M753.68,249.28c-1.862-2.07-3.021-5.338-3.021-8.396s1.159-6.326,3.021-8.396l1.5,1.14
			c-1.272,2.317-1.918,4.407-1.918,7.257c0,2.83,0.646,4.939,1.918,7.219L753.68,249.28z"/>
		<path fill="#DBE8EC" d="M760.748,248.103c1.291-2.279,1.918-4.389,1.918-7.219c0-2.85-0.627-4.939-1.918-7.257l1.5-1.14
			c1.862,2.07,3.04,5.338,3.04,8.396s-1.178,6.326-3.04,8.396L760.748,248.103z"/>
	</g>
</g>
<g>
	<g enable-background="new    ">
		<path fill="#DBE8EC" d="M461.955,280.5v-0.969c-0.627,0.76-1.71,1.196-2.907,1.196c-1.463,0-3.172-0.987-3.172-3.039
			c0-2.166,1.709-2.964,3.172-2.964c1.235,0,2.299,0.399,2.907,1.121v-1.159c0-0.931-0.799-1.538-2.014-1.538
			c-0.969,0-1.881,0.38-2.641,1.082l-0.95-1.69c1.121-1.007,2.564-1.443,4.008-1.443c2.108,0,4.028,0.836,4.028,3.477v5.927H461.955
			z M461.955,278.296v-1.14c-0.399-0.531-1.159-0.816-1.938-0.816c-0.95,0-1.729,0.513-1.729,1.387s0.779,1.367,1.729,1.367
			C460.796,279.094,461.556,278.828,461.955,278.296z"/>
		<path fill="#DBE8EC" d="M467.256,278.201v-4.769h-1.52v-2.108h1.52v-2.508h2.413v2.508h1.862v2.108h-1.862v4.123
			c0,0.589,0.304,1.025,0.836,1.025c0.36,0,0.702-0.133,0.835-0.285l0.514,1.843c-0.361,0.323-1.007,0.589-2.014,0.589
			C468.148,280.728,467.256,279.854,467.256,278.201z"/>
		<path fill="#DBE8EC" d="M473.678,278.201v-4.769h-1.52v-2.108h1.52v-2.508h2.413v2.508h1.862v2.108h-1.862v4.123
			c0,0.589,0.304,1.025,0.836,1.025c0.36,0,0.702-0.133,0.835-0.285l0.514,1.843c-0.361,0.323-1.007,0.589-2.014,0.589
			C474.57,280.728,473.678,279.854,473.678,278.201z"/>
		<path fill="#DBE8EC" d="M479.606,280.5v-9.176h2.413v1.235c0.664-0.798,1.785-1.463,2.926-1.463v2.355
			c-0.172-0.038-0.381-0.057-0.666-0.057c-0.797,0-1.861,0.455-2.26,1.044v6.061H479.606z"/>
		<path fill="#DBE8EC" d="M486.218,268.893c0-0.798,0.646-1.425,1.425-1.425c0.798,0,1.443,0.627,1.443,1.425
			s-0.646,1.444-1.443,1.444C486.863,270.337,486.218,269.69,486.218,268.893z M486.445,280.5v-9.176h2.413v9.176H486.445z"/>
		<path fill="#DBE8EC" d="M491.253,280.5v-12.671h2.413v4.673c0.722-0.949,1.748-1.405,2.83-1.405c2.337,0,4.065,1.823,4.065,4.806
			c0,3.078-1.747,4.825-4.065,4.825c-1.102,0-2.108-0.493-2.83-1.405v1.178H491.253z M495.756,278.581
			c1.387,0,2.316-1.083,2.316-2.679c0-1.576-0.93-2.659-2.316-2.659c-0.799,0-1.672,0.456-2.09,1.063v3.249
			C494.084,278.145,494.957,278.581,495.756,278.581z"/>
		<path fill="#DBE8EC" d="M508.58,280.5v-1.159c-0.627,0.685-1.729,1.387-3.23,1.387c-2.014,0-2.963-1.102-2.963-2.887v-6.517h2.412
			v5.566c0,1.272,0.666,1.69,1.691,1.69c0.931,0,1.672-0.513,2.09-1.045v-6.212h2.412v9.176H508.58z"/>
		<path fill="#DBE8EC" d="M513.882,278.201v-4.769h-1.521v-2.108h1.521v-2.508h2.413v2.508h1.861v2.108h-1.861v4.123
			c0,0.589,0.303,1.025,0.836,1.025c0.36,0,0.702-0.133,0.836-0.285l0.512,1.843c-0.36,0.323-1.006,0.589-2.014,0.589
			C514.774,280.728,513.882,279.854,513.882,278.201z"/>
		<path fill="#DBE8EC" d="M519.221,275.902c0-2.659,1.976-4.806,4.75-4.806c2.754,0,4.597,2.052,4.597,5.034v0.569h-6.819
			c0.17,1.121,1.082,2.052,2.641,2.052c0.778,0,1.842-0.322,2.432-0.893l1.082,1.596c-0.912,0.836-2.355,1.272-3.78,1.272
			C521.33,280.728,519.221,278.848,519.221,275.902z M523.971,273.072c-1.502,0-2.147,1.045-2.242,1.957h4.521
			C526.174,274.155,525.566,273.072,523.971,273.072z"/>
		<path fill="#DBE8EC" d="M529.519,279.303l1.045-1.747c0.685,0.646,2.032,1.272,3.173,1.272c1.045,0,1.539-0.398,1.539-0.969
			c0-1.501-5.434-0.266-5.434-3.875c0-1.539,1.33-2.888,3.762-2.888c1.538,0,2.773,0.531,3.686,1.254l-0.97,1.709
			c-0.551-0.569-1.596-1.063-2.716-1.063c-0.875,0-1.444,0.38-1.444,0.893c0,1.349,5.452,0.209,5.452,3.914
			c0,1.69-1.443,2.925-3.989,2.925C532.026,280.728,530.487,280.196,529.519,279.303z"/>
	</g>
</g>
<g>
	<g enable-background="new    ">
		<path fill="#DBE8EC" d="M170.244,323.5v-0.969c-0.627,0.76-1.71,1.196-2.907,1.196c-1.463,0-3.172-0.987-3.172-3.039
			c0-2.166,1.709-2.964,3.172-2.964c1.235,0,2.299,0.399,2.907,1.121v-1.159c0-0.931-0.798-1.538-2.014-1.538
			c-0.969,0-1.881,0.38-2.641,1.082l-0.95-1.69c1.121-1.007,2.564-1.443,4.008-1.443c2.108,0,4.027,0.836,4.027,3.477v5.927H170.244
			z M170.244,321.296v-1.14c-0.399-0.531-1.159-0.816-1.938-0.816c-0.95,0-1.729,0.513-1.729,1.387s0.779,1.367,1.729,1.367
			C169.085,322.094,169.845,321.828,170.244,321.296z"/>
		<path fill="#DBE8EC" d="M175.545,321.201v-4.769h-1.52v-2.108h1.52v-2.508h2.413v2.508h1.862v2.108h-1.862v4.123
			c0,0.589,0.304,1.025,0.836,1.025c0.361,0,0.703-0.133,0.835-0.285l0.513,1.843c-0.361,0.323-1.007,0.589-2.014,0.589
			C176.438,323.728,175.545,322.854,175.545,321.201z"/>
		<path fill="#DBE8EC" d="M181.967,321.201v-4.769h-1.52v-2.108h1.52v-2.508h2.413v2.508h1.862v2.108h-1.862v4.123
			c0,0.589,0.304,1.025,0.836,1.025c0.361,0,0.703-0.133,0.835-0.285l0.513,1.843c-0.361,0.323-1.007,0.589-2.014,0.589
			C182.86,323.728,181.967,322.854,181.967,321.201z"/>
		<path fill="#DBE8EC" d="M187.896,323.5v-9.176h2.413v1.235c0.665-0.798,1.786-1.463,2.926-1.463v2.355
			c-0.171-0.038-0.38-0.057-0.665-0.057c-0.798,0-1.862,0.455-2.261,1.044v6.061H187.896z"/>
		<path fill="#DBE8EC" d="M194.507,311.893c0-0.798,0.646-1.425,1.425-1.425c0.798,0,1.444,0.627,1.444,1.425
			s-0.646,1.444-1.444,1.444C195.153,313.337,194.507,312.69,194.507,311.893z M194.735,323.5v-9.176h2.413v9.176H194.735z"/>
		<path fill="#DBE8EC" d="M199.542,323.5v-12.671h2.413v4.673c0.722-0.949,1.748-1.405,2.831-1.405c2.337,0,4.065,1.823,4.065,4.806
			c0,3.078-1.748,4.825-4.065,4.825c-1.102,0-2.108-0.493-2.831-1.405v1.178H199.542z M204.044,321.581
			c1.387,0,2.317-1.083,2.317-2.679c0-1.576-0.931-2.659-2.317-2.659c-0.798,0-1.672,0.456-2.09,1.063v3.249
			C202.373,321.145,203.247,321.581,204.044,321.581z"/>
		<path fill="#DBE8EC" d="M216.869,323.5v-1.159c-0.627,0.685-1.729,1.387-3.23,1.387c-2.014,0-2.963-1.102-2.963-2.887v-6.517
			h2.413v5.566c0,1.272,0.665,1.69,1.691,1.69c0.931,0,1.672-0.513,2.09-1.045v-6.212h2.413v9.176H216.869z"/>
		<path fill="#DBE8EC" d="M222.171,321.201v-4.769h-1.52v-2.108h1.52v-2.508h2.413v2.508h1.862v2.108h-1.862v4.123
			c0,0.589,0.304,1.025,0.836,1.025c0.361,0,0.703-0.133,0.836-0.285l0.513,1.843c-0.361,0.323-1.007,0.589-2.014,0.589
			C223.063,323.728,222.171,322.854,222.171,321.201z"/>
		<path fill="#DBE8EC" d="M227.51,318.902c0-2.659,1.976-4.806,4.75-4.806c2.754,0,4.597,2.052,4.597,5.034v0.569h-6.82
			c0.171,1.121,1.083,2.052,2.641,2.052c0.779,0,1.842-0.322,2.432-0.893l1.083,1.596c-0.912,0.836-2.355,1.272-3.78,1.272
			C229.619,323.728,227.51,321.848,227.51,318.902z M232.259,316.072c-1.501,0-2.147,1.045-2.242,1.957h4.521
			C234.463,317.155,233.855,316.072,232.259,316.072z"/>
		<path fill="#DBE8EC" d="M237.808,322.303l1.045-1.747c0.684,0.646,2.033,1.272,3.172,1.272c1.045,0,1.539-0.398,1.539-0.969
			c0-1.501-5.434-0.266-5.434-3.875c0-1.539,1.33-2.888,3.762-2.888c1.539,0,2.773,0.531,3.686,1.254l-0.969,1.709
			c-0.551-0.569-1.596-1.063-2.716-1.063c-0.874,0-1.444,0.38-1.444,0.893c0,1.349,5.452,0.209,5.452,3.914
			c0,1.69-1.444,2.925-3.989,2.925C240.315,323.728,238.776,323.196,237.808,322.303z"/>
	</g>
</g>
<g>
	<g enable-background="new    ">
		<path fill="#DBE8EC" d="M141.979,367l-0.798-2.146h-5.434L134.95,367h-3.059l4.882-12.671h3.382L145.038,367H141.979z
			 M138.465,357.026l-1.976,5.452h3.951L138.465,357.026z"/>
		<path fill="#DBE8EC" d="M152.467,367v-1.178c-0.722,0.912-1.71,1.405-2.831,1.405c-2.299,0-4.065-1.747-4.065-4.825
			c0-2.982,1.729-4.806,4.065-4.806c1.083,0,2.109,0.456,2.831,1.405v-4.673h2.432V367H152.467z M152.467,364.036v-3.248
			c-0.399-0.608-1.273-1.045-2.071-1.045c-1.387,0-2.336,1.083-2.336,2.659c0,1.596,0.95,2.679,2.336,2.679
			C151.194,365.081,152.068,364.645,152.467,364.036z"/>
		<path fill="#DBE8EC" d="M163.602,367v-1.178c-0.722,0.912-1.71,1.405-2.831,1.405c-2.299,0-4.065-1.747-4.065-4.825
			c0-2.982,1.729-4.806,4.065-4.806c1.083,0,2.109,0.456,2.831,1.405v-4.673h2.432V367H163.602z M163.602,364.036v-3.248
			c-0.399-0.608-1.273-1.045-2.071-1.045c-1.387,0-2.336,1.083-2.336,2.659c0,1.596,0.95,2.679,2.336,2.679
			C162.329,365.081,163.203,364.645,163.602,364.036z"/>
		<path fill="#DBE8EC" d="M173.805,364.701v-4.769h-1.52v-2.108h1.52v-2.508h2.413v2.508h1.862v2.108h-1.862v4.123
			c0,0.589,0.304,1.025,0.836,1.025c0.361,0,0.703-0.133,0.836-0.285l0.513,1.843c-0.361,0.323-1.007,0.589-2.014,0.589
			C174.698,367.228,173.805,366.354,173.805,364.701z"/>
		<path fill="#DBE8EC" d="M179.144,362.402c0-2.603,1.824-4.806,4.844-4.806c3.04,0,4.863,2.203,4.863,4.806
			s-1.824,4.825-4.863,4.825C180.968,367.228,179.144,365.005,179.144,362.402z M186.344,362.402c0-1.425-0.835-2.659-2.355-2.659
			c-1.501,0-2.336,1.234-2.336,2.659c0,1.444,0.835,2.679,2.336,2.679C185.508,365.081,186.344,363.847,186.344,362.402z"/>
		<path fill="#DBE8EC" d="M195.541,367v-9.176h2.413v1.235c0.665-0.798,1.786-1.463,2.926-1.463v2.355
			c-0.171-0.038-0.38-0.057-0.665-0.057c-0.798,0-1.862,0.455-2.261,1.044V367H195.541z"/>
		<path fill="#DBE8EC" d="M201.792,362.402c0-2.659,1.976-4.806,4.75-4.806c2.754,0,4.597,2.052,4.597,5.034v0.569h-6.82
			c0.171,1.121,1.083,2.052,2.641,2.052c0.779,0,1.842-0.322,2.432-0.893l1.083,1.596c-0.912,0.836-2.355,1.272-3.78,1.272
			C203.9,367.228,201.792,365.348,201.792,362.402z M206.541,359.572c-1.501,0-2.147,1.045-2.242,1.957h4.521
			C208.745,360.655,208.137,359.572,206.541,359.572z"/>
		<path fill="#DBE8EC" d="M212.279,362.402c0-3.059,1.71-4.806,4.046-4.806c1.121,0,2.128,0.493,2.831,1.387v-1.159h2.432v12.671
			h-2.432v-4.673c-0.741,0.95-1.729,1.405-2.831,1.405C213.989,367.228,212.279,365.461,212.279,362.402z M219.156,364.018v-3.229
			c-0.399-0.608-1.273-1.045-2.071-1.045c-1.368,0-2.317,1.083-2.317,2.659c0,1.596,0.95,2.679,2.317,2.679
			C217.883,365.081,218.757,364.606,219.156,364.018z"/>
		<path fill="#DBE8EC" d="M230.158,367v-1.159c-0.627,0.685-1.729,1.387-3.23,1.387c-2.014,0-2.963-1.102-2.963-2.887v-6.517h2.413
			v5.566c0,1.272,0.665,1.69,1.691,1.69c0.931,0,1.672-0.513,2.09-1.045v-6.212h2.413V367H230.158z"/>
		<path fill="#DBE8EC" d="M234.376,362.402c0-2.659,1.976-4.806,4.75-4.806c2.754,0,4.597,2.052,4.597,5.034v0.569h-6.82
			c0.171,1.121,1.083,2.052,2.641,2.052c0.779,0,1.842-0.322,2.432-0.893l1.083,1.596c-0.912,0.836-2.355,1.272-3.78,1.272
			C236.485,367.228,234.376,365.348,234.376,362.402z M239.126,359.572c-1.501,0-2.147,1.045-2.242,1.957h4.521
			C241.33,360.655,240.722,359.572,239.126,359.572z"/>
		<path fill="#DBE8EC" d="M244.674,365.803l1.045-1.747c0.684,0.646,2.033,1.272,3.172,1.272c1.045,0,1.539-0.398,1.539-0.969
			c0-1.501-5.434-0.266-5.434-3.875c0-1.539,1.33-2.888,3.762-2.888c1.539,0,2.773,0.531,3.686,1.254l-0.969,1.709
			c-0.551-0.569-1.596-1.063-2.716-1.063c-0.874,0-1.444,0.38-1.444,0.893c0,1.349,5.452,0.209,5.452,3.914
			c0,1.69-1.444,2.925-3.989,2.925C247.182,367.228,245.643,366.696,244.674,365.803z"/>
		<path fill="#DBE8EC" d="M255.029,364.701v-4.769h-1.52v-2.108h1.52v-2.508h2.413v2.508h1.862v2.108h-1.862v4.123
			c0,0.589,0.304,1.025,0.836,1.025c0.361,0,0.703-0.133,0.836-0.285l0.513,1.843c-0.361,0.323-1.007,0.589-2.014,0.589
			C255.921,367.228,255.029,366.354,255.029,364.701z"/>
		<path fill="#DBE8EC" d="M265.25,362.402c0-2.603,1.824-4.806,4.844-4.806c3.04,0,4.863,2.203,4.863,4.806
			s-1.824,4.825-4.863,4.825C267.074,367.228,265.25,365.005,265.25,362.402z M272.45,362.402c0-1.425-0.835-2.659-2.355-2.659
			c-1.501,0-2.336,1.234-2.336,2.659c0,1.444,0.835,2.679,2.336,2.679C271.615,365.081,272.45,363.847,272.45,362.402z"/>
		<path fill="#DBE8EC" d="M276.765,367v-12.671h2.413v4.673c0.722-0.949,1.748-1.405,2.831-1.405c2.337,0,4.065,1.823,4.065,4.806
			c0,3.078-1.748,4.825-4.065,4.825c-1.102,0-2.108-0.493-2.831-1.405V367H276.765z M281.267,365.081
			c1.387,0,2.317-1.083,2.317-2.679c0-1.576-0.931-2.659-2.317-2.659c-0.798,0-1.672,0.456-2.09,1.063v3.249
			C279.595,364.645,280.469,365.081,281.267,365.081z"/>
		<path fill="#DBE8EC" d="M284.764,370.059l0.646-1.786c0.361,0.305,0.684,0.476,1.235,0.476c0.741,0,1.254-0.476,1.254-1.501
			v-9.423h2.413v9.423c0,2.09-1.064,3.477-3.268,3.477C285.885,370.724,285.429,370.533,284.764,370.059z M287.67,355.393
			c0-0.798,0.646-1.425,1.425-1.425c0.798,0,1.444,0.627,1.444,1.425s-0.646,1.444-1.444,1.444
			C288.316,356.837,287.67,356.19,287.67,355.393z"/>
		<path fill="#DBE8EC" d="M292.116,362.402c0-2.659,1.976-4.806,4.75-4.806c2.754,0,4.597,2.052,4.597,5.034v0.569h-6.82
			c0.171,1.121,1.083,2.052,2.64,2.052c0.779,0,1.843-0.322,2.432-0.893l1.083,1.596c-0.912,0.836-2.355,1.272-3.78,1.272
			C294.225,367.228,292.116,365.348,292.116,362.402z M296.866,359.572c-1.501,0-2.147,1.045-2.242,1.957h4.521
			C299.069,360.655,298.461,359.572,296.866,359.572z"/>
		<path fill="#DBE8EC" d="M302.624,362.402c0-2.812,2.052-4.806,4.863-4.806c1.881,0,3.021,0.816,3.628,1.652l-1.577,1.481
			c-0.437-0.646-1.102-0.987-1.938-0.987c-1.462,0-2.488,1.063-2.488,2.659s1.026,2.679,2.488,2.679c0.836,0,1.501-0.38,1.938-1.007
			l1.577,1.482c-0.608,0.836-1.748,1.671-3.628,1.671C304.675,367.228,302.624,365.233,302.624,362.402z"/>
		<path fill="#DBE8EC" d="M313.187,364.701v-4.769h-1.52v-2.108h1.52v-2.508h2.413v2.508h1.862v2.108H315.6v4.123
			c0,0.589,0.304,1.025,0.836,1.025c0.361,0,0.703-0.133,0.836-0.285l0.513,1.843c-0.361,0.323-1.007,0.589-2.014,0.589
			C314.08,367.228,313.187,366.354,313.187,364.701z"/>
	</g>
</g>
<path marker-end="url(#raphael-marker-endblock55)" d="M98.065,411"/>
<path fill="none" stroke="#DBE8EC" stroke-width="2" d="M336.858,98H94.007"/>
<path fill="none" stroke="#DBE8EC" stroke-width="2" stroke-dasharray="8" d="M336.858,332H94.007"/>
<path fill="none" stroke="#DBE8EC" stroke-width="2" d="M483.367,137H336.868"/>
<path fill="none" stroke="#DBE8EC" stroke-width="2" d="M812.418,254H651.704"/>
<path fill="none" stroke="#DBE8EC" stroke-width="2" d="M640.414,215H336.867"/>
<path fill="none" stroke="#DBE8EC" stroke-width="2" stroke-dasharray="8" d="M651.852,293H348.305"/>
<path fill="none" stroke="#DBE8EC" stroke-width="2" stroke-dasharray="8" d="M489.367,176H342.868"/>
<polyline fill="none" stroke="#DBE8EC" stroke-width="2" points="99.079,375 119,375 119,351.5 93.07,351.5 "/>
</svg>
