<?xml version="1.0" encoding="utf-8"?>
<!-- Generator: Adobe Illustrator 16.0.0, SVG Export Plug-In . SVG Version: 6.00 Build 0)  -->
<!DOCTYPE svg PUBLIC "-//W3C//DTD SVG 1.1//EN" "http://www.w3.org/Graphics/SVG/1.1/DTD/svg11.dtd">
<svg version="1.1" id="Layer_1" xmlns="http://www.w3.org/2000/svg" xmlns:xlink="http://www.w3.org/1999/xlink" x="0px" y="0px"
	 width="612px" height="212px" viewBox="0 0 612 212" enable-background="new 0 0 612 212" xml:space="preserve">
<path fill="#E1EBEF" d="M399,68h148v57.6c-44.4-7.199-103.6,21.601-148,7.2V68z M399,68"/>
<text transform="matrix(1 0 0 1 447.8115 97.8984)"><tspan x="0" y="0" fill="#435152" font-family="'ProximaNova-Bold'" font-size="14">header( )</tspan><tspan x="-32.438" y="16.8" fill="#435152" font-family="'ProximaNova-Bold'" font-size="14">print $page_string </tspan></text>
<path fill="#E1EBEF" d="M127.8,77H243l-28.8,54H99L127.8,77z M127.8,77"/>
<text transform="matrix(1 0 0 1 138.3994 101.5)"><tspan x="0" y="0" fill="#435152" font-family="'ProximaNova-Bold'" font-size="14">Bunch o&apos;</tspan><tspan x="-15.267" y="16.8" fill="#435152" font-family="'ProximaNova-Bold'" font-size="14">super-globals</tspan></text>
<text transform="matrix(1 0 0 1 194.2969 101.5)" fill="#435152" font-family="'ProximaNova-Regular'" font-size="12"> </text>
<path fill="#E1EBEF" d="M288.5,126.1V82.9c0-2.981,12.096-5.4,27-5.4c14.904,0,27,2.419,27,5.4v43.2c0,2.981-12.096,5.4-27,5.4
	C300.596,131.5,288.5,129.081,288.5,126.1"/>
<path fill="none" stroke="#435152" stroke-linecap="round" stroke-linejoin="round" stroke-miterlimit="10" d="M288.5,126.1V82.9
	c0-2.981,12.096-5.4,27-5.4c14.904,0,27,2.419,27,5.4v43.2c0,2.981-12.096,5.4-27,5.4C300.596,131.5,288.5,129.081,288.5,126.1
	 M288.5,82.9c0,2.981,12.096,5.4,27,5.4c14.904,0,27-2.419,27-5.4"/>
<text transform="matrix(1 0 0 1 301.6333 111.2031)" fill="#435152" font-family="'ProximaNova-Bold'" font-size="14">PHP</text>
<line fill="none" stroke="#E1EBEF" stroke-linecap="round" stroke-linejoin="round" stroke-miterlimit="10" x1="229.1" y1="104.5" x2="278.6" y2="104.5"/>
<path fill="#E1EBEF" d="M286.6,104.5l-8-3v6L286.6,104.5z M286.6,104.5"/>
<path fill="none" stroke="#E1EBEF" stroke-miterlimit="10" d="M286.6,104.5l-8-3v6L286.6,104.5z M286.6,104.5"/>
<line fill="none" stroke="#E1EBEF" stroke-linecap="round" stroke-linejoin="round" stroke-miterlimit="10" x1="342.5" y1="104.5" x2="389.6" y2="104.5"/>
<path fill="#E1EBEF" d="M397.6,104.5l-8-3v6L397.6,104.5z M397.6,104.5"/>
<path fill="none" stroke="#E1EBEF" stroke-miterlimit="10" d="M397.6,104.5l-8-3v6L397.6,104.5z M397.6,104.5"/>
</svg>
