<?xml version="1.0" encoding="utf-8"?>
<!-- Generator: Adobe Illustrator 16.0.0, SVG Export Plug-In . SVG Version: 6.00 Build 0)  -->
<!DOCTYPE svg PUBLIC "-//W3C//DTD SVG 1.1//EN" "http://www.w3.org/Graphics/SVG/1.1/DTD/svg11.dtd">
<svg version="1.1" id="Layer_1" xmlns="http://www.w3.org/2000/svg" xmlns:xlink="http://www.w3.org/1999/xlink" x="0px" y="0px"
	 width="921px" height="450px" viewBox="0 0 921 450" enable-background="new 0 0 921 450" xml:space="preserve">
<polygon fill="#DBE8EC" points="323.827,87.857 333.969,98 323.827,108.143 "/>
<polygon fill="#DBE8EC" points="478.295,126.857 488.438,137 478.295,147.143 "/>
<polygon fill="#DBE8EC" points="347.947,186.143 337.805,176 347.947,165.857 "/>
<polygon fill="#DBE8EC" points="347.947,303.143 337.805,293 347.947,282.857 "/>
<polygon fill="#DBE8EC" points="104.15,342.143 94.007,332 104.15,321.857 "/>
<polygon fill="#DBE8EC" points="104.15,385.143 94.007,375 104.15,364.857 "/>
<polygon fill="#DBE8EC" points="640.415,204.857 650.558,215 640.415,225.143 "/>
<polygon fill="#DBE8EC" points="807.347,243.857 817.489,254 807.347,264.143 "/>
<rect x="10" y="20" fill="#DBE8EC" width="166.141" height="39"/>
<g>
	<text transform="matrix(1 0 0 1 26.1226 45)" fill="#344041" font-family="'ProximaNova-Bold'" font-size="17">RoutingListener</text>
</g>
<rect x="10" y="391" fill="#DBE8EC" width="166.141" height="39"/>
<g>
	<text transform="matrix(1 0 0 1 26.1226 416)" fill="#344041" font-family="'ProximaNova-Bold'" font-size="17">RoutingListener</text>
</g>
<path fill="none" stroke="#DBE8EC" stroke-width="2" d="M93.07,59v332"/>
<rect x="273.016" y="20" fill="#DBE8EC" width="127.703" height="39"/>
<g>
	<text transform="matrix(1 0 0 1 282.3545 45)" fill="#344041" font-family="'ProximaNova-Bold'" font-size="17">ChainRouter</text>
</g>
<rect x="273.016" y="391" fill="#DBE8EC" width="127.703" height="39"/>
<g>
	<text transform="matrix(1 0 0 1 282.3545 416)" fill="#344041" font-family="'ProximaNova-Bold'" font-size="17">ChainRouter</text>
</g>
<path fill="none" stroke="#DBE8EC" stroke-width="2" d="M336.867,59v332"/>
<rect x="420.719" y="20" fill="#DBE8EC" width="137.312" height="39"/>
<g>
	<text transform="matrix(1 0 0 1 431.5249 45)" fill="#344041" font-family="'ProximaNova-Bold'" font-size="17">LegacyRouter</text>
</g>
<rect x="420.719" y="391" fill="#DBE8EC" width="137.312" height="39"/>
<g>
	<text transform="matrix(1 0 0 1 431.5249 416)" fill="#344041" font-family="'ProximaNova-Bold'" font-size="17">LegacyRouter</text>
</g>
<path fill="none" stroke="#DBE8EC" stroke-width="2" d="M489.375,59v131.5"/>
<path fill="none" stroke="#DBE8EC" stroke-width="2" d="M489.375,284.5v109.25"/>
<path fill="none" stroke="#DBE8EC" stroke-width="2" d="M489.375,208.857v55.285"/>
<rect x="578.031" y="20" fill="#DBE8EC" width="146.922" height="39"/>
<g>
	<text transform="matrix(1 0 0 1 586.8359 45)" fill="#344041" font-family="'ProximaNova-Bold'" font-size="17">DynamicRouter</text>
</g>
<rect x="578.031" y="391" fill="#DBE8EC" width="146.922" height="39"/>
<g>
	<text transform="matrix(1 0 0 1 586.8359 416)" fill="#344041" font-family="'ProximaNova-Bold'" font-size="17">DynamicRouter</text>
</g>
<path fill="none" stroke="#DBE8EC" stroke-width="2" d="M651.492,59v332"/>
<rect x="744.953" y="20" fill="#DBE8EC" width="146.922" height="39"/>
<g>
	<text transform="matrix(1 0 0 1 754.125 45)" fill="#344041" font-family="'ProximaNova-Bold'" font-size="17">NestedMatcher</text>
</g>
<rect x="744.953" y="391" fill="#DBE8EC" width="146.922" height="39"/>
<g>
	<text transform="matrix(1 0 0 1 754.125 416)" fill="#344041" font-family="'ProximaNova-Bold'" font-size="17">NestedMatcher</text>
</g>
<path fill="none" stroke="#DBE8EC" stroke-width="2" d="M818.414,59v332"/>
<g>
	<text transform="matrix(1 0 0 1 181.3057 89.5)" fill="#DBE8EC" font-family="'ProximaNova-Bold'" font-size="17">match( )</text>
</g>
<g>
	<text transform="matrix(1 0 0 1 382.8926 128.5)" fill="#DBE8EC" font-family="'ProximaNova-Bold'" font-size="17">match( )</text>
</g>
<g>
	<text transform="matrix(1 0 0 1 398.7041 167.5)" fill="#DBE8EC" font-family="'ProximaNova-Bold'" font-size="17">Nope</text>
</g>
<g>
	<text transform="matrix(1 0 0 1 455.248 205.5)" fill="#DBE8EC" font-family="'ProximaNova-Bold'" font-size="17">match( )</text>
</g>
<g>
	<text transform="matrix(1 0 0 1 696.4336 245.5)" fill="#DBE8EC" font-family="'ProximaNova-Bold'" font-size="17">match( )</text>
</g>
<g>
	<text transform="matrix(1 0 0 1 448.4478 280.5)" fill="#DBE8EC" font-family="'ProximaNova-Bold'" font-size="17">attributes</text>
</g>
<g>
	<text transform="matrix(1 0 0 1 163.5376 323.5)" fill="#DBE8EC" font-family="'ProximaNova-Bold'" font-size="17">attributes</text>
</g>
<g>
	<text transform="matrix(1 0 0 1 131.9678 367)" fill="#DBE8EC" font-family="'ProximaNova-Bold'" font-size="17">Add to request object</text>
</g>
<path marker-end="url(#raphael-marker-endblock55)" d="M98.065,411"/>
<path fill="none" stroke="#DBE8EC" stroke-width="2" d="M336.858,98H94.007"/>
<path fill="none" stroke="#DBE8EC" stroke-width="2" stroke-dasharray="8" d="M336.858,332H94.007"/>
<path fill="none" stroke="#DBE8EC" stroke-width="2" d="M483.367,137H336.868"/>
<path fill="none" stroke="#DBE8EC" stroke-width="2" d="M812.418,254H651.704"/>
<path fill="none" stroke="#DBE8EC" stroke-width="2" d="M640.414,215H336.867"/>
<path fill="none" stroke="#DBE8EC" stroke-width="2" stroke-dasharray="8" d="M651.852,293H348.305"/>
<path fill="none" stroke="#DBE8EC" stroke-width="2" stroke-dasharray="8" d="M489.367,176H342.868"/>
<polyline fill="none" stroke="#DBE8EC" stroke-width="2" points="99.079,375 119,375 119,351.5 93.07,351.5 "/>
</svg>
